<ttFont>
<head>
    <!-- Most of this table will be recalculated by the compiler -->
    <tableVersion value="1"/>
    <fontRevision value="2"/>
    <checkSumAdjustment value="0xe807c920"/>
    <magicNumber value="0x5f0f3cf5"/>
    <flags value="00000000 00011011"/>
    <unitsPerEm value="2048"/>
    <created value="Fri Sep 12 12:29:34 2008"/>
    <modified value="Tue Jan 13 23:10:15 2015"/>
    <xMin value="-1509"/>
    <yMin value="-555"/>
    <xMax value="2043"/>
    <yMax value="2163"/>
    <macStyle value="00000000 00000000"/>
    <lowestRecPPEM value="9"/>
    <fontDirectionHint value="2"/>
    <indexToLocFormat value="0"/>
    <glyphDataFormat value="0"/>
  </head>
    <TTGlyph name=".notdef" xMin="104" yMin="0" xMax="699" yMax="1456">
      <contour>
        <pt x="699" y="0" on="1"/>
        <pt x="104" y="0" on="1"/>
        <pt x="104" y="1456" on="1"/>
        <pt x="699" y="1456" on="1"/>
      </contour>
      <contour>
        <pt x="653" y="86" on="1"/>
        <pt x="653" y="1370" on="1"/>
        <pt x="424" y="728" on="1"/>
      </contour>
      <contour>
        <pt x="149" y="1361" on="1"/>
        <pt x="149" y="94" on="1"/>
        <pt x="375" y="728" on="1"/>
      </contour>
      <contour>
        <pt x="183" y="54" on="1"/>
        <pt x="615" y="54" on="1"/>
        <pt x="399" y="659" on="1"/>
      </contour>
      <contour>
        <pt x="399" y="796" on="1"/>
        <pt x="615" y="1402" on="1"/>
        <pt x="183" y="1402" on="1"/>
      </contour>
    </TTGlyph>
    <TTGlyph name="A" xMin="43" yMin="0" xMax="1139" yMax="1456">
      <contour>
        <pt x="836" y="380" on="1"/>
        <pt x="344" y="380" on="1"/>
        <pt x="231" y="0" on="1"/>
        <pt x="43" y="0" on="1"/>
        <pt x="512" y="1456" on="1"/>
        <pt x="669" y="1456" on="1"/>
        <pt x="1139" y="0" on="1"/>
        <pt x="951" y="0" on="1"/>
      </contour>
      <contour>
        <pt x="392" y="538" on="1"/>
        <pt x="789" y="538" on="1"/>
        <pt x="590" y="1200" on="1"/>
      </contour>
    </TTGlyph>
    <TTGlyph name="AE" xMin="-2" yMin="0" xMax="1616" yMax="1456">
      <contour>
        <pt x="1616" y="0" on="1"/>
        <pt x="853" y="0" on="1"/>
        <pt x="840" y="353" on="1"/>
        <pt x="382" y="353" on="1"/>
        <pt x="214" y="0" on="1"/>
        <pt x="-2" y="0" on="1"/>
        <pt x="737" y="1456" on="1"/>
        <pt x="1564" y="1456" on="1"/>
        <pt x="1564" y="1304" on="1"/>
        <pt x="984" y="1304" on="1"/>
        <pt x="1001" y="833" on="1"/>
        <pt x="1496" y="833" on="1"/>
        <pt x="1496" y="682" on="1"/>
        <pt x="1006" y="682" on="1"/>
        <pt x="1025" y="151" on="1"/>
        <pt x="1616" y="151" on="1"/>
      </contour>
      <contour>
        <pt x="465" y="527" on="1"/>
        <pt x="834" y="527" on="1"/>
        <pt x="809" y="1250" on="1"/>
      </contour>
    </TTGlyph>
    <TTGlyph name="AEacute" xMin="-2" yMin="0" xMax="1616" yMax="1856">
      <component glyphName="AE" x="0" y="0" flags="0x204"/>
      <component glyphName="acute" x="578" y="322" flags="0x4"/>
    </TTGlyph>
    <TTGlyph name="Aacute" xMin="43" yMin="0" xMax="1139" yMax="1844">
      <component glyphName="A" x="0" y="0" flags="0x204"/>
      <component glyphName="acute" x="369" y="310" flags="0x4"/>
    </TTGlyph>
    <TTGlyph name="Abreve" xMin="43" yMin="0" xMax="1139" yMax="1806">
      <component glyphName="A" x="0" y="0" flags="0x204"/>
      <component glyphName="breve" x="166" y="311" flags="0x4"/>
    </TTGlyph>
    <TTGlyph name="Acircumflex" xMin="43" yMin="0" xMax="1139" yMax="1846">
      <component glyphName="A" x="0" y="0" flags="0x204"/>
      <component glyphName="circumflex" x="167" y="310" flags="0x4"/>
    </TTGlyph>
    <TTGlyph name="Adieresis" xMin="43" yMin="0" xMax="1139" yMax="1787">
      <component glyphName="A" x="0" y="0" flags="0x204"/>
      <component glyphName="dieresis" x="171" y="310" flags="0x4"/>
    </TTGlyph>
    <TTGlyph name="Agrave" xMin="43" yMin="0" xMax="1139" yMax="1844">
      <component glyphName="A" x="0" y="0" flags="0x204"/>
      <component glyphName="grave" x="226" y="310" flags="0x4"/>
    </TTGlyph>
    <TTGlyph name="Alpha" xMin="43" yMin="0" xMax="1139" yMax="1456">
      <component glyphName="A" x="0" y="0" flags="0x204"/>
    </TTGlyph>
    <TTGlyph name="Alphatonos" xMin="43" yMin="0" xMax="1139" yMax="1599">
      <component glyphName="A" x="0" y="0" flags="0x204"/>
      <component glyphName="tonos" x="-20" y="0" flags="0x4"/>
    </TTGlyph>
    <TTGlyph name="Amacron" xMin="43" yMin="0" xMax="1139" yMax="1774">
      <component glyphName="A" x="0" y="0" flags="0x204"/>
      <component glyphName="macron" x="167" y="318" flags="0x4"/>
    </TTGlyph>
    <TTGlyph name="Aogonek" xMin="43" yMin="-433" xMax="1139" yMax="1456">
      <contour>
        <pt x="669" y="1456" on="1"/>
        <pt x="1139" y="0" on="1"/>
        <pt x="1101" y="0" on="1"/>
        <pt x="1022" y="-70" on="0"/>
        <pt x="960" y="-173" on="0"/>
        <pt x="960" y="-222" on="1"/>
        <pt x="960" y="-294" on="0"/>
        <pt x="1023" y="-294" on="1"/>
        <pt x="1061" y="-294" on="0"/>
        <pt x="1106" y="-268" on="1"/>
        <pt x="1116" y="-389" on="1"/>
        <pt x="1054" y="-433" on="0"/>
        <pt x="976" y="-433" on="1"/>
        <pt x="899" y="-433" on="0"/>
        <pt x="808" y="-330" on="0"/>
        <pt x="808" y="-243" on="1"/>
        <pt x="808" y="-97" on="0"/>
        <pt x="949" y="6" on="1"/>
        <pt x="836" y="380" on="1"/>
        <pt x="344" y="380" on="1"/>
        <pt x="231" y="0" on="1"/>
        <pt x="43" y="0" on="1"/>
        <pt x="512" y="1456" on="1"/>
      </contour>
      <contour>
        <pt x="392" y="538" on="1"/>
        <pt x="789" y="538" on="1"/>
        <pt x="590" y="1200" on="1"/>
      </contour>
    </TTGlyph>
    <TTGlyph name="Aring" xMin="43" yMin="0" xMax="1139" yMax="1937">
      <component glyphName="A" x="0" y="0" flags="0x204"/>
      <component glyphName="ring" x="258" y="321" flags="0x4"/>
    </TTGlyph>
    <TTGlyph name="Aringacute" xMin="43" yMin="0" xMax="1139" yMax="1940">
      <component glyphName="A" x="0" y="0" flags="0x204"/>
      <component glyphName="glyph00473" x="301" y="290" flags="0x4"/>
    </TTGlyph>
    <TTGlyph name="Atilde" xMin="43" yMin="0" xMax="1139" yMax="1826">
      <component glyphName="A" x="0" y="0" flags="0x204"/>
      <component glyphName="tilde" x="163" y="314" flags="0x4"/>
    </TTGlyph>
    <TTGlyph name="B" xMin="157" yMin="0" xMax="1000" yMax="1456">
      <contour>
        <pt x="157" y="0" on="1"/>
        <pt x="157" y="1456" on="1"/>
        <pt x="572" y="1456" on="1"/>
        <pt x="771" y="1456" on="0"/>
        <pt x="972" y="1262" on="0"/>
        <pt x="972" y="1068" on="1"/>
        <pt x="972" y="966" on="0"/>
        <pt x="870" y="810" on="0"/>
        <pt x="783" y="767" on="1"/>
        <pt x="883" y="737" on="0"/>
        <pt x="1000" y="551" on="0"/>
        <pt x="1000" y="420" on="1"/>
        <pt x="1000" y="224" on="0"/>
        <pt x="785" y="0" on="0"/>
        <pt x="586" y="0" on="1"/>
      </contour>
      <contour>
        <pt x="340" y="681" on="1"/>
        <pt x="340" y="157" on="1"/>
        <pt x="590" y="157" on="1"/>
        <pt x="694" y="157" on="0"/>
        <pt x="816" y="294" on="0"/>
        <pt x="816" y="418" on="1"/>
        <pt x="816" y="681" on="0"/>
        <pt x="594" y="681" on="1"/>
      </contour>
      <contour>
        <pt x="340" y="835" on="1"/>
        <pt x="575" y="835" on="1"/>
        <pt x="670" y="835" on="0"/>
        <pt x="787" y="963" on="0"/>
        <pt x="787" y="1069" on="1"/>
        <pt x="787" y="1189" on="0"/>
        <pt x="681" y="1298" on="0"/>
        <pt x="572" y="1298" on="1"/>
        <pt x="340" y="1298" on="1"/>
      </contour>
    </TTGlyph>
    <TTGlyph name="Beta" xMin="157" yMin="0" xMax="1000" yMax="1456">
      <component glyphName="B" x="0" y="0" flags="0x204"/>
    </TTGlyph>
    <TTGlyph name="C" xMin="124" yMin="-20" xMax="1070" yMax="1476">
      <contour>
        <pt x="1070" y="462" on="1"/>
        <pt x="1058" y="228" on="0"/>
        <pt x="819" y="-20" on="0"/>
        <pt x="601" y="-20" on="1"/>
        <pt x="382" y="-20" on="0"/>
        <pt x="124" y="313" on="0"/>
        <pt x="124" y="598" on="1"/>
        <pt x="124" y="862" on="1"/>
        <pt x="124" y="1146" on="0"/>
        <pt x="389" y="1476" on="0"/>
        <pt x="618" y="1476" on="1"/>
        <pt x="829" y="1476" on="0"/>
        <pt x="1060" y="1223" on="0"/>
        <pt x="1070" y="988" on="1"/>
        <pt x="885" y="988" on="1"/>
        <pt x="873" y="1166" on="0"/>
        <pt x="747" y="1318" on="0"/>
        <pt x="618" y="1318" on="1"/>
        <pt x="469" y="1318" on="0"/>
        <pt x="309" y="1085" on="0"/>
        <pt x="309" y="860" on="1"/>
        <pt x="309" y="593" on="1"/>
        <pt x="309" y="372" on="0"/>
        <pt x="458" y="136" on="0"/>
        <pt x="744" y="136" on="0"/>
        <pt x="870" y="278" on="0"/>
        <pt x="885" y="462" on="1"/>
      </contour>
    </TTGlyph>
    <TTGlyph name="Cacute" xMin="124" yMin="-20" xMax="1070" yMax="1877">
      <component glyphName="C" x="0" y="0" flags="0x204"/>
      <component glyphName="acute" x="366" y="343" flags="0x4"/>
    </TTGlyph>
    <TTGlyph name="Ccaron" xMin="124" yMin="-20" xMax="1070" yMax="1879">
      <component glyphName="C" x="0" y="0" flags="0x204"/>
      <component glyphName="caron" x="184" y="344" flags="0x4"/>
    </TTGlyph>
    <TTGlyph name="Ccedilla" xMin="124" yMin="-444" xMax="1070" yMax="1476">
      <component glyphName="C" x="0" y="0" flags="0x204"/>
      <component glyphName="cedilla" x="387" y="-9" flags="0x4"/>
    </TTGlyph>
    <TTGlyph name="Ccircumflex" xMin="124" yMin="-20" xMax="1070" yMax="1879">
      <component glyphName="C" x="0" y="0" flags="0x204"/>
      <component glyphName="circumflex" x="164" y="343" flags="0x4"/>
    </TTGlyph>
    <TTGlyph name="Cdotaccent" xMin="124" yMin="-20" xMax="1070" yMax="1817">
      <component glyphName="C" x="0" y="0" flags="0x204"/>
      <component glyphName="dotaccent" x="342" y="343" flags="0x4"/>
    </TTGlyph>
    <TTGlyph name="Chi" xMin="68" yMin="0" xMax="1063" yMax="1456">
      <component glyphName="X" x="0" y="0" flags="0x204"/>
    </TTGlyph>
    <TTGlyph name="D" xMin="157" yMin="0" xMax="1041" yMax="1456">
      <contour>
        <pt x="157" y="0" on="1"/>
        <pt x="157" y="1456" on="1"/>
        <pt x="504" y="1456" on="1"/>
        <pt x="759" y="1456" on="0"/>
        <pt x="1041" y="1137" on="0"/>
        <pt x="1041" y="848" on="1"/>
        <pt x="1041" y="604" on="1"/>
        <pt x="1041" y="315" on="0"/>
        <pt x="755" y="0" on="0"/>
        <pt x="483" y="0" on="1"/>
      </contour>
      <contour>
        <pt x="340" y="1298" on="1"/>
        <pt x="340" y="157" on="1"/>
        <pt x="487" y="157" on="1"/>
        <pt x="680" y="157" on="0"/>
        <pt x="858" y="378" on="0"/>
        <pt x="860" y="595" on="1"/>
        <pt x="860" y="853" on="1"/>
        <pt x="860" y="1083" on="0"/>
        <pt x="683" y="1298" on="0"/>
        <pt x="504" y="1298" on="1"/>
      </contour>
    </TTGlyph>
    <TTGlyph name="Dcaron" xMin="157" yMin="0" xMax="1041" yMax="1858">
      <component glyphName="D" x="0" y="0" flags="0x204"/>
      <component glyphName="caron" x="127" y="323" flags="0x4"/>
    </TTGlyph>
    <TTGlyph name="Dcroat" xMin="18" yMin="0" xMax="1071" yMax="1456">
      <contour>
        <pt x="187" y="0" on="1"/>
        <pt x="187" y="666" on="1"/>
        <pt x="18" y="666" on="1"/>
        <pt x="18" y="817" on="1"/>
        <pt x="187" y="817" on="1"/>
        <pt x="187" y="1456" on="1"/>
        <pt x="534" y="1456" on="1"/>
        <pt x="789" y="1456" on="0"/>
        <pt x="1071" y="1137" on="0"/>
        <pt x="1071" y="848" on="1"/>
        <pt x="1071" y="604" on="1"/>
        <pt x="1071" y="315" on="0"/>
        <pt x="785" y="0" on="0"/>
        <pt x="513" y="0" on="1"/>
      </contour>
      <contour>
        <pt x="560" y="666" on="1"/>
        <pt x="370" y="666" on="1"/>
        <pt x="370" y="157" on="1"/>
        <pt x="517" y="157" on="1"/>
        <pt x="710" y="157" on="0"/>
        <pt x="888" y="378" on="0"/>
        <pt x="890" y="595" on="1"/>
        <pt x="890" y="853" on="1"/>
        <pt x="890" y="1083" on="0"/>
        <pt x="713" y="1298" on="0"/>
        <pt x="534" y="1298" on="1"/>
        <pt x="370" y="1298" on="1"/>
        <pt x="370" y="817" on="1"/>
        <pt x="560" y="817" on="1"/>
      </contour>
    </TTGlyph>
    <TTGlyph name="E" xMin="157" yMin="0" xMax="940" yMax="1456">
      <contour>
        <pt x="855" y="673" on="1"/>
        <pt x="340" y="673" on="1"/>
        <pt x="340" y="157" on="1"/>
        <pt x="940" y="157" on="1"/>
        <pt x="940" y="0" on="1"/>
        <pt x="157" y="0" on="1"/>
        <pt x="157" y="1456" on="1"/>
        <pt x="930" y="1456" on="1"/>
        <pt x="930" y="1298" on="1"/>
        <pt x="340" y="1298" on="1"/>
        <pt x="340" y="830" on="1"/>
        <pt x="855" y="830" on="1"/>
      </contour>
    </TTGlyph>
    <TTGlyph name="Eacute" xMin="157" yMin="0" xMax="940" yMax="1856">
      <component glyphName="E" x="0" y="0" flags="0x204"/>
      <component glyphName="acute" x="315" y="322" flags="0x4"/>
    </TTGlyph>
    <TTGlyph name="Ebreve" xMin="157" yMin="0" xMax="940" yMax="1818">
      <component glyphName="E" x="0" y="0" flags="0x204"/>
      <component glyphName="breve" x="112" y="323" flags="0x4"/>
    </TTGlyph>
    <TTGlyph name="Ecaron" xMin="157" yMin="0" xMax="940" yMax="1858">
      <component glyphName="E" x="0" y="0" flags="0x204"/>
      <component glyphName="caron" x="133" y="323" flags="0x4"/>
    </TTGlyph>
    <TTGlyph name="Ecircumflex" xMin="157" yMin="0" xMax="940" yMax="1858">
      <component glyphName="E" x="0" y="0" flags="0x204"/>
      <component glyphName="circumflex" x="113" y="322" flags="0x4"/>
    </TTGlyph>
    <TTGlyph name="Edieresis" xMin="157" yMin="0" xMax="940" yMax="1799">
      <component glyphName="E" x="0" y="0" flags="0x204"/>
      <component glyphName="dieresis" x="117" y="322" flags="0x4"/>
    </TTGlyph>
    <TTGlyph name="Edotaccent" xMin="157" yMin="0" xMax="940" yMax="1796">
      <component glyphName="E" x="0" y="0" flags="0x204"/>
      <component glyphName="dotaccent" x="291" y="322" flags="0x4"/>
    </TTGlyph>
    <TTGlyph name="Egrave" xMin="157" yMin="0" xMax="940" yMax="1856">
      <component glyphName="E" x="0" y="0" flags="0x204"/>
      <component glyphName="grave" x="172" y="322" flags="0x4"/>
    </TTGlyph>
    <TTGlyph name="Emacron" xMin="157" yMin="0" xMax="940" yMax="1786">
      <component glyphName="E" x="0" y="0" flags="0x204"/>
      <component glyphName="macron" x="113" y="330" flags="0x4"/>
    </TTGlyph>
    <TTGlyph name="Eng" xMin="150" yMin="-437" xMax="1085" yMax="1456">
      <contour>
        <pt x="1085" y="1456" on="1"/>
        <pt x="1085" y="-84" on="1"/>
        <pt x="1085" y="-256" on="0"/>
        <pt x="936" y="-437" on="0"/>
        <pt x="804" y="-437" on="1"/>
        <pt x="752" y="-437" on="0"/>
        <pt x="707" y="-419" on="1"/>
        <pt x="718" y="-265" on="1"/>
        <pt x="751" y="-279" on="0"/>
        <pt x="801" y="-279" on="1"/>
        <pt x="900" y="-279" on="0"/>
        <pt x="900" y="-70" on="1"/>
        <pt x="900" y="0" on="1"/>
        <pt x="333" y="1095" on="1"/>
        <pt x="333" y="0" on="1"/>
        <pt x="150" y="0" on="1"/>
        <pt x="150" y="1456" on="1"/>
        <pt x="333" y="1456" on="1"/>
        <pt x="900" y="362" on="1"/>
        <pt x="900" y="1456" on="1"/>
      </contour>
    </TTGlyph>
    <TTGlyph name="Eogonek" xMin="157" yMin="-433" xMax="940" yMax="1456">
      <contour>
        <pt x="855" y="673" on="1"/>
        <pt x="340" y="673" on="1"/>
        <pt x="340" y="157" on="1"/>
        <pt x="940" y="157" on="1"/>
        <pt x="940" y="0" on="1"/>
        <pt x="877" y="0" on="1"/>
        <pt x="798" y="-70" on="0"/>
        <pt x="736" y="-173" on="0"/>
        <pt x="736" y="-222" on="1"/>
        <pt x="736" y="-294" on="0"/>
        <pt x="799" y="-294" on="1"/>
        <pt x="837" y="-294" on="0"/>
        <pt x="882" y="-268" on="1"/>
        <pt x="892" y="-389" on="1"/>
        <pt x="830" y="-433" on="0"/>
        <pt x="752" y="-433" on="1"/>
        <pt x="675" y="-433" on="0"/>
        <pt x="584" y="-330" on="0"/>
        <pt x="584" y="-243" on="1"/>
        <pt x="584" y="-100" on="0"/>
        <pt x="717" y="0" on="1"/>
        <pt x="157" y="0" on="1"/>
        <pt x="157" y="1456" on="1"/>
        <pt x="930" y="1456" on="1"/>
        <pt x="930" y="1298" on="1"/>
        <pt x="340" y="1298" on="1"/>
        <pt x="340" y="830" on="1"/>
        <pt x="855" y="830" on="1"/>
      </contour>
    </TTGlyph>
    <TTGlyph name="Epsilon" xMin="157" yMin="0" xMax="940" yMax="1456">
      <component glyphName="E" x="0" y="0" flags="0x204"/>
    </TTGlyph>
    <TTGlyph name="Epsilontonos" xMin="-101" yMin="0" xMax="1040" yMax="1599">
      <component glyphName="E" x="100" y="0" flags="0x4"/>
      <component glyphName="tonos" x="-284" y="0" flags="0x4"/>
    </TTGlyph>
    <TTGlyph name="Eta" xMin="157" yMin="0" xMax="1110" yMax="1456">
      <component glyphName="H" x="0" y="0" flags="0x204"/>
    </TTGlyph>
    <TTGlyph name="Etatonos" xMin="-89" yMin="0" xMax="1210" yMax="1601">
      <component glyphName="H" x="100" y="0" flags="0x4"/>
      <component glyphName="tonos" x="-272" y="2" flags="0x4"/>
    </TTGlyph>
    <TTGlyph name="Eth" xMin="18" yMin="0" xMax="1071" yMax="1456">
      <contour>
        <pt x="187" y="0" on="1"/>
        <pt x="187" y="666" on="1"/>
        <pt x="18" y="666" on="1"/>
        <pt x="18" y="817" on="1"/>
        <pt x="187" y="817" on="1"/>
        <pt x="187" y="1456" on="1"/>
        <pt x="534" y="1456" on="1"/>
        <pt x="789" y="1456" on="0"/>
        <pt x="1071" y="1137" on="0"/>
        <pt x="1071" y="848" on="1"/>
        <pt x="1071" y="604" on="1"/>
        <pt x="1071" y="315" on="0"/>
        <pt x="785" y="0" on="0"/>
        <pt x="513" y="0" on="1"/>
      </contour>
      <contour>
        <pt x="560" y="666" on="1"/>
        <pt x="370" y="666" on="1"/>
        <pt x="370" y="157" on="1"/>
        <pt x="517" y="157" on="1"/>
        <pt x="710" y="157" on="0"/>
        <pt x="888" y="378" on="0"/>
        <pt x="890" y="595" on="1"/>
        <pt x="890" y="853" on="1"/>
        <pt x="890" y="1083" on="0"/>
        <pt x="713" y="1298" on="0"/>
        <pt x="534" y="1298" on="1"/>
        <pt x="370" y="1298" on="1"/>
        <pt x="370" y="817" on="1"/>
        <pt x="560" y="817" on="1"/>
      </contour>
    </TTGlyph>
    <TTGlyph name="Euro" xMin="103" yMin="-20" xMax="907" yMax="1476">
      <contour>
        <pt x="743" y="541" on="1"/>
        <pt x="432" y="541" on="1"/>
        <pt x="434" y="349" on="0"/>
        <pt x="574" y="136" on="0"/>
        <pt x="704" y="136" on="1"/>
        <pt x="803" y="136" on="0"/>
        <pt x="887" y="170" on="1"/>
        <pt x="907" y="10" on="1"/>
        <pt x="804" y="-20" on="0"/>
        <pt x="702" y="-20" on="1"/>
        <pt x="494" y="-20" on="0"/>
        <pt x="253" y="274" on="0"/>
        <pt x="249" y="541" on="1"/>
        <pt x="103" y="541" on="1"/>
        <pt x="103" y="665" on="1"/>
        <pt x="249" y="665" on="1"/>
        <pt x="249" y="802" on="1"/>
        <pt x="103" y="802" on="1"/>
        <pt x="103" y="927" on="1"/>
        <pt x="249" y="927" on="1"/>
        <pt x="257" y="1184" on="0"/>
        <pt x="494" y="1476" on="0"/>
        <pt x="701" y="1476" on="1"/>
        <pt x="792" y="1476" on="0"/>
        <pt x="907" y="1445" on="1"/>
        <pt x="887" y="1283" on="1"/>
        <pt x="795" y="1318" on="0"/>
        <pt x="703" y="1318" on="1"/>
        <pt x="582" y="1318" on="0"/>
        <pt x="438" y="1126" on="0"/>
        <pt x="432" y="927" on="1"/>
        <pt x="743" y="927" on="1"/>
        <pt x="743" y="802" on="1"/>
        <pt x="432" y="802" on="1"/>
        <pt x="432" y="665" on="1"/>
        <pt x="743" y="665" on="1"/>
      </contour>
    </TTGlyph>
    <TTGlyph name="F" xMin="157" yMin="0" xMax="915" yMax="1456">
      <contour>
        <pt x="832" y="643" on="1"/>
        <pt x="340" y="643" on="1"/>
        <pt x="340" y="0" on="1"/>
        <pt x="157" y="0" on="1"/>
        <pt x="157" y="1456" on="1"/>
        <pt x="915" y="1456" on="1"/>
        <pt x="915" y="1298" on="1"/>
        <pt x="340" y="1298" on="1"/>
        <pt x="340" y="800" on="1"/>
        <pt x="832" y="800" on="1"/>
      </contour>
    </TTGlyph>
    <TTGlyph name="G" xMin="124" yMin="-20" xMax="1068" yMax="1476">
      <contour>
        <pt x="1068" y="181" on="1"/>
        <pt x="1036" y="141" on="1"/>
        <pt x="898" y="-20" on="0"/>
        <pt x="632" y="-20" on="1"/>
        <pt x="396" y="-20" on="0"/>
        <pt x="127" y="293" on="0"/>
        <pt x="124" y="579" on="1"/>
        <pt x="124" y="865" on="1"/>
        <pt x="124" y="1171" on="0"/>
        <pt x="369" y="1476" on="0"/>
        <pt x="613" y="1476" on="1"/>
        <pt x="821" y="1476" on="0"/>
        <pt x="1056" y="1244" on="0"/>
        <pt x="1068" y="1029" on="1"/>
        <pt x="885" y="1029" on="1"/>
        <pt x="874" y="1165" on="0"/>
        <pt x="745" y="1318" on="0"/>
        <pt x="614" y="1318" on="1"/>
        <pt x="457" y="1318" on="0"/>
        <pt x="311" y="1113" on="0"/>
        <pt x="308" y="888" on="1"/>
        <pt x="308" y="591" on="1"/>
        <pt x="308" y="371" on="0"/>
        <pt x="476" y="136" on="0"/>
        <pt x="633" y="136" on="1"/>
        <pt x="781" y="136" on="0"/>
        <pt x="858" y="208" on="1"/>
        <pt x="885" y="233" on="1"/>
        <pt x="885" y="569" on="1"/>
        <pt x="619" y="569" on="1"/>
        <pt x="619" y="725" on="1"/>
        <pt x="1068" y="725" on="1"/>
      </contour>
    </TTGlyph>
    <TTGlyph name="Gamma" xMin="166" yMin="0" xMax="923" yMax="1456">
      <contour>
        <pt x="923" y="1298" on="1"/>
        <pt x="350" y="1298" on="1"/>
        <pt x="350" y="0" on="1"/>
        <pt x="166" y="0" on="1"/>
        <pt x="166" y="1456" on="1"/>
        <pt x="923" y="1456" on="1"/>
      </contour>
    </TTGlyph>
    <TTGlyph name="Gbreve" xMin="124" yMin="-20" xMax="1068" yMax="1839">
      <component glyphName="G" x="0" y="0" flags="0x204"/>
      <component glyphName="breve" x="151" y="344" flags="0x4"/>
    </TTGlyph>
    <TTGlyph name="Gcircumflex" xMin="124" yMin="-20" xMax="1068" yMax="1879">
      <component glyphName="G" x="0" y="0" flags="0x204"/>
      <component glyphName="circumflex" x="152" y="343" flags="0x4"/>
    </TTGlyph>
    <TTGlyph name="Gdotaccent" xMin="124" yMin="-20" xMax="1068" yMax="1817">
      <component glyphName="G" x="0" y="0" flags="0x204"/>
      <component glyphName="dotaccent" x="330" y="343" flags="0x4"/>
    </TTGlyph>
    <TTGlyph name="H" xMin="157" yMin="0" xMax="1110" yMax="1456">
      <contour>
        <pt x="1110" y="0" on="1"/>
        <pt x="926" y="0" on="1"/>
        <pt x="926" y="673" on="1"/>
        <pt x="340" y="673" on="1"/>
        <pt x="340" y="0" on="1"/>
        <pt x="157" y="0" on="1"/>
        <pt x="157" y="1456" on="1"/>
        <pt x="340" y="1456" on="1"/>
        <pt x="340" y="830" on="1"/>
        <pt x="926" y="830" on="1"/>
        <pt x="926" y="1456" on="1"/>
        <pt x="1110" y="1456" on="1"/>
      </contour>
    </TTGlyph>
    <TTGlyph name="Hbar" xMin="46" yMin="0" xMax="1220" yMax="1456">
      <contour>
        <pt x="1110" y="1166" on="1"/>
        <pt x="1220" y="1166" on="1"/>
        <pt x="1220" y="1024" on="1"/>
        <pt x="1110" y="1024" on="1"/>
        <pt x="1110" y="0" on="1"/>
        <pt x="926" y="0" on="1"/>
        <pt x="926" y="673" on="1"/>
        <pt x="342" y="673" on="1"/>
        <pt x="342" y="0" on="1"/>
        <pt x="158" y="0" on="1"/>
        <pt x="158" y="1024" on="1"/>
        <pt x="46" y="1024" on="1"/>
        <pt x="46" y="1166" on="1"/>
        <pt x="158" y="1166" on="1"/>
        <pt x="158" y="1456" on="1"/>
        <pt x="342" y="1456" on="1"/>
        <pt x="342" y="1166" on="1"/>
        <pt x="926" y="1166" on="1"/>
        <pt x="926" y="1456" on="1"/>
        <pt x="1110" y="1456" on="1"/>
      </contour>
      <contour>
        <pt x="342" y="830" on="1"/>
        <pt x="926" y="830" on="1"/>
        <pt x="926" y="1024" on="1"/>
        <pt x="342" y="1024" on="1"/>
      </contour>
    </TTGlyph>
    <TTGlyph name="Hcircumflex" xMin="157" yMin="0" xMax="1110" yMax="1858">
      <component glyphName="H" x="0" y="0" flags="0x204"/>
      <component glyphName="circumflex" x="190" y="322" flags="0x4"/>
    </TTGlyph>
    <TTGlyph name="I" xMin="165" yMin="0" xMax="348" yMax="1456">
      <contour>
        <pt x="348" y="0" on="1"/>
        <pt x="165" y="0" on="1"/>
        <pt x="165" y="1456" on="1"/>
        <pt x="348" y="1456" on="1"/>
      </contour>
    </TTGlyph>
    <TTGlyph name="IJ" xMin="165" yMin="-20" xMax="1355" yMax="1456">
      <component glyphName="I" x="0" y="0" flags="0x4"/>
      <component glyphName="J" x="512" y="0" flags="0x4"/>
    </TTGlyph>
    <TTGlyph name="Iacute" xMin="153" yMin="0" xMax="570" yMax="1856">
      <component glyphName="I" x="0" y="0" flags="0x204"/>
      <component glyphName="acute" x="30" y="322" flags="0x4"/>
    </TTGlyph>
    <TTGlyph name="Ibreve" xMin="-43" yMin="0" xMax="556" yMax="1818">
      <component glyphName="I" x="0" y="0" flags="0x204"/>
      <component glyphName="breve" x="-172" y="323" flags="0x4"/>
    </TTGlyph>
    <TTGlyph name="Icircumflex" xMin="-6" yMin="0" xMax="518" yMax="1858">
      <component glyphName="I" x="0" y="0" flags="0x204"/>
      <component glyphName="circumflex" x="-171" y="322" flags="0x4"/>
    </TTGlyph>
    <TTGlyph name="Idieresis" xMin="-65" yMin="0" xMax="584" yMax="1799">
      <component glyphName="I" x="0" y="0" flags="0x204"/>
      <component glyphName="dieresis" x="-167" y="322" flags="0x4"/>
    </TTGlyph>
    <TTGlyph name="Idotaccent" xMin="147" yMin="0" xMax="366" yMax="1796">
      <component glyphName="I" x="0" y="0" flags="0x204"/>
      <component glyphName="dotaccent" x="6" y="322" flags="0x4"/>
    </TTGlyph>
    <TTGlyph name="Igrave" xMin="-55" yMin="0" xMax="362" yMax="1856">
      <component glyphName="I" x="0" y="0" flags="0x204"/>
      <component glyphName="grave" x="-112" y="322" flags="0x4"/>
    </TTGlyph>
    <TTGlyph name="Imacron" xMin="-46" yMin="0" xMax="568" yMax="1786">
      <component glyphName="I" x="0" y="0" flags="0x204"/>
      <component glyphName="macron" x="-171" y="330" flags="0x4"/>
    </TTGlyph>
    <TTGlyph name="Iogonek" xMin="36" yMin="-424" xMax="348" yMax="1456">
      <component glyphName="I" x="0" y="0" flags="0x204"/>
      <component glyphName="ogonek" x="-23" y="9" flags="0x4"/>
    </TTGlyph>
    <TTGlyph name="Iota" xMin="165" yMin="0" xMax="348" yMax="1456">
      <component glyphName="I" x="0" y="0" flags="0x204"/>
    </TTGlyph>
    <TTGlyph name="Iotadieresis" xMin="-65" yMin="0" xMax="584" yMax="1799">
      <component glyphName="I" x="0" y="0" flags="0x204"/>
      <component glyphName="dieresis" x="-167" y="322" flags="0x4"/>
    </TTGlyph>
    <TTGlyph name="Iotatonos" xMin="-87" yMin="0" xMax="448" yMax="1600">
      <component glyphName="I" x="100" y="0" flags="0x4"/>
      <component glyphName="tonos" x="-270" y="1" flags="0x4"/>
    </TTGlyph>
    <TTGlyph name="Itilde" xMin="-46" yMin="0" xMax="558" yMax="1838">
      <component glyphName="I" x="0" y="0" flags="0x204"/>
      <component glyphName="tilde" x="-175" y="326" flags="0x4"/>
    </TTGlyph>
    <TTGlyph name="J" xMin="59" yMin="-20" xMax="843" yMax="1456">
      <contour>
        <pt x="659" y="1456" on="1"/>
        <pt x="843" y="1456" on="1"/>
        <pt x="843" y="425" on="1"/>
        <pt x="843" y="216" on="0"/>
        <pt x="630" y="-20" on="0"/>
        <pt x="450" y="-20" on="1"/>
        <pt x="265" y="-20" on="0"/>
        <pt x="59" y="204" on="0"/>
        <pt x="59" y="402" on="1"/>
        <pt x="242" y="402" on="1"/>
        <pt x="242" y="277" on="0"/>
        <pt x="352" y="137" on="0"/>
        <pt x="450" y="137" on="1"/>
        <pt x="545" y="137" on="0"/>
        <pt x="659" y="289" on="0"/>
        <pt x="659" y="426" on="1"/>
      </contour>
    </TTGlyph>
    <TTGlyph name="Jcircumflex" xMin="59" yMin="-20" xMax="989" yMax="1845">
      <component glyphName="J" x="0" y="0" flags="0x204"/>
      <component glyphName="circumflex" x="300" y="309" flags="0x4"/>
    </TTGlyph>
    <TTGlyph name="K" xMin="157" yMin="0" xMax="1109" yMax="1456">
      <contour>
        <pt x="483" y="671" on="1"/>
        <pt x="340" y="498" on="1"/>
        <pt x="340" y="0" on="1"/>
        <pt x="157" y="0" on="1"/>
        <pt x="157" y="1456" on="1"/>
        <pt x="340" y="1456" on="1"/>
        <pt x="340" y="753" on="1"/>
        <pt x="460" y="912" on="1"/>
        <pt x="852" y="1456" on="1"/>
        <pt x="1072" y="1456" on="1"/>
        <pt x="599" y="815" on="1"/>
        <pt x="1109" y="0" on="1"/>
        <pt x="890" y="0" on="1"/>
      </contour>
    </TTGlyph>
    <TTGlyph name="Kappa" xMin="157" yMin="0" xMax="1109" yMax="1456">
      <component glyphName="K" x="0" y="0" flags="0x204"/>
    </TTGlyph>
    <TTGlyph name="L" xMin="157" yMin="0" xMax="912" yMax="1456">
      <contour>
        <pt x="341" y="157" on="1"/>
        <pt x="912" y="157" on="1"/>
        <pt x="912" y="0" on="1"/>
        <pt x="157" y="0" on="1"/>
        <pt x="157" y="1456" on="1"/>
        <pt x="341" y="1456" on="1"/>
      </contour>
    </TTGlyph>
    <TTGlyph name="Lacute" xMin="144" yMin="0" xMax="912" yMax="1839">
      <component glyphName="L" x="0" y="0" flags="0x204"/>
      <component glyphName="acute" x="21" y="305" flags="0x4"/>
    </TTGlyph>
    <TTGlyph name="Lambda" xMin="56" yMin="0" xMax="1108" yMax="1456">
      <contour>
        <pt x="581" y="1135" on="1"/>
        <pt x="253" y="0" on="1"/>
        <pt x="56" y="0" on="1"/>
        <pt x="501" y="1456" on="1"/>
        <pt x="662" y="1456" on="1"/>
        <pt x="1108" y="0" on="1"/>
        <pt x="910" y="0" on="1"/>
      </contour>
    </TTGlyph>
    <TTGlyph name="Lcaron" xMin="157" yMin="0" xMax="912" yMax="1457">
      <component glyphName="L" x="0" y="0" flags="0x204"/>
      <component glyphName="uniF6C3" x="407" y="1218" flags="0x4"/>
    </TTGlyph>
    <TTGlyph name="Ldot" xMin="157" yMin="0" xMax="912" yMax="1456">
      <component glyphName="L" x="0" y="0" flags="0x204"/>
      <component glyphName="dotaccent" x="368" y="-571" flags="0x4"/>
    </TTGlyph>
    <TTGlyph name="Lslash" xMin="53" yMin="0" xMax="912" yMax="1456">
      <contour>
        <pt x="341" y="849" on="1"/>
        <pt x="548" y="927" on="1"/>
        <pt x="548" y="802" on="1"/>
        <pt x="341" y="724" on="1"/>
        <pt x="341" y="157" on="1"/>
        <pt x="912" y="157" on="1"/>
        <pt x="912" y="0" on="1"/>
        <pt x="157" y="0" on="1"/>
        <pt x="157" y="654" on="1"/>
        <pt x="53" y="615" on="1"/>
        <pt x="53" y="740" on="1"/>
        <pt x="157" y="779" on="1"/>
        <pt x="157" y="1456" on="1"/>
        <pt x="341" y="1456" on="1"/>
      </contour>
    </TTGlyph>
    <TTGlyph name="M" xMin="157" yMin="0" xMax="1389" yMax="1456">
      <contour>
        <pt x="393" y="1456" on="1"/>
        <pt x="773" y="268" on="1"/>
        <pt x="1153" y="1456" on="1"/>
        <pt x="1389" y="1456" on="1"/>
        <pt x="1389" y="0" on="1"/>
        <pt x="1206" y="0" on="1"/>
        <pt x="1206" y="567" on="1"/>
        <pt x="1223" y="1135" on="1"/>
        <pt x="842" y="0" on="1"/>
        <pt x="702" y="0" on="1"/>
        <pt x="323" y="1131" on="1"/>
        <pt x="340" y="567" on="1"/>
        <pt x="340" y="0" on="1"/>
        <pt x="157" y="0" on="1"/>
        <pt x="157" y="1456" on="1"/>
      </contour>
    </TTGlyph>
    <TTGlyph name="Mu" xMin="157" yMin="0" xMax="1389" yMax="1456">
      <component glyphName="M" x="0" y="0" flags="0x204"/>
    </TTGlyph>
    <TTGlyph name="N" xMin="157" yMin="0" xMax="1108" yMax="1456">
      <contour>
        <pt x="1108" y="0" on="1"/>
        <pt x="924" y="0" on="1"/>
        <pt x="341" y="1122" on="1"/>
        <pt x="341" y="0" on="1"/>
        <pt x="157" y="0" on="1"/>
        <pt x="157" y="1456" on="1"/>
        <pt x="341" y="1456" on="1"/>
        <pt x="926" y="329" on="1"/>
        <pt x="926" y="1456" on="1"/>
        <pt x="1108" y="1456" on="1"/>
      </contour>
    </TTGlyph>
    <TTGlyph name="Nacute" xMin="157" yMin="0" xMax="1108" yMax="1844">
      <component glyphName="N" x="0" y="0" flags="0x204"/>
      <component glyphName="acute" x="405" y="310" flags="0x4"/>
    </TTGlyph>
    <TTGlyph name="Ncaron" xMin="157" yMin="0" xMax="1108" yMax="1846">
      <component glyphName="N" x="0" y="0" flags="0x204"/>
      <component glyphName="caron" x="223" y="311" flags="0x4"/>
    </TTGlyph>
    <TTGlyph name="Ntilde" xMin="157" yMin="0" xMax="1108" yMax="1826">
      <component glyphName="N" x="0" y="0" flags="0x204"/>
      <component glyphName="tilde" x="199" y="314" flags="0x4"/>
    </TTGlyph>
    <TTGlyph name="Nu" xMin="157" yMin="0" xMax="1108" yMax="1456">
      <component glyphName="N" x="0" y="0" flags="0x204"/>
    </TTGlyph>
    <TTGlyph name="O" xMin="125" yMin="-20" xMax="1104" yMax="1476">
      <contour>
        <pt x="1104" y="600" on="1"/>
        <pt x="1104" y="302" on="0"/>
        <pt x="850" y="-20" on="0"/>
        <pt x="616" y="-20" on="1"/>
        <pt x="391" y="-20" on="0"/>
        <pt x="130" y="293" on="0"/>
        <pt x="125" y="579" on="1"/>
        <pt x="125" y="853" on="1"/>
        <pt x="125" y="1145" on="0"/>
        <pt x="383" y="1476" on="0"/>
        <pt x="614" y="1476" on="1"/>
        <pt x="844" y="1476" on="0"/>
        <pt x="1101" y="1159" on="0"/>
        <pt x="1104" y="865" on="1"/>
      </contour>
      <contour>
        <pt x="921" y="855" on="1"/>
        <pt x="921" y="1086" on="0"/>
        <pt x="770" y="1311" on="0"/>
        <pt x="614" y="1311" on="1"/>
        <pt x="463" y="1311" on="0"/>
        <pt x="308" y="1083" on="0"/>
        <pt x="307" y="861" on="1"/>
        <pt x="307" y="600" on="1"/>
        <pt x="307" y="377" on="0"/>
        <pt x="462" y="143" on="0"/>
        <pt x="770" y="143" on="0"/>
        <pt x="918" y="359" on="0"/>
        <pt x="921" y="582" on="1"/>
      </contour>
    </TTGlyph>
    <TTGlyph name="OE" xMin="106" yMin="-21" xMax="1533" yMax="1476">
      <contour>
        <pt x="1533" y="0" on="1"/>
        <pt x="819" y="0" on="1"/>
        <pt x="672" y="-21" on="0"/>
        <pt x="580" y="-21" on="1"/>
        <pt x="442" y="-21" on="0"/>
        <pt x="225" y="130" on="0"/>
        <pt x="106" y="403" on="0"/>
        <pt x="106" y="576" on="1"/>
        <pt x="106" y="880" on="1"/>
        <pt x="106" y="1052" on="0"/>
        <pt x="222" y="1323" on="0"/>
        <pt x="440" y="1476" on="0"/>
        <pt x="578" y="1476" on="1"/>
        <pt x="679" y="1476" on="0"/>
        <pt x="819" y="1456" on="1"/>
        <pt x="1523" y="1456" on="1"/>
        <pt x="1523" y="1298" on="1"/>
        <pt x="933" y="1298" on="1"/>
        <pt x="933" y="830" on="1"/>
        <pt x="1447" y="830" on="1"/>
        <pt x="1447" y="673" on="1"/>
        <pt x="933" y="673" on="1"/>
        <pt x="933" y="157" on="1"/>
        <pt x="1533" y="157" on="1"/>
      </contour>
      <contour>
        <pt x="580" y="130" on="1"/>
        <pt x="663" y="130" on="0"/>
        <pt x="750" y="143" on="1"/>
        <pt x="750" y="1311" on="1"/>
        <pt x="668" y="1325" on="0"/>
        <pt x="578" y="1325" on="1"/>
        <pt x="439" y="1325" on="0"/>
        <pt x="283" y="1094" on="0"/>
        <pt x="283" y="880" on="1"/>
        <pt x="283" y="576" on="1"/>
        <pt x="283" y="367" on="0"/>
        <pt x="438" y="130" on="0"/>
      </contour>
    </TTGlyph>
    <TTGlyph name="Oacute" xMin="125" yMin="-20" xMax="1104" yMax="1846">
      <component glyphName="O" x="0" y="0" flags="0x204"/>
      <component glyphName="acute" x="393" y="312" flags="0x4"/>
    </TTGlyph>
    <TTGlyph name="Obreve" xMin="125" yMin="-20" xMax="1104" yMax="1808">
      <component glyphName="O" x="0" y="0" flags="0x204"/>
      <component glyphName="breve" x="190" y="313" flags="0x4"/>
    </TTGlyph>
    <TTGlyph name="Ocircumflex" xMin="125" yMin="-20" xMax="1104" yMax="1848">
      <component glyphName="O" x="0" y="0" flags="0x204"/>
      <component glyphName="circumflex" x="191" y="312" flags="0x4"/>
    </TTGlyph>
    <TTGlyph name="Odieresis" xMin="125" yMin="-20" xMax="1104" yMax="1789">
      <component glyphName="O" x="0" y="0" flags="0x204"/>
      <component glyphName="dieresis" x="195" y="312" flags="0x4"/>
    </TTGlyph>
    <TTGlyph name="Ograve" xMin="125" yMin="-20" xMax="1104" yMax="1846">
      <component glyphName="O" x="0" y="0" flags="0x204"/>
      <component glyphName="grave" x="250" y="312" flags="0x4"/>
    </TTGlyph>
    <TTGlyph name="Ohorn" xMin="95" yMin="-20" xMax="1224" yMax="1591">
      <contour>
        <pt x="1090" y="681" on="1"/>
        <pt x="1090" y="358" on="0"/>
        <pt x="822" y="-20" on="0"/>
        <pt x="594" y="-20" on="1"/>
        <pt x="448" y="-20" on="0"/>
        <pt x="221" y="151" on="0"/>
        <pt x="95" y="470" on="0"/>
        <pt x="95" y="678" on="1"/>
        <pt x="95" y="773" on="1"/>
        <pt x="95" y="981" on="0"/>
        <pt x="219" y="1302" on="0"/>
        <pt x="446" y="1476" on="0"/>
        <pt x="592" y="1476" on="1"/>
        <pt x="795" y="1476" on="0"/>
        <pt x="926" y="1323" on="1"/>
        <pt x="1001" y="1336" on="0"/>
        <pt x="1065" y="1475" on="0"/>
        <pt x="1065" y="1591" on="1"/>
        <pt x="1224" y="1591" on="1"/>
        <pt x="1224" y="1433" on="0"/>
        <pt x="1114" y="1234" on="0"/>
        <pt x="1005" y="1201" on="1"/>
        <pt x="1087" y="1034" on="0"/>
        <pt x="1090" y="789" on="1"/>
      </contour>
      <contour>
        <pt x="909" y="775" on="1"/>
        <pt x="909" y="1031" on="0"/>
        <pt x="744" y="1311" on="0"/>
        <pt x="592" y="1311" on="1"/>
        <pt x="444" y="1311" on="0"/>
        <pt x="277" y="1022" on="0"/>
        <pt x="277" y="773" on="1"/>
        <pt x="277" y="681" on="1"/>
        <pt x="277" y="431" on="0"/>
        <pt x="447" y="143" on="0"/>
        <pt x="594" y="143" on="1"/>
        <pt x="745" y="143" on="0"/>
        <pt x="909" y="420" on="0"/>
        <pt x="909" y="681" on="1"/>
      </contour>
    </TTGlyph>
    <TTGlyph name="Ohungarumlaut" xMin="125" yMin="-20" xMax="1104" yMax="1847">
      <component glyphName="O" x="0" y="0" flags="0x204"/>
      <component glyphName="hungarumlaut" x="308" y="312" flags="0x4"/>
    </TTGlyph>
    <TTGlyph name="Omacron" xMin="125" yMin="-20" xMax="1104" yMax="1776">
      <component glyphName="O" x="0" y="0" flags="0x204"/>
      <component glyphName="macron" x="191" y="320" flags="0x4"/>
    </TTGlyph>
    <TTGlyph name="Omegatonos" xMin="-27" yMin="0" xMax="1079" yMax="1599">
      <component glyphName="uni03A9" x="20" y="0" flags="0x4"/>
      <component glyphName="tonos" x="-210" y="0" flags="0x4"/>
    </TTGlyph>
    <TTGlyph name="Omicron" xMin="125" yMin="-20" xMax="1104" yMax="1476">
      <component glyphName="O" x="0" y="0" flags="0x204"/>
    </TTGlyph>
    <TTGlyph name="Omicrontonos" xMin="-27" yMin="-20" xMax="1124" yMax="1599">
      <component glyphName="O" x="20" y="0" flags="0x4"/>
      <component glyphName="tonos" x="-210" y="0" flags="0x4"/>
    </TTGlyph>
    <TTGlyph name="Oslash" xMin="117" yMin="-93" xMax="1131" yMax="1516">
      <contour>
        <pt x="1112" y="681" on="1"/>
        <pt x="1112" y="358" on="0"/>
        <pt x="844" y="-20" on="0"/>
        <pt x="616" y="-20" on="1"/>
        <pt x="476" y="-20" on="0"/>
        <pt x="366" y="58" on="1"/>
        <pt x="287" y="-93" on="1"/>
        <pt x="156" y="-93" on="1"/>
        <pt x="278" y="140" on="1"/>
        <pt x="117" y="333" on="0"/>
        <pt x="117" y="689" on="1"/>
        <pt x="117" y="773" on="1"/>
        <pt x="117" y="981" on="0"/>
        <pt x="239" y="1301" on="0"/>
        <pt x="466" y="1476" on="0"/>
        <pt x="614" y="1476" on="1"/>
        <pt x="793" y="1476" on="0"/>
        <pt x="916" y="1357" on="1"/>
        <pt x="1000" y="1516" on="1"/>
        <pt x="1131" y="1516" on="1"/>
        <pt x="995" y="1258" on="1"/>
        <pt x="1108" y="1077" on="0"/>
        <pt x="1112" y="792" on="1"/>
      </contour>
      <contour>
        <pt x="299" y="681" on="1"/>
        <pt x="299" y="453" on="0"/>
        <pt x="369" y="313" on="1"/>
        <pt x="832" y="1195" on="1"/>
        <pt x="750" y="1311" on="0"/>
        <pt x="614" y="1311" on="1"/>
        <pt x="466" y="1311" on="0"/>
        <pt x="299" y="1022" on="0"/>
        <pt x="299" y="773" on="1"/>
      </contour>
      <contour>
        <pt x="930" y="775" on="1"/>
        <pt x="930" y="942" on="0"/>
        <pt x="893" y="1063" on="1"/>
        <pt x="445" y="209" on="1"/>
        <pt x="517" y="143" on="0"/>
        <pt x="616" y="143" on="1"/>
        <pt x="766" y="143" on="0"/>
        <pt x="930" y="420" on="0"/>
        <pt x="930" y="681" on="1"/>
      </contour>
    </TTGlyph>
    <TTGlyph name="Oslashacute" xMin="117" yMin="-93" xMax="1131" yMax="1918">
      <component glyphName="Oslash" x="0" y="0" flags="0x204"/>
      <component glyphName="acute" x="395" y="384" flags="0x4"/>
    </TTGlyph>
    <TTGlyph name="Otilde" xMin="125" yMin="-20" xMax="1104" yMax="1828">
      <component glyphName="O" x="0" y="0" flags="0x204"/>
      <component glyphName="tilde" x="187" y="316" flags="0x4"/>
    </TTGlyph>
    <TTGlyph name="P" xMin="157" yMin="0" xMax="1056" yMax="1456">
      <contour>
        <pt x="340" y="570" on="1"/>
        <pt x="340" y="0" on="1"/>
        <pt x="157" y="0" on="1"/>
        <pt x="157" y="1456" on="1"/>
        <pt x="621" y="1456" on="1"/>
        <pt x="824" y="1456" on="0"/>
        <pt x="1056" y="1213" on="0"/>
        <pt x="1056" y="1011" on="1"/>
        <pt x="1056" y="801" on="0"/>
        <pt x="835" y="574" on="0"/>
        <pt x="634" y="570" on="1"/>
      </contour>
      <contour>
        <pt x="340" y="727" on="1"/>
        <pt x="621" y="727" on="1"/>
        <pt x="743" y="727" on="0"/>
        <pt x="873" y="873" on="0"/>
        <pt x="873" y="1009" on="1"/>
        <pt x="873" y="1140" on="0"/>
        <pt x="739" y="1298" on="0"/>
        <pt x="622" y="1298" on="1"/>
        <pt x="340" y="1298" on="1"/>
      </contour>
    </TTGlyph>
    <TTGlyph name="Phi" xMin="81" yMin="0" xMax="1198" yMax="1456">
      <contour>
        <pt x="733" y="1271" on="1"/>
        <pt x="863" y="1271" on="0"/>
        <pt x="1077" y="1131" on="0"/>
        <pt x="1198" y="879" on="0"/>
        <pt x="1198" y="724" on="1"/>
        <pt x="1198" y="568" on="0"/>
        <pt x="1076" y="315" on="0"/>
        <pt x="864" y="175" on="0"/>
        <pt x="733" y="175" on="1"/>
        <pt x="733" y="0" on="1"/>
        <pt x="548" y="0" on="1"/>
        <pt x="548" y="175" on="1"/>
        <pt x="345" y="175" on="0"/>
        <pt x="81" y="483" on="0"/>
        <pt x="81" y="722" on="1"/>
        <pt x="81" y="960" on="0"/>
        <pt x="344" y="1271" on="0"/>
        <pt x="548" y="1271" on="1"/>
        <pt x="548" y="1456" on="1"/>
        <pt x="733" y="1456" on="1"/>
      </contour>
      <contour>
        <pt x="548" y="334" on="1"/>
        <pt x="548" y="1112" on="1"/>
        <pt x="542" y="1112" on="1"/>
        <pt x="410" y="1112" on="0"/>
        <pt x="263" y="902" on="0"/>
        <pt x="263" y="722" on="1"/>
        <pt x="263" y="543" on="0"/>
        <pt x="409" y="334" on="0"/>
      </contour>
      <contour>
        <pt x="733" y="1112" on="1"/>
        <pt x="733" y="334" on="1"/>
        <pt x="737" y="334" on="1"/>
        <pt x="869" y="334" on="0"/>
        <pt x="1016" y="544" on="0"/>
        <pt x="1016" y="724" on="1"/>
        <pt x="1016" y="902" on="0"/>
        <pt x="869" y="1112" on="0"/>
      </contour>
    </TTGlyph>
    <TTGlyph name="Pi" xMin="166" yMin="0" xMax="1103" yMax="1456">
      <contour>
        <pt x="1103" y="0" on="1"/>
        <pt x="919" y="0" on="1"/>
        <pt x="919" y="1298" on="1"/>
        <pt x="349" y="1298" on="1"/>
        <pt x="349" y="0" on="1"/>
        <pt x="166" y="0" on="1"/>
        <pt x="166" y="1456" on="1"/>
        <pt x="1103" y="1456" on="1"/>
      </contour>
    </TTGlyph>
    <TTGlyph name="Psi" xMin="85" yMin="0" xMax="1129" yMax="1456">
      <contour>
        <pt x="691" y="525" on="1"/>
        <pt x="810" y="552" on="0"/>
        <pt x="944" y="762" on="0"/>
        <pt x="945" y="926" on="1"/>
        <pt x="945" y="1456" on="1"/>
        <pt x="1129" y="1456" on="1"/>
        <pt x="1129" y="927" on="1"/>
        <pt x="1129" y="771" on="0"/>
        <pt x="1020" y="525" on="0"/>
        <pt x="821" y="379" on="0"/>
        <pt x="691" y="363" on="1"/>
        <pt x="691" y="0" on="1"/>
        <pt x="507" y="0" on="1"/>
        <pt x="507" y="363" on="1"/>
        <pt x="310" y="391" on="0"/>
        <pt x="85" y="693" on="0"/>
        <pt x="85" y="929" on="1"/>
        <pt x="85" y="1456" on="1"/>
        <pt x="268" y="1456" on="1"/>
        <pt x="268" y="930" on="1"/>
        <pt x="268" y="767" on="0"/>
        <pt x="395" y="556" on="0"/>
        <pt x="507" y="527" on="1"/>
        <pt x="507" y="1456" on="1"/>
        <pt x="691" y="1456" on="1"/>
      </contour>
    </TTGlyph>
    <TTGlyph name="Q" xMin="116" yMin="-246" xMax="1115" yMax="1476">
      <contour>
        <pt x="1096" y="601" on="1"/>
        <pt x="1096" y="409" on="0"/>
        <pt x="993" y="144" on="0"/>
        <pt x="898" y="70" on="1"/>
        <pt x="1115" y="-125" on="1"/>
        <pt x="991" y="-246" on="1"/>
        <pt x="729" y="-7" on="1"/>
        <pt x="666" y="-20" on="0"/>
        <pt x="607" y="-20" on="1"/>
        <pt x="380" y="-20" on="0"/>
        <pt x="119" y="299" on="0"/>
        <pt x="116" y="588" on="1"/>
        <pt x="116" y="853" on="1"/>
        <pt x="116" y="1147" on="0"/>
        <pt x="374" y="1476" on="0"/>
        <pt x="605" y="1476" on="1"/>
        <pt x="838" y="1476" on="0"/>
        <pt x="1094" y="1155" on="0"/>
        <pt x="1096" y="861" on="1"/>
      </contour>
      <contour>
        <pt x="913" y="855" on="1"/>
        <pt x="913" y="1086" on="0"/>
        <pt x="762" y="1311" on="0"/>
        <pt x="605" y="1311" on="1"/>
        <pt x="455" y="1311" on="0"/>
        <pt x="300" y="1083" on="0"/>
        <pt x="299" y="861" on="1"/>
        <pt x="299" y="601" on="1"/>
        <pt x="299" y="377" on="0"/>
        <pt x="454" y="143" on="0"/>
        <pt x="607" y="143" on="1"/>
        <pt x="759" y="143" on="0"/>
        <pt x="909" y="355" on="0"/>
        <pt x="913" y="576" on="1"/>
      </contour>
    </TTGlyph>
    <TTGlyph name="R" xMin="157" yMin="0" xMax="1053" yMax="1456">
      <contour>
        <pt x="597" y="589" on="1"/>
        <pt x="341" y="589" on="1"/>
        <pt x="341" y="0" on="1"/>
        <pt x="157" y="0" on="1"/>
        <pt x="157" y="1456" on="1"/>
        <pt x="565" y="1456" on="1"/>
        <pt x="779" y="1456" on="0"/>
        <pt x="999" y="1233" on="0"/>
        <pt x="999" y="1018" on="1"/>
        <pt x="999" y="883" on="0"/>
        <pt x="880" y="682" on="0"/>
        <pt x="771" y="631" on="1"/>
        <pt x="1053" y="12" on="1"/>
        <pt x="1053" y="0" on="1"/>
        <pt x="856" y="0" on="1"/>
      </contour>
      <contour>
        <pt x="341" y="746" on="1"/>
        <pt x="563" y="746" on="1"/>
        <pt x="678" y="746" on="0"/>
        <pt x="815" y="894" on="0"/>
        <pt x="815" y="1018" on="1"/>
        <pt x="815" y="1298" on="0"/>
        <pt x="561" y="1298" on="1"/>
        <pt x="341" y="1298" on="1"/>
      </contour>
    </TTGlyph>
    <TTGlyph name="Racute" xMin="157" yMin="0" xMax="1053" yMax="1844">
      <component glyphName="R" x="0" y="0" flags="0x204"/>
      <component glyphName="acute" x="307" y="310" flags="0x4"/>
    </TTGlyph>
    <TTGlyph name="Rcaron" xMin="157" yMin="0" xMax="1053" yMax="1846">
      <component glyphName="R" x="0" y="0" flags="0x204"/>
      <component glyphName="caron" x="125" y="311" flags="0x4"/>
    </TTGlyph>
    <TTGlyph name="Rho" xMin="157" yMin="0" xMax="1056" yMax="1456">
      <component glyphName="P" x="0" y="0" flags="0x204"/>
    </TTGlyph>
    <TTGlyph name="S" xMin="85" yMin="-20" xMax="978" yMax="1476">
      <contour>
        <pt x="793" y="368" on="1"/>
        <pt x="793" y="477" on="0"/>
        <pt x="675" y="593" on="0"/>
        <pt x="367" y="703" on="0"/>
        <pt x="204" y="824" on="0"/>
        <pt x="123" y="979" on="0"/>
        <pt x="123" y="1079" on="1"/>
        <pt x="123" y="1252" on="0"/>
        <pt x="354" y="1476" on="0"/>
        <pt x="541" y="1476" on="1"/>
        <pt x="669" y="1476" on="0"/>
        <pt x="869" y="1361" on="0"/>
        <pt x="977" y="1157" on="0"/>
        <pt x="977" y="1035" on="1"/>
        <pt x="793" y="1035" on="1"/>
        <pt x="793" y="1170" on="0"/>
        <pt x="663" y="1318" on="0"/>
        <pt x="541" y="1318" on="1"/>
        <pt x="430" y="1318" on="0"/>
        <pt x="308" y="1194" on="0"/>
        <pt x="308" y="1082" on="1"/>
        <pt x="308" y="990" on="0"/>
        <pt x="440" y="866" on="0"/>
        <pt x="578" y="817" on="1"/>
        <pt x="793" y="746" on="0"/>
        <pt x="978" y="538" on="0"/>
        <pt x="978" y="370" on="1"/>
        <pt x="978" y="193" on="0"/>
        <pt x="748" y="-20" on="0"/>
        <pt x="550" y="-20" on="1"/>
        <pt x="423" y="-20" on="0"/>
        <pt x="208" y="91" on="0"/>
        <pt x="85" y="292" on="0"/>
        <pt x="85" y="422" on="1"/>
        <pt x="269" y="422" on="1"/>
        <pt x="269" y="287" on="0"/>
        <pt x="420" y="137" on="0"/>
        <pt x="550" y="137" on="1"/>
        <pt x="671" y="137" on="0"/>
        <pt x="793" y="261" on="0"/>
      </contour>
    </TTGlyph>
    <TTGlyph name="Sacute" xMin="85" yMin="-20" xMax="978" yMax="1846">
      <component glyphName="S" x="0" y="0" flags="0x204"/>
      <component glyphName="acute" x="316" y="312" flags="0x4"/>
    </TTGlyph>
    <TTGlyph name="Scaron" xMin="85" yMin="-20" xMax="978" yMax="1848">
      <component glyphName="S" x="0" y="0" flags="0x204"/>
      <component glyphName="caron" x="134" y="313" flags="0x4"/>
    </TTGlyph>
    <TTGlyph name="Scedilla" xMin="85" yMin="-435" xMax="978" yMax="1476">
      <component glyphName="S" x="0" y="0" flags="0x204"/>
      <component glyphName="cedilla" x="343" y="0" flags="0x4"/>
    </TTGlyph>
    <TTGlyph name="Scircumflex" xMin="85" yMin="-20" xMax="978" yMax="1848">
      <component glyphName="S" x="0" y="0" flags="0x204"/>
      <component glyphName="circumflex" x="114" y="312" flags="0x4"/>
    </TTGlyph>
    <TTGlyph name="Sigma" xMin="80" yMin="0" xMax="944" yMax="1456">
      <contour>
        <pt x="669" y="718" on="1"/>
        <pt x="294" y="157" on="1"/>
        <pt x="944" y="157" on="1"/>
        <pt x="944" y="0" on="1"/>
        <pt x="80" y="0" on="1"/>
        <pt x="80" y="143" on="1"/>
        <pt x="473" y="729" on="1"/>
        <pt x="80" y="1312" on="1"/>
        <pt x="80" y="1456" on="1"/>
        <pt x="905" y="1456" on="1"/>
        <pt x="905" y="1298" on="1"/>
        <pt x="296" y="1298" on="1"/>
        <pt x="669" y="742" on="1"/>
      </contour>
    </TTGlyph>
    <TTGlyph name="T" xMin="60" yMin="0" xMax="1008" yMax="1456">
      <contour>
        <pt x="1008" y="1298" on="1"/>
        <pt x="625" y="1298" on="1"/>
        <pt x="625" y="0" on="1"/>
        <pt x="442" y="0" on="1"/>
        <pt x="442" y="1298" on="1"/>
        <pt x="60" y="1298" on="1"/>
        <pt x="60" y="1456" on="1"/>
        <pt x="1008" y="1456" on="1"/>
      </contour>
    </TTGlyph>
    <TTGlyph name="Tau" xMin="60" yMin="0" xMax="1008" yMax="1456">
      <component glyphName="T" x="0" y="0" flags="0x204"/>
    </TTGlyph>
    <TTGlyph name="Tbar" xMin="60" yMin="0" xMax="1008" yMax="1456">
      <contour>
        <pt x="816" y="823" on="1"/>
        <pt x="625" y="823" on="1"/>
        <pt x="625" y="0" on="1"/>
        <pt x="442" y="0" on="1"/>
        <pt x="442" y="823" on="1"/>
        <pt x="274" y="823" on="1"/>
        <pt x="274" y="974" on="1"/>
        <pt x="442" y="974" on="1"/>
        <pt x="442" y="1298" on="1"/>
        <pt x="60" y="1298" on="1"/>
        <pt x="60" y="1456" on="1"/>
        <pt x="1008" y="1456" on="1"/>
        <pt x="1008" y="1298" on="1"/>
        <pt x="625" y="1298" on="1"/>
        <pt x="625" y="974" on="1"/>
        <pt x="816" y="974" on="1"/>
      </contour>
    </TTGlyph>
    <TTGlyph name="Tcaron" xMin="60" yMin="0" xMax="1008" yMax="1846">
      <component glyphName="T" x="0" y="0" flags="0x204"/>
      <component glyphName="caron" x="127" y="311" flags="0x4"/>
    </TTGlyph>
    <TTGlyph name="Theta" xMin="102" yMin="-20" xMax="1097" yMax="1476">
      <contour>
        <pt x="825" y="659" on="1"/>
        <pt x="402" y="659" on="1"/>
        <pt x="402" y="811" on="1"/>
        <pt x="825" y="811" on="1"/>
      </contour>
      <contour>
        <pt x="1097" y="681" on="1"/>
        <pt x="1097" y="467" on="0"/>
        <pt x="973" y="146" on="0"/>
        <pt x="749" y="-20" on="0"/>
        <pt x="601" y="-20" on="1"/>
        <pt x="455" y="-20" on="0"/>
        <pt x="230" y="148" on="0"/>
        <pt x="103" y="465" on="0"/>
        <pt x="102" y="672" on="1"/>
        <pt x="102" y="773" on="1"/>
        <pt x="102" y="981" on="0"/>
        <pt x="224" y="1301" on="0"/>
        <pt x="451" y="1476" on="0"/>
        <pt x="747" y="1476" on="0"/>
        <pt x="973" y="1307" on="0"/>
        <pt x="1096" y="991" on="0"/>
        <pt x="1097" y="781" on="1"/>
      </contour>
      <contour>
        <pt x="915" y="775" on="1"/>
        <pt x="915" y="1031" on="0"/>
        <pt x="750" y="1311" on="0"/>
        <pt x="599" y="1311" on="1"/>
        <pt x="455" y="1311" on="0"/>
        <pt x="286" y="1034" on="0"/>
        <pt x="284" y="787" on="1"/>
        <pt x="284" y="681" on="1"/>
        <pt x="284" y="432" on="0"/>
        <pt x="452" y="143" on="0"/>
        <pt x="601" y="143" on="1"/>
        <pt x="751" y="143" on="0"/>
        <pt x="915" y="420" on="0"/>
        <pt x="915" y="681" on="1"/>
      </contour>
    </TTGlyph>
    <TTGlyph name="Thorn" xMin="154" yMin="0" xMax="965" yMax="1456">
      <contour>
        <pt x="331" y="1456" on="1"/>
        <pt x="331" y="1163" on="1"/>
        <pt x="554" y="1163" on="1"/>
        <pt x="745" y="1161" on="0"/>
        <pt x="965" y="928" on="0"/>
        <pt x="965" y="738" on="1"/>
        <pt x="965" y="546" on="0"/>
        <pt x="742" y="313" on="0"/>
        <pt x="544" y="313" on="1"/>
        <pt x="331" y="313" on="1"/>
        <pt x="331" y="0" on="1"/>
        <pt x="154" y="0" on="1"/>
        <pt x="154" y="1456" on="1"/>
      </contour>
      <contour>
        <pt x="331" y="1012" on="1"/>
        <pt x="331" y="465" on="1"/>
        <pt x="549" y="465" on="1"/>
        <pt x="661" y="465" on="0"/>
        <pt x="788" y="616" on="0"/>
        <pt x="788" y="736" on="1"/>
        <pt x="788" y="859" on="0"/>
        <pt x="661" y="1010" on="0"/>
        <pt x="553" y="1011" on="1"/>
        <pt x="332" y="1011" on="1"/>
      </contour>
    </TTGlyph>
    <TTGlyph name="U" xMin="130" yMin="-20" xMax="1025" yMax="1456">
      <contour>
        <pt x="1025" y="1456" on="1"/>
        <pt x="1025" y="421" on="1"/>
        <pt x="1023" y="214" on="0"/>
        <pt x="787" y="-20" on="0"/>
        <pt x="576" y="-20" on="1"/>
        <pt x="360" y="-20" on="0"/>
        <pt x="132" y="209" on="0"/>
        <pt x="130" y="421" on="1"/>
        <pt x="130" y="1456" on="1"/>
        <pt x="312" y="1456" on="1"/>
        <pt x="312" y="428" on="1"/>
        <pt x="312" y="281" on="0"/>
        <pt x="437" y="136" on="0"/>
        <pt x="576" y="136" on="1"/>
        <pt x="716" y="136" on="0"/>
        <pt x="841" y="281" on="0"/>
        <pt x="841" y="428" on="1"/>
        <pt x="841" y="1456" on="1"/>
      </contour>
    </TTGlyph>
    <TTGlyph name="Uacute" xMin="130" yMin="-20" xMax="1025" yMax="1844">
      <component glyphName="U" x="0" y="0" flags="0x204"/>
      <component glyphName="acute" x="350" y="310" flags="0x4"/>
    </TTGlyph>
    <TTGlyph name="Ubreve" xMin="130" yMin="-20" xMax="1025" yMax="1806">
      <component glyphName="U" x="0" y="0" flags="0x204"/>
      <component glyphName="breve" x="147" y="311" flags="0x4"/>
    </TTGlyph>
    <TTGlyph name="Ucircumflex" xMin="130" yMin="-20" xMax="1025" yMax="1846">
      <component glyphName="U" x="0" y="0" flags="0x204"/>
      <component glyphName="circumflex" x="148" y="310" flags="0x4"/>
    </TTGlyph>
    <TTGlyph name="Udieresis" xMin="130" yMin="-20" xMax="1025" yMax="1787">
      <component glyphName="U" x="0" y="0" flags="0x204"/>
      <component glyphName="dieresis" x="152" y="310" flags="0x4"/>
    </TTGlyph>
    <TTGlyph name="Ugrave" xMin="130" yMin="-20" xMax="1025" yMax="1844">
      <component glyphName="U" x="0" y="0" flags="0x204"/>
      <component glyphName="grave" x="207" y="310" flags="0x4"/>
    </TTGlyph>
    <TTGlyph name="Uhorn" xMin="130" yMin="-20" xMax="1350" yMax="1538">
      <contour>
        <pt x="1025" y="1456" on="1"/>
        <pt x="1025" y="1243" on="1"/>
        <pt x="1118" y="1254" on="0"/>
        <pt x="1200" y="1389" on="0"/>
        <pt x="1200" y="1538" on="1"/>
        <pt x="1350" y="1538" on="1"/>
        <pt x="1350" y="1328" on="0"/>
        <pt x="1193" y="1119" on="0"/>
        <pt x="1025" y="1107" on="1"/>
        <pt x="1025" y="457" on="1"/>
        <pt x="1021" y="240" on="0"/>
        <pt x="772" y="-20" on="0"/>
        <pt x="576" y="-20" on="1"/>
        <pt x="375" y="-20" on="0"/>
        <pt x="134" y="234" on="0"/>
        <pt x="130" y="456" on="1"/>
        <pt x="130" y="1456" on="1"/>
        <pt x="312" y="1456" on="1"/>
        <pt x="312" y="465" on="1"/>
        <pt x="313" y="309" on="0"/>
        <pt x="449" y="137" on="0"/>
        <pt x="576" y="137" on="1"/>
        <pt x="704" y="137" on="0"/>
        <pt x="840" y="309" on="0"/>
        <pt x="841" y="466" on="1"/>
        <pt x="841" y="1456" on="1"/>
      </contour>
    </TTGlyph>
    <TTGlyph name="Uhungarumlaut" xMin="130" yMin="-20" xMax="1025" yMax="1845">
      <component glyphName="U" x="0" y="0" flags="0x204"/>
      <component glyphName="hungarumlaut" x="265" y="310" flags="0x4"/>
    </TTGlyph>
    <TTGlyph name="Umacron" xMin="130" yMin="-20" xMax="1025" yMax="1774">
      <component glyphName="U" x="0" y="0" flags="0x204"/>
      <component glyphName="macron" x="148" y="318" flags="0x4"/>
    </TTGlyph>
    <TTGlyph name="Uogonek" xMin="130" yMin="-389" xMax="1025" yMax="1456">
      <contour>
        <pt x="1025" y="1456" on="1"/>
        <pt x="1025" y="429" on="1"/>
        <pt x="1025" y="276" on="0"/>
        <pt x="899" y="62" on="0"/>
        <pt x="779" y="15" on="1"/>
        <pt x="669" y="-90" on="0"/>
        <pt x="669" y="-178" on="1"/>
        <pt x="669" y="-250" on="0"/>
        <pt x="732" y="-250" on="1"/>
        <pt x="770" y="-250" on="0"/>
        <pt x="815" y="-224" on="1"/>
        <pt x="825" y="-345" on="1"/>
        <pt x="763" y="-389" on="0"/>
        <pt x="685" y="-389" on="1"/>
        <pt x="608" y="-389" on="0"/>
        <pt x="517" y="-286" on="0"/>
        <pt x="517" y="-199" on="1"/>
        <pt x="517" y="-101" on="0"/>
        <pt x="583" y="-20" on="1"/>
        <pt x="360" y="-20" on="0"/>
        <pt x="133" y="208" on="0"/>
        <pt x="130" y="417" on="1"/>
        <pt x="130" y="1456" on="1"/>
        <pt x="312" y="1456" on="1"/>
        <pt x="312" y="428" on="1"/>
        <pt x="312" y="281" on="0"/>
        <pt x="437" y="136" on="0"/>
        <pt x="576" y="136" on="1"/>
        <pt x="716" y="136" on="0"/>
        <pt x="841" y="281" on="0"/>
        <pt x="841" y="428" on="1"/>
        <pt x="841" y="1456" on="1"/>
      </contour>
    </TTGlyph>
    <TTGlyph name="Upsilon" xMin="30" yMin="0" xMax="1041" yMax="1456">
      <component glyphName="Y" x="0" y="0" flags="0x204"/>
    </TTGlyph>
    <TTGlyph name="Upsilon1" xMin="-9" yMin="0" xMax="966" yMax="1468">
      <contour>
        <pt x="478" y="799" on="1"/>
        <pt x="671" y="1302" on="1"/>
        <pt x="706" y="1392" on="0"/>
        <pt x="790" y="1468" on="0"/>
        <pt x="858" y="1468" on="1"/>
        <pt x="917" y="1468" on="0"/>
        <pt x="966" y="1441" on="1"/>
        <pt x="933" y="1290" on="1"/>
        <pt x="922" y="1298" on="0"/>
        <pt x="895" y="1298" on="1"/>
        <pt x="844" y="1298" on="0"/>
        <pt x="823" y="1219" on="1"/>
        <pt x="569" y="575" on="1"/>
        <pt x="569" y="0" on="1"/>
        <pt x="386" y="0" on="1"/>
        <pt x="386" y="577" on="1"/>
        <pt x="134" y="1219" on="1"/>
        <pt x="112" y="1298" on="0"/>
        <pt x="62" y="1298" on="1"/>
        <pt x="33" y="1298" on="0"/>
        <pt x="22" y="1290" on="1"/>
        <pt x="-9" y="1440" on="1"/>
        <pt x="40" y="1468" on="0"/>
        <pt x="98" y="1468" on="1"/>
        <pt x="172" y="1468" on="0"/>
        <pt x="264" y="1376" on="0"/>
        <pt x="297" y="1282" on="1"/>
      </contour>
    </TTGlyph>
    <TTGlyph name="Upsilondieresis" xMin="30" yMin="0" xMax="1041" yMax="1787">
      <component glyphName="Y" x="0" y="0" flags="0x204"/>
      <component glyphName="dieresis" x="117" y="310" flags="0x4"/>
    </TTGlyph>
    <TTGlyph name="Upsilontonos" xMin="-204" yMin="0" xMax="1141" yMax="1599">
      <component glyphName="Y" x="100" y="0" flags="0x4"/>
      <component glyphName="tonos" x="-387" y="0" flags="0x4"/>
    </TTGlyph>
    <TTGlyph name="Uring" xMin="130" yMin="-20" xMax="1025" yMax="1937">
      <component glyphName="U" x="0" y="0" flags="0x204"/>
      <component glyphName="ring" x="239" y="321" flags="0x4"/>
    </TTGlyph>
    <TTGlyph name="Utilde" xMin="130" yMin="-20" xMax="1025" yMax="1826">
      <component glyphName="U" x="0" y="0" flags="0x204"/>
      <component glyphName="tilde" x="144" y="314" flags="0x4"/>
    </TTGlyph>
    <TTGlyph name="V" xMin="42" yMin="0" xMax="1107" yMax="1456">
      <contour>
        <pt x="573" y="281" on="1"/>
        <pt x="906" y="1456" on="1"/>
        <pt x="1107" y="1456" on="1"/>
        <pt x="654" y="0" on="1"/>
        <pt x="494" y="0" on="1"/>
        <pt x="42" y="1456" on="1"/>
        <pt x="242" y="1456" on="1"/>
      </contour>
    </TTGlyph>
    <TTGlyph name="W" xMin="71" yMin="0" xMax="1506" yMax="1456">
      <contour>
        <pt x="435" y="459" on="1"/>
        <pt x="454" y="296" on="1"/>
        <pt x="483" y="440" on="1"/>
        <pt x="716" y="1456" on="1"/>
        <pt x="869" y="1456" on="1"/>
        <pt x="1095" y="440" on="1"/>
        <pt x="1124" y="292" on="1"/>
        <pt x="1145" y="460" on="1"/>
        <pt x="1323" y="1456" on="1"/>
        <pt x="1506" y="1456" on="1"/>
        <pt x="1216" y="0" on="1"/>
        <pt x="1051" y="0" on="1"/>
        <pt x="808" y="1061" on="1"/>
        <pt x="793" y="1147" on="1"/>
        <pt x="778" y="1061" on="1"/>
        <pt x="526" y="0" on="1"/>
        <pt x="360" y="0" on="1"/>
        <pt x="71" y="1456" on="1"/>
        <pt x="254" y="1456" on="1"/>
      </contour>
    </TTGlyph>
    <TTGlyph name="Wacute" xMin="71" yMin="0" xMax="1506" yMax="1844">
      <component glyphName="W" x="0" y="0" flags="0x204"/>
      <component glyphName="acute" x="571" y="310" flags="0x4"/>
    </TTGlyph>
    <TTGlyph name="Wcircumflex" xMin="71" yMin="0" xMax="1506" yMax="1846">
      <component glyphName="W" x="0" y="0" flags="0x204"/>
      <component glyphName="circumflex" x="369" y="310" flags="0x4"/>
    </TTGlyph>
    <TTGlyph name="Wdieresis" xMin="71" yMin="0" xMax="1506" yMax="1787">
      <component glyphName="W" x="0" y="0" flags="0x204"/>
      <component glyphName="dieresis" x="373" y="310" flags="0x4"/>
    </TTGlyph>
    <TTGlyph name="Wgrave" xMin="71" yMin="0" xMax="1506" yMax="1844">
      <component glyphName="W" x="0" y="0" flags="0x204"/>
      <component glyphName="grave" x="428" y="310" flags="0x4"/>
    </TTGlyph>
    <TTGlyph name="X" xMin="68" yMin="0" xMax="1063" yMax="1456">
      <contour>
        <pt x="566" y="898" on="1"/>
        <pt x="840" y="1456" on="1"/>
        <pt x="1055" y="1456" on="1"/>
        <pt x="676" y="734" on="1"/>
        <pt x="1063" y="0" on="1"/>
        <pt x="846" y="0" on="1"/>
        <pt x="566" y="568" on="1"/>
        <pt x="285" y="0" on="1"/>
        <pt x="68" y="0" on="1"/>
        <pt x="457" y="734" on="1"/>
        <pt x="76" y="1456" on="1"/>
        <pt x="290" y="1456" on="1"/>
      </contour>
    </TTGlyph>
    <TTGlyph name="Xi" xMin="122" yMin="0" xMax="914" yMax="1456">
      <contour>
        <pt x="122" y="157" on="1"/>
        <pt x="914" y="157" on="1"/>
        <pt x="914" y="0" on="1"/>
        <pt x="122" y="0" on="1"/>
      </contour>
      <contour>
        <pt x="192" y="831" on="1"/>
        <pt x="837" y="831" on="1"/>
        <pt x="837" y="674" on="1"/>
        <pt x="192" y="674" on="1"/>
      </contour>
      <contour>
        <pt x="123" y="1456" on="1"/>
        <pt x="904" y="1456" on="1"/>
        <pt x="904" y="1298" on="1"/>
        <pt x="123" y="1298" on="1"/>
      </contour>
    </TTGlyph>
    <TTGlyph name="Y" xMin="30" yMin="0" xMax="1041" yMax="1456">
      <contour>
        <pt x="536" y="725" on="1"/>
        <pt x="834" y="1456" on="1"/>
        <pt x="1041" y="1456" on="1"/>
        <pt x="627" y="543" on="1"/>
        <pt x="627" y="0" on="1"/>
        <pt x="444" y="0" on="1"/>
        <pt x="444" y="543" on="1"/>
        <pt x="30" y="1456" on="1"/>
        <pt x="238" y="1456" on="1"/>
      </contour>
    </TTGlyph>
    <TTGlyph name="Yacute" xMin="30" yMin="0" xMax="1041" yMax="1844">
      <component glyphName="Y" x="0" y="0" flags="0x204"/>
      <component glyphName="acute" x="315" y="310" flags="0x4"/>
    </TTGlyph>
    <TTGlyph name="Ycircumflex" xMin="30" yMin="0" xMax="1041" yMax="1846">
      <component glyphName="Y" x="0" y="0" flags="0x204"/>
      <component glyphName="circumflex" x="113" y="310" flags="0x4"/>
    </TTGlyph>
    <TTGlyph name="Ydieresis" xMin="30" yMin="0" xMax="1041" yMax="1787">
      <component glyphName="Y" x="0" y="0" flags="0x204"/>
      <component glyphName="dieresis" x="117" y="310" flags="0x4"/>
    </TTGlyph>
    <TTGlyph name="Ygrave" xMin="30" yMin="0" xMax="1041" yMax="1844">
      <component glyphName="Y" x="0" y="0" flags="0x204"/>
      <component glyphName="grave" x="172" y="310" flags="0x4"/>
    </TTGlyph>
    <TTGlyph name="Z" xMin="91" yMin="0" xMax="985" yMax="1456">
      <contour>
        <pt x="294" y="157" on="1"/>
        <pt x="985" y="157" on="1"/>
        <pt x="985" y="0" on="1"/>
        <pt x="91" y="0" on="1"/>
        <pt x="91" y="144" on="1"/>
        <pt x="754" y="1298" on="1"/>
        <pt x="98" y="1298" on="1"/>
        <pt x="98" y="1456" on="1"/>
        <pt x="958" y="1456" on="1"/>
        <pt x="958" y="1315" on="1"/>
      </contour>
    </TTGlyph>
    <TTGlyph name="Zacute" xMin="91" yMin="0" xMax="985" yMax="1844">
      <component glyphName="Z" x="0" y="0" flags="0x204"/>
      <component glyphName="acute" x="314" y="310" flags="0x4"/>
    </TTGlyph>
    <TTGlyph name="Zcaron" xMin="91" yMin="0" xMax="985" yMax="1846">
      <component glyphName="Z" x="0" y="0" flags="0x204"/>
      <component glyphName="caron" x="132" y="311" flags="0x4"/>
    </TTGlyph>
    <TTGlyph name="Zdotaccent" xMin="91" yMin="0" xMax="985" yMax="1784">
      <component glyphName="Z" x="0" y="0" flags="0x204"/>
      <component glyphName="dotaccent" x="290" y="310" flags="0x4"/>
    </TTGlyph>
    <TTGlyph name="Zeta" xMin="91" yMin="0" xMax="985" yMax="1456">
      <component glyphName="Z" x="0" y="0" flags="0x204"/>
    </TTGlyph>
    <TTGlyph name="a" xMin="114" yMin="-20" xMax="873" yMax="1102">
      <contour>
        <pt x="689" y="0" on="1"/>
        <pt x="673" y="35" on="0"/>
        <pt x="666" y="118" on="1"/>
        <pt x="572" y="-20" on="0"/>
        <pt x="426" y="-20" on="1"/>
        <pt x="279" y="-20" on="0"/>
        <pt x="114" y="145" on="0"/>
        <pt x="114" y="295" on="1"/>
        <pt x="114" y="460" on="0"/>
        <pt x="338" y="654" on="0"/>
        <pt x="533" y="656" on="1"/>
        <pt x="663" y="656" on="1"/>
        <pt x="663" y="771" on="1"/>
        <pt x="663" y="868" on="0"/>
        <pt x="577" y="950" on="0"/>
        <pt x="489" y="950" on="1"/>
        <pt x="409" y="950" on="0"/>
        <pt x="309" y="855" on="0"/>
        <pt x="309" y="782" on="1"/>
        <pt x="132" y="782" on="1"/>
        <pt x="132" y="865" on="0"/>
        <pt x="230" y="1016" on="0"/>
        <pt x="396" y="1102" on="0"/>
        <pt x="498" y="1102" on="1"/>
        <pt x="664" y="1102" on="0"/>
        <pt x="837" y="937" on="0"/>
        <pt x="839" y="779" on="1"/>
        <pt x="839" y="233" on="1"/>
        <pt x="840" y="108" on="0"/>
        <pt x="873" y="16" on="1"/>
        <pt x="873" y="0" on="1"/>
      </contour>
      <contour>
        <pt x="453" y="141" on="1"/>
        <pt x="518" y="141" on="0"/>
        <pt x="636" y="213" on="0"/>
        <pt x="663" y="267" on="1"/>
        <pt x="663" y="525" on="1"/>
        <pt x="563" y="525" on="1"/>
        <pt x="437" y="523" on="0"/>
        <pt x="291" y="414" on="0"/>
        <pt x="291" y="316" on="1"/>
        <pt x="291" y="224" on="0"/>
        <pt x="365" y="141" on="0"/>
      </contour>
    </TTGlyph>
    <TTGlyph name="aacute" xMin="114" yMin="-20" xMax="873" yMax="1534">
      <component glyphName="a" x="0" y="0" flags="0x204"/>
      <component glyphName="acute" x="284" y="0" flags="0x4"/>
    </TTGlyph>
    <TTGlyph name="abreve" xMin="114" yMin="-20" xMax="873" yMax="1496">
      <component glyphName="a" x="0" y="0" flags="0x204"/>
      <component glyphName="breve" x="81" y="1" flags="0x4"/>
    </TTGlyph>
    <TTGlyph name="acircumflex" xMin="114" yMin="-20" xMax="873" yMax="1536">
      <component glyphName="a" x="0" y="0" flags="0x204"/>
      <component glyphName="circumflex" x="82" y="0" flags="0x4"/>
    </TTGlyph>
    <TTGlyph name="acute" xMin="123" yMin="1240" xMax="540" yMax="1534">
      <contour>
        <pt x="316" y="1534" on="1"/>
        <pt x="540" y="1534" on="1"/>
        <pt x="272" y="1240" on="1"/>
        <pt x="123" y="1240" on="1"/>
      </contour>
    </TTGlyph>
    <TTGlyph name="acutecomb" xMin="-545" yMin="1240" xMax="-169" yMax="1534">
      <contour>
        <pt x="-382" y="1534" on="1"/>
        <pt x="-169" y="1534" on="1"/>
        <pt x="-406" y="1240" on="1"/>
        <pt x="-545" y="1240" on="1"/>
      </contour>
    </TTGlyph>
    <TTGlyph name="adieresis" xMin="114" yMin="-20" xMax="873" yMax="1477">
      <component glyphName="a" x="0" y="0" flags="0x204"/>
      <component glyphName="dieresis" x="86" y="0" flags="0x4"/>
    </TTGlyph>
    <TTGlyph name="ae" xMin="83" yMin="-20" xMax="1415" yMax="1102">
      <contour>
        <pt x="1079" y="-20" on="1"/>
        <pt x="859" y="-20" on="0"/>
        <pt x="744" y="152" on="1"/>
        <pt x="688" y="70" on="0"/>
        <pt x="496" y="-20" on="0"/>
        <pt x="381" y="-20" on="1"/>
        <pt x="242" y="-20" on="0"/>
        <pt x="83" y="151" on="0"/>
        <pt x="83" y="304" on="1"/>
        <pt x="83" y="461" on="0"/>
        <pt x="275" y="635" on="0"/>
        <pt x="462" y="635" on="1"/>
        <pt x="639" y="635" on="1"/>
        <pt x="639" y="720" on="1"/>
        <pt x="639" y="827" on="0"/>
        <pt x="552" y="950" on="0"/>
        <pt x="472" y="950" on="1"/>
        <pt x="391" y="950" on="0"/>
        <pt x="282" y="841" on="0"/>
        <pt x="282" y="759" on="1"/>
        <pt x="107" y="778" on="1"/>
        <pt x="107" y="920" on="0"/>
        <pt x="312" y="1102" on="0"/>
        <pt x="472" y="1102" on="1"/>
        <pt x="670" y="1102" on="0"/>
        <pt x="757" y="949" on="1"/>
        <pt x="868" y="1102" on="0"/>
        <pt x="1038" y="1102" on="1"/>
        <pt x="1218" y="1102" on="0"/>
        <pt x="1415" y="844" on="0"/>
        <pt x="1415" y="611" on="1"/>
        <pt x="1415" y="497" on="1"/>
        <pt x="813" y="497" on="1"/>
        <pt x="818" y="323" on="0"/>
        <pt x="957" y="130" on="0"/>
        <pt x="1079" y="130" on="1"/>
        <pt x="1205" y="130" on="0"/>
        <pt x="1303" y="206" on="1"/>
        <pt x="1342" y="237" on="1"/>
        <pt x="1401" y="101" on="1"/>
        <pt x="1350" y="46" on="0"/>
        <pt x="1177" y="-20" on="0"/>
      </contour>
      <contour>
        <pt x="417" y="130" on="1"/>
        <pt x="511" y="130" on="0"/>
        <pt x="609" y="218" on="1"/>
        <pt x="639" y="248" on="1"/>
        <pt x="639" y="495" on="1"/>
        <pt x="462" y="495" on="1"/>
        <pt x="371" y="494" on="0"/>
        <pt x="260" y="386" on="0"/>
        <pt x="260" y="300" on="1"/>
        <pt x="260" y="219" on="0"/>
        <pt x="343" y="130" on="0"/>
      </contour>
      <contour>
        <pt x="1038" y="950" on="1"/>
        <pt x="947" y="950" on="0"/>
        <pt x="828" y="776" on="0"/>
        <pt x="816" y="640" on="1"/>
        <pt x="1239" y="640" on="1"/>
        <pt x="1239" y="671" on="1"/>
        <pt x="1239" y="806" on="0"/>
        <pt x="1135" y="950" on="0"/>
      </contour>
    </TTGlyph>
    <TTGlyph name="aeacute" xMin="83" yMin="-20" xMax="1415" yMax="1535">
      <component glyphName="ae" x="0" y="0" flags="0x204"/>
      <component glyphName="acute" x="517" y="1" flags="0x4"/>
    </TTGlyph>
    <TTGlyph name="agrave" xMin="114" yMin="-20" xMax="873" yMax="1534">
      <component glyphName="a" x="0" y="0" flags="0x204"/>
      <component glyphName="grave" x="141" y="0" flags="0x4"/>
    </TTGlyph>
    <TTGlyph name="alpha" xMin="100" yMin="-21" xMax="979" yMax="1102">
      <contour>
        <pt x="874" y="1082" on="1"/>
        <pt x="874" y="289" on="1"/>
        <pt x="875" y="145" on="0"/>
        <pt x="934" y="145" on="1"/>
        <pt x="948" y="145" on="0"/>
        <pt x="958" y="150" on="1"/>
        <pt x="979" y="13" on="1"/>
        <pt x="936" y="-21" on="0"/>
        <pt x="869" y="-21" on="1"/>
        <pt x="749" y="-21" on="0"/>
        <pt x="714" y="128" on="1"/>
        <pt x="623" y="-21" on="0"/>
        <pt x="456" y="-21" on="1"/>
        <pt x="293" y="-21" on="0"/>
        <pt x="100" y="260" on="0"/>
        <pt x="100" y="521" on="1"/>
        <pt x="100" y="788" on="0"/>
        <pt x="293" y="1102" on="0"/>
        <pt x="457" y="1102" on="1"/>
        <pt x="620" y="1102" on="0"/>
        <pt x="711" y="959" on="1"/>
        <pt x="725" y="1082" on="1"/>
      </contour>
      <contour>
        <pt x="277" y="500" on="1"/>
        <pt x="277" y="319" on="0"/>
        <pt x="395" y="130" on="0"/>
        <pt x="502" y="130" on="1"/>
        <pt x="632" y="130" on="0"/>
        <pt x="698" y="294" on="1"/>
        <pt x="698" y="783" on="1"/>
        <pt x="629" y="950" on="0"/>
        <pt x="503" y="950" on="1"/>
        <pt x="395" y="950" on="0"/>
        <pt x="277" y="728" on="0"/>
      </contour>
    </TTGlyph>
    <TTGlyph name="alphatonos" xMin="100" yMin="-21" xMax="979" yMax="1594">
      <component glyphName="alpha" x="0" y="0" flags="0x204"/>
      <component glyphName="tonos" x="293" y="-5" flags="0x4"/>
    </TTGlyph>
    <TTGlyph name="amacron" xMin="114" yMin="-20" xMax="873" yMax="1464">
      <component glyphName="a" x="0" y="0" flags="0x204"/>
      <component glyphName="macron" x="82" y="8" flags="0x4"/>
    </TTGlyph>
    <TTGlyph name="ampersand" xMin="103" yMin="-20" xMax="1096" yMax="1476">
      <contour>
        <pt x="103" y="391" on="1"/>
        <pt x="103" y="494" on="0"/>
        <pt x="202" y="669" on="0"/>
        <pt x="342" y="785" on="1"/>
        <pt x="260" y="900" on="0"/>
        <pt x="199" y="1049" on="0"/>
        <pt x="199" y="1122" on="1"/>
        <pt x="199" y="1289" on="0"/>
        <pt x="370" y="1476" on="0"/>
        <pt x="514" y="1476" on="1"/>
        <pt x="646" y="1476" on="0"/>
        <pt x="816" y="1300" on="0"/>
        <pt x="816" y="1168" on="1"/>
        <pt x="816" y="1082" on="0"/>
        <pt x="748" y="936" on="0"/>
        <pt x="662" y="861" on="1"/>
        <pt x="559" y="773" on="1"/>
        <pt x="815" y="404" on="1"/>
        <pt x="862" y="523" on="0"/>
        <pt x="862" y="672" on="1"/>
        <pt x="1020" y="672" on="1"/>
        <pt x="1020" y="420" on="0"/>
        <pt x="918" y="256" on="1"/>
        <pt x="1096" y="0" on="1"/>
        <pt x="884" y="0" on="1"/>
        <pt x="810" y="107" on="1"/>
        <pt x="753" y="48" on="0"/>
        <pt x="591" y="-20" on="0"/>
        <pt x="504" y="-20" on="1"/>
        <pt x="321" y="-20" on="0"/>
        <pt x="103" y="208" on="0"/>
      </contour>
      <contour>
        <pt x="504" y="131" on="1"/>
        <pt x="621" y="131" on="0"/>
        <pt x="719" y="241" on="1"/>
        <pt x="430" y="662" on="1"/>
        <pt x="400" y="637" on="1"/>
        <pt x="279" y="522" on="0"/>
        <pt x="279" y="391" on="1"/>
        <pt x="279" y="275" on="0"/>
        <pt x="399" y="131" on="0"/>
      </contour>
      <contour>
        <pt x="375" y="1128" on="1"/>
        <pt x="375" y="1074" on="0"/>
        <pt x="429" y="960" on="0"/>
        <pt x="472" y="896" on="1"/>
        <pt x="549" y="962" on="1"/>
        <pt x="610" y="1011" on="0"/>
        <pt x="654" y="1102" on="0"/>
        <pt x="654" y="1234" on="0"/>
        <pt x="574" y="1324" on="0"/>
        <pt x="513" y="1324" on="1"/>
        <pt x="448" y="1324" on="0"/>
        <pt x="375" y="1212" on="0"/>
      </contour>
    </TTGlyph>
    <TTGlyph name="anoteleia" xMin="138" yMin="619" xMax="351" yMax="841">
      <component glyphName="periodcentered" x="0" y="0" flags="0x4"/>
    </TTGlyph>
    <TTGlyph name="aogonek" xMin="114" yMin="-433" xMax="873" yMax="1102">
      <contour>
        <pt x="687" y="5" on="1"/>
        <pt x="670" y="46" on="0"/>
        <pt x="666" y="118" on="1"/>
        <pt x="572" y="-20" on="0"/>
        <pt x="426" y="-20" on="1"/>
        <pt x="279" y="-20" on="0"/>
        <pt x="114" y="145" on="0"/>
        <pt x="114" y="295" on="1"/>
        <pt x="114" y="460" on="0"/>
        <pt x="338" y="654" on="0"/>
        <pt x="533" y="656" on="1"/>
        <pt x="663" y="656" on="1"/>
        <pt x="663" y="771" on="1"/>
        <pt x="663" y="868" on="0"/>
        <pt x="577" y="950" on="0"/>
        <pt x="489" y="950" on="1"/>
        <pt x="409" y="950" on="0"/>
        <pt x="309" y="855" on="0"/>
        <pt x="309" y="782" on="1"/>
        <pt x="132" y="782" on="1"/>
        <pt x="132" y="865" on="0"/>
        <pt x="230" y="1016" on="0"/>
        <pt x="396" y="1102" on="0"/>
        <pt x="498" y="1102" on="1"/>
        <pt x="664" y="1102" on="0"/>
        <pt x="837" y="937" on="0"/>
        <pt x="839" y="779" on="1"/>
        <pt x="839" y="233" on="1"/>
        <pt x="840" y="108" on="0"/>
        <pt x="873" y="16" on="1"/>
        <pt x="873" y="0" on="1"/>
        <pt x="840" y="0" on="1"/>
        <pt x="761" y="-70" on="0"/>
        <pt x="699" y="-173" on="0"/>
        <pt x="699" y="-222" on="1"/>
        <pt x="699" y="-294" on="0"/>
        <pt x="762" y="-294" on="1"/>
        <pt x="800" y="-294" on="0"/>
        <pt x="845" y="-268" on="1"/>
        <pt x="855" y="-389" on="1"/>
        <pt x="793" y="-433" on="0"/>
        <pt x="715" y="-433" on="1"/>
        <pt x="638" y="-433" on="0"/>
        <pt x="547" y="-330" on="0"/>
        <pt x="547" y="-243" on="1"/>
        <pt x="547" y="-97" on="0"/>
      </contour>
      <contour>
        <pt x="453" y="141" on="1"/>
        <pt x="518" y="141" on="0"/>
        <pt x="636" y="213" on="0"/>
        <pt x="663" y="267" on="1"/>
        <pt x="663" y="525" on="1"/>
        <pt x="563" y="525" on="1"/>
        <pt x="437" y="523" on="0"/>
        <pt x="291" y="414" on="0"/>
        <pt x="291" y="316" on="1"/>
        <pt x="291" y="224" on="0"/>
        <pt x="365" y="141" on="0"/>
      </contour>
    </TTGlyph>
    <TTGlyph name="approxequal" xMin="103" yMin="280" xMax="889" yMax="1012">
      <contour>
        <pt x="104" y="901" on="1"/>
        <pt x="144" y="952" on="0"/>
        <pt x="256" y="1010" on="0"/>
        <pt x="311" y="1010" on="1"/>
        <pt x="378" y="1012" on="0"/>
        <pt x="437" y="980" on="1"/>
        <pt x="575" y="896" on="1"/>
        <pt x="627" y="868" on="0"/>
        <pt x="691" y="868" on="1"/>
        <pt x="746" y="868" on="0"/>
        <pt x="849" y="936" on="0"/>
        <pt x="889" y="996" on="1"/>
        <pt x="888" y="806" on="1"/>
        <pt x="803" y="697" on="0"/>
        <pt x="690" y="697" on="1"/>
        <pt x="625" y="697" on="0"/>
        <pt x="571" y="727" on="1"/>
        <pt x="432" y="812" on="1"/>
        <pt x="376" y="842" on="0"/>
        <pt x="311" y="840" on="1"/>
        <pt x="256" y="840" on="0"/>
        <pt x="143" y="772" on="0"/>
        <pt x="103" y="712" on="1"/>
      </contour>
      <contour>
        <pt x="105" y="483" on="1"/>
        <pt x="145" y="534" on="0"/>
        <pt x="256" y="593" on="0"/>
        <pt x="311" y="593" on="1"/>
        <pt x="380" y="595" on="0"/>
        <pt x="444" y="559" on="1"/>
        <pt x="571" y="481" on="1"/>
        <pt x="626" y="450" on="0"/>
        <pt x="691" y="450" on="1"/>
        <pt x="746" y="450" on="0"/>
        <pt x="849" y="518" on="0"/>
        <pt x="889" y="578" on="1"/>
        <pt x="889" y="389" on="1"/>
        <pt x="804" y="280" on="0"/>
        <pt x="691" y="280" on="1"/>
        <pt x="626" y="280" on="0"/>
        <pt x="572" y="310" on="1"/>
        <pt x="437" y="392" on="1"/>
        <pt x="378" y="424" on="0"/>
        <pt x="312" y="422" on="1"/>
        <pt x="257" y="422" on="0"/>
        <pt x="144" y="354" on="0"/>
        <pt x="104" y="294" on="1"/>
      </contour>
    </TTGlyph>
    <TTGlyph name="aring" xMin="114" yMin="-20" xMax="873" yMax="1627">
      <component glyphName="a" x="0" y="0" flags="0x204"/>
      <component glyphName="ring" x="173" y="11" flags="0x4"/>
    </TTGlyph>
    <TTGlyph name="aringacute" xMin="114" yMin="-20" xMax="873" yMax="1631">
      <component glyphName="a" x="0" y="0" flags="0x204"/>
      <component glyphName="glyph00473" x="216" y="-19" flags="0x4"/>
    </TTGlyph>
    <TTGlyph name="asciicircum" xMin="69" yMin="729" xMax="689" yMax="1456">
      <contour>
        <pt x="379" y="1211" on="1"/>
        <pt x="232" y="729" on="1"/>
        <pt x="69" y="729" on="1"/>
        <pt x="321" y="1456" on="1"/>
        <pt x="439" y="1456" on="1"/>
        <pt x="689" y="729" on="1"/>
        <pt x="528" y="729" on="1"/>
      </contour>
    </TTGlyph>
    <TTGlyph name="asciitilde" xMin="125" yMin="402" xMax="1084" yMax="802">
      <contour>
        <pt x="1084" y="777" on="1"/>
        <pt x="1084" y="622" on="0"/>
        <pt x="921" y="402" on="0"/>
        <pt x="803" y="402" on="1"/>
        <pt x="739" y="402" on="0"/>
        <pt x="623" y="463" on="0"/>
        <pt x="552" y="541" on="1"/>
        <pt x="512" y="588" on="0"/>
        <pt x="444" y="639" on="0"/>
        <pt x="406" y="639" on="1"/>
        <pt x="344" y="639" on="0"/>
        <pt x="278" y="532" on="0"/>
        <pt x="278" y="438" on="1"/>
        <pt x="125" y="436" on="1"/>
        <pt x="125" y="594" on="0"/>
        <pt x="286" y="802" on="0"/>
        <pt x="406" y="802" on="1"/>
        <pt x="478" y="802" on="0"/>
        <pt x="594" y="729" on="0"/>
        <pt x="656" y="663" on="1"/>
        <pt x="697" y="613" on="0"/>
        <pt x="764" y="565" on="0"/>
        <pt x="803" y="565" on="1"/>
        <pt x="862" y="565" on="0"/>
        <pt x="940" y="682" on="0"/>
        <pt x="940" y="776" on="1"/>
      </contour>
    </TTGlyph>
    <TTGlyph name="asterisk" xMin="28" yMin="609" xMax="853" yMax="1456">
      <contour>
        <pt x="330" y="983" on="1"/>
        <pt x="28" y="1073" on="1"/>
        <pt x="74" y="1224" on="1"/>
        <pt x="376" y="1112" on="1"/>
        <pt x="367" y="1456" on="1"/>
        <pt x="520" y="1456" on="1"/>
        <pt x="510" y="1107" on="1"/>
        <pt x="807" y="1217" on="1"/>
        <pt x="853" y="1065" on="1"/>
        <pt x="546" y="974" on="1"/>
        <pt x="744" y="703" on="1"/>
        <pt x="620" y="609" on="1"/>
        <pt x="434" y="897" on="1"/>
        <pt x="254" y="616" on="1"/>
        <pt x="129" y="707" on="1"/>
      </contour>
    </TTGlyph>
    <TTGlyph name="at" xMin="107" yMin="-453" xMax="1483" yMax="1431">
      <contour>
        <pt x="1474" y="502" on="1"/>
        <pt x="1466" y="267" on="0"/>
        <pt x="1283" y="-20" on="0"/>
        <pt x="1124" y="-20" on="1"/>
        <pt x="969" y="-20" on="0"/>
        <pt x="921" y="139" on="1"/>
        <pt x="876" y="59" on="0"/>
        <pt x="765" y="-20" on="0"/>
        <pt x="708" y="-20" on="1"/>
        <pt x="586" y="-20" on="0"/>
        <pt x="464" y="213" on="0"/>
        <pt x="480" y="417" on="1"/>
        <pt x="492" y="580" on="0"/>
        <pt x="595" y="841" on="0"/>
        <pt x="755" y="989" on="0"/>
        <pt x="842" y="989" on="1"/>
        <pt x="913" y="989" on="0"/>
        <pt x="1023" y="945" on="0"/>
        <pt x="1091" y="883" on="1"/>
        <pt x="1046" y="329" on="1"/>
        <pt x="1030" y="98" on="0"/>
        <pt x="1145" y="98" on="1"/>
        <pt x="1234" y="98" on="0"/>
        <pt x="1347" y="314" on="0"/>
        <pt x="1354" y="502" on="1"/>
        <pt x="1369" y="893" on="0"/>
        <pt x="1098" y="1299" on="0"/>
        <pt x="826" y="1299" on="1"/>
        <pt x="658" y="1299" on="0"/>
        <pt x="406" y="1100" on="0"/>
        <pt x="261" y="725" on="0"/>
        <pt x="253" y="478" on="1"/>
        <pt x="239" y="99" on="0"/>
        <pt x="514" y="-328" on="0"/>
        <pt x="772" y="-328" on="1"/>
        <pt x="849" y="-328" on="0"/>
        <pt x="1002" y="-283" on="0"/>
        <pt x="1051" y="-249" on="1"/>
        <pt x="1084" y="-364" on="1"/>
        <pt x="1031" y="-403" on="0"/>
        <pt x="858" y="-453" on="0"/>
        <pt x="769" y="-453" on="1"/>
        <pt x="560" y="-453" on="0"/>
        <pt x="257" y="-229" on="0"/>
        <pt x="107" y="194" on="0"/>
        <pt x="116" y="478" on="1"/>
        <pt x="125" y="753" on="0"/>
        <pt x="312" y="1193" on="0"/>
        <pt x="630" y="1431" on="0"/>
        <pt x="830" y="1431" on="1"/>
        <pt x="1036" y="1431" on="0"/>
        <pt x="1337" y="1206" on="0"/>
        <pt x="1483" y="787" on="0"/>
      </contour>
      <contour>
        <pt x="630" y="417" on="1"/>
        <pt x="619" y="275" on="0"/>
        <pt x="685" y="123" on="0"/>
        <pt x="754" y="123" on="1"/>
        <pt x="798" y="123" on="0"/>
        <pt x="879" y="219" on="0"/>
        <pt x="906" y="309" on="1"/>
        <pt x="908" y="329" on="1"/>
        <pt x="947" y="838" on="1"/>
        <pt x="903" y="861" on="0"/>
        <pt x="858" y="861" on="1"/>
        <pt x="765" y="861" on="0"/>
        <pt x="643" y="621" on="0"/>
      </contour>
    </TTGlyph>
    <TTGlyph name="atilde" xMin="114" yMin="-20" xMax="873" yMax="1516">
      <component glyphName="a" x="0" y="0" flags="0x204"/>
      <component glyphName="tilde" x="78" y="4" flags="0x4"/>
    </TTGlyph>
    <TTGlyph name="b" xMin="133" yMin="-20" xMax="916" yMax="1536">
      <contour>
        <pt x="916" y="489" on="1"/>
        <pt x="916" y="236" on="0"/>
        <pt x="734" y="-20" on="0"/>
        <pt x="561" y="-20" on="1"/>
        <pt x="389" y="-20" on="0"/>
        <pt x="303" y="128" on="1"/>
        <pt x="294" y="0" on="1"/>
        <pt x="133" y="0" on="1"/>
        <pt x="133" y="1536" on="1"/>
        <pt x="309" y="1536" on="1"/>
        <pt x="309" y="963" on="1"/>
        <pt x="396" y="1102" on="0"/>
        <pt x="559" y="1102" on="1"/>
        <pt x="737" y="1102" on="0"/>
        <pt x="915" y="850" on="0"/>
        <pt x="916" y="596" on="1"/>
      </contour>
      <contour>
        <pt x="740" y="590" on="1"/>
        <pt x="740" y="782" on="0"/>
        <pt x="633" y="945" on="0"/>
        <pt x="513" y="945" on="1"/>
        <pt x="376" y="945" on="0"/>
        <pt x="309" y="797" on="1"/>
        <pt x="309" y="282" on="1"/>
        <pt x="375" y="136" on="0"/>
        <pt x="515" y="136" on="1"/>
        <pt x="635" y="136" on="0"/>
        <pt x="739" y="304" on="0"/>
        <pt x="740" y="481" on="1"/>
      </contour>
    </TTGlyph>
    <TTGlyph name="backslash" xMin="51" yMin="-125" xMax="728" yMax="1456">
      <contour>
        <pt x="51" y="1456" on="1"/>
        <pt x="218" y="1456" on="1"/>
        <pt x="728" y="-125" on="1"/>
        <pt x="562" y="-125" on="1"/>
      </contour>
    </TTGlyph>
    <TTGlyph name="bar" xMin="175" yMin="-270" xMax="324" yMax="1456">
      <contour>
        <pt x="324" y="-270" on="1"/>
        <pt x="175" y="-270" on="1"/>
        <pt x="175" y="1456" on="1"/>
        <pt x="324" y="1456" on="1"/>
      </contour>
    </TTGlyph>
    <TTGlyph name="beta" xMin="149" yMin="-384" xMax="948" yMax="1476">
      <contour>
        <pt x="532" y="1476" on="1"/>
        <pt x="696" y="1476" on="0"/>
        <pt x="897" y="1258" on="0"/>
        <pt x="897" y="1083" on="1"/>
        <pt x="897" y="992" on="0"/>
        <pt x="812" y="840" on="0"/>
        <pt x="737" y="793" on="1"/>
        <pt x="838" y="748" on="0"/>
        <pt x="948" y="553" on="0"/>
        <pt x="948" y="424" on="1"/>
        <pt x="948" y="221" on="0"/>
        <pt x="738" y="-20" on="0"/>
        <pt x="566" y="-20" on="1"/>
        <pt x="424" y="-20" on="0"/>
        <pt x="326" y="63" on="1"/>
        <pt x="326" y="-384" on="1"/>
        <pt x="149" y="-384" on="1"/>
        <pt x="149" y="1074" on="1"/>
        <pt x="149" y="1180" on="0"/>
        <pt x="253" y="1368" on="0"/>
        <pt x="432" y="1476" on="0"/>
      </contour>
      <contour>
        <pt x="721" y="1087" on="1"/>
        <pt x="721" y="1190" on="0"/>
        <pt x="614" y="1324" on="0"/>
        <pt x="532" y="1324" on="1"/>
        <pt x="446" y="1324" on="0"/>
        <pt x="326" y="1183" on="0"/>
        <pt x="326" y="1069" on="1"/>
        <pt x="326" y="234" on="1"/>
        <pt x="401" y="131" on="0"/>
        <pt x="547" y="131" on="1"/>
        <pt x="649" y="131" on="0"/>
        <pt x="772" y="288" on="0"/>
        <pt x="772" y="420" on="1"/>
        <pt x="772" y="538" on="0"/>
        <pt x="666" y="705" on="0"/>
        <pt x="583" y="706" on="1"/>
        <pt x="461" y="706" on="1"/>
        <pt x="461" y="858" on="1"/>
        <pt x="535" y="858" on="1"/>
        <pt x="626" y="860" on="0"/>
        <pt x="721" y="979" on="0"/>
      </contour>
    </TTGlyph>
    <TTGlyph name="braceleft" xMin="72" yMin="-366" xMax="585" yMax="1597">
      <contour>
        <pt x="549" y="-366" on="1"/>
        <pt x="398" y="-316" on="0"/>
        <pt x="245" y="-90" on="0"/>
        <pt x="244" y="95" on="1"/>
        <pt x="244" y="302" on="1"/>
        <pt x="244" y="543" on="0"/>
        <pt x="72" y="543" on="1"/>
        <pt x="72" y="688" on="1"/>
        <pt x="244" y="688" on="0"/>
        <pt x="244" y="929" on="1"/>
        <pt x="244" y="1135" on="1"/>
        <pt x="245" y="1319" on="0"/>
        <pt x="395" y="1546" on="0"/>
        <pt x="549" y="1597" on="1"/>
        <pt x="585" y="1482" on="1"/>
        <pt x="425" y="1419" on="0"/>
        <pt x="421" y="1147" on="1"/>
        <pt x="421" y="931" on="1"/>
        <pt x="421" y="705" on="0"/>
        <pt x="274" y="615" on="1"/>
        <pt x="421" y="525" on="0"/>
        <pt x="421" y="298" on="1"/>
        <pt x="421" y="79" on="1"/>
        <pt x="426" y="-189" on="0"/>
        <pt x="584" y="-251" on="1"/>
      </contour>
    </TTGlyph>
    <TTGlyph name="braceright" xMin="39" yMin="-366" xMax="552" yMax="1597">
      <contour>
        <pt x="39" y="-251" on="1"/>
        <pt x="199" y="-188" on="0"/>
        <pt x="204" y="80" on="1"/>
        <pt x="204" y="301" on="1"/>
        <pt x="204" y="532" on="0"/>
        <pt x="363" y="615" on="1"/>
        <pt x="204" y="697" on="0"/>
        <pt x="204" y="933" on="1"/>
        <pt x="204" y="1140" on="1"/>
        <pt x="202" y="1418" on="0"/>
        <pt x="39" y="1482" on="1"/>
        <pt x="75" y="1597" on="1"/>
        <pt x="225" y="1548" on="0"/>
        <pt x="376" y="1327" on="0"/>
        <pt x="380" y="1149" on="1"/>
        <pt x="380" y="913" on="1"/>
        <pt x="385" y="688" on="0"/>
        <pt x="552" y="688" on="1"/>
        <pt x="552" y="543" on="1"/>
        <pt x="380" y="543" on="0"/>
        <pt x="380" y="302" on="1"/>
        <pt x="380" y="98" on="1"/>
        <pt x="380" y="-266" on="0"/>
        <pt x="75" y="-366" on="1"/>
      </contour>
    </TTGlyph>
    <TTGlyph name="bracketleft" xMin="137" yMin="-312" xMax="469" yMax="1664">
      <contour>
        <pt x="469" y="1512" on="1"/>
        <pt x="314" y="1512" on="1"/>
        <pt x="314" y="-160" on="1"/>
        <pt x="469" y="-160" on="1"/>
        <pt x="469" y="-312" on="1"/>
        <pt x="137" y="-312" on="1"/>
        <pt x="137" y="1664" on="1"/>
        <pt x="469" y="1664" on="1"/>
      </contour>
    </TTGlyph>
    <TTGlyph name="bracketright" xMin="30" yMin="-312" xMax="363" yMax="1664">
      <contour>
        <pt x="30" y="1664" on="1"/>
        <pt x="363" y="1664" on="1"/>
        <pt x="363" y="-312" on="1"/>
        <pt x="30" y="-312" on="1"/>
        <pt x="30" y="-160" on="1"/>
        <pt x="187" y="-160" on="1"/>
        <pt x="187" y="1512" on="1"/>
        <pt x="30" y="1512" on="1"/>
      </contour>
    </TTGlyph>
    <TTGlyph name="breve" xMin="129" yMin="1227" xMax="728" yMax="1495">
      <contour>
        <pt x="728" y="1495" on="1"/>
        <pt x="728" y="1374" on="0"/>
        <pt x="563" y="1227" on="0"/>
        <pt x="295" y="1227" on="0"/>
        <pt x="129" y="1375" on="0"/>
        <pt x="129" y="1495" on="1"/>
        <pt x="280" y="1495" on="1"/>
        <pt x="280" y="1425" on="0"/>
        <pt x="356" y="1346" on="0"/>
        <pt x="429" y="1346" on="1"/>
        <pt x="499" y="1346" on="0"/>
        <pt x="578" y="1424" on="0"/>
        <pt x="578" y="1495" on="1"/>
      </contour>
    </TTGlyph>
    <TTGlyph name="brokenbar" xMin="147" yMin="-270" xMax="333" yMax="1456">
      <contour>
        <pt x="147" y="-270" on="1"/>
        <pt x="147" y="521" on="1"/>
        <pt x="333" y="521" on="1"/>
        <pt x="333" y="-270" on="1"/>
      </contour>
      <contour>
        <pt x="333" y="698" on="1"/>
        <pt x="147" y="698" on="1"/>
        <pt x="147" y="1456" on="1"/>
        <pt x="333" y="1456" on="1"/>
      </contour>
    </TTGlyph>
    <TTGlyph name="bullet" xMin="138" yMin="535" xMax="546" yMax="971">
      <contour>
        <pt x="138" y="772" on="1"/>
        <pt x="138" y="859" on="0"/>
        <pt x="249" y="971" on="0"/>
        <pt x="341" y="971" on="1"/>
        <pt x="432" y="971" on="0"/>
        <pt x="546" y="862" on="0"/>
        <pt x="546" y="769" on="1"/>
        <pt x="546" y="732" on="1"/>
        <pt x="546" y="645" on="0"/>
        <pt x="436" y="535" on="0"/>
        <pt x="342" y="535" on="1"/>
        <pt x="249" y="535" on="0"/>
        <pt x="138" y="646" on="0"/>
        <pt x="138" y="734" on="1"/>
      </contour>
    </TTGlyph>
    <TTGlyph name="c" xMin="96" yMin="-20" xMax="874" yMax="1102">
      <contour>
        <pt x="508" y="131" on="1"/>
        <pt x="596" y="131" on="0"/>
        <pt x="702" y="240" on="0"/>
        <pt x="707" y="341" on="1"/>
        <pt x="874" y="341" on="1"/>
        <pt x="868" y="185" on="0"/>
        <pt x="659" y="-20" on="0"/>
        <pt x="508" y="-20" on="1"/>
        <pt x="307" y="-20" on="0"/>
        <pt x="96" y="233" on="0"/>
        <pt x="96" y="483" on="1"/>
        <pt x="96" y="602" on="1"/>
        <pt x="96" y="847" on="0"/>
        <pt x="306" y="1102" on="0"/>
        <pt x="507" y="1102" on="1"/>
        <pt x="673" y="1102" on="0"/>
        <pt x="868" y="892" on="0"/>
        <pt x="874" y="710" on="1"/>
        <pt x="707" y="710" on="1"/>
        <pt x="701" y="830" on="0"/>
        <pt x="598" y="950" on="0"/>
        <pt x="507" y="950" on="1"/>
        <pt x="389" y="950" on="0"/>
        <pt x="275" y="795" on="0"/>
        <pt x="273" y="618" on="1"/>
        <pt x="273" y="480" on="1"/>
        <pt x="273" y="289" on="0"/>
        <pt x="386" y="131" on="0"/>
      </contour>
    </TTGlyph>
    <TTGlyph name="cacute" xMin="96" yMin="-20" xMax="874" yMax="1534">
      <component glyphName="c" x="0" y="0" flags="0x204"/>
      <component glyphName="acute" x="239" y="0" flags="0x4"/>
    </TTGlyph>
    <TTGlyph name="caron" xMin="138" yMin="1251" xMax="677" yMax="1535">
      <contour>
        <pt x="406" y="1365" on="1"/>
        <pt x="525" y="1535" on="1"/>
        <pt x="677" y="1535" on="1"/>
        <pt x="677" y="1525" on="1"/>
        <pt x="458" y="1251" on="1"/>
        <pt x="354" y="1251" on="1"/>
        <pt x="138" y="1525" on="1"/>
        <pt x="138" y="1535" on="1"/>
        <pt x="286" y="1535" on="1"/>
      </contour>
    </TTGlyph>
    <TTGlyph name="ccaron" xMin="96" yMin="-20" xMax="874" yMax="1536">
      <component glyphName="c" x="0" y="0" flags="0x204"/>
      <component glyphName="caron" x="57" y="1" flags="0x4"/>
    </TTGlyph>
    <TTGlyph name="ccedilla" xMin="96" yMin="-444" xMax="874" yMax="1102">
      <component glyphName="c" x="0" y="0" flags="0x204"/>
      <component glyphName="cedilla" x="260" y="-9" flags="0x4"/>
    </TTGlyph>
    <TTGlyph name="ccircumflex" xMin="96" yMin="-20" xMax="874" yMax="1536">
      <component glyphName="c" x="0" y="0" flags="0x204"/>
      <component glyphName="circumflex" x="37" y="0" flags="0x4"/>
    </TTGlyph>
    <TTGlyph name="cdotaccent" xMin="96" yMin="-20" xMax="874" yMax="1474">
      <component glyphName="c" x="0" y="0" flags="0x204"/>
      <component glyphName="dotaccent" x="215" y="0" flags="0x4"/>
    </TTGlyph>
    <TTGlyph name="cedilla" xMin="119" yMin="-435" xMax="386" yMax="0">
      <contour>
        <pt x="272" y="0" on="1"/>
        <pt x="262" y="-52" on="1"/>
        <pt x="322" y="-65" on="0"/>
        <pt x="386" y="-155" on="0"/>
        <pt x="386" y="-225" on="1"/>
        <pt x="386" y="-321" on="0"/>
        <pt x="253" y="-435" on="0"/>
        <pt x="129" y="-435" on="1"/>
        <pt x="123" y="-328" on="1"/>
        <pt x="251" y="-328" on="0"/>
        <pt x="251" y="-229" on="1"/>
        <pt x="251" y="-184" on="0"/>
        <pt x="198" y="-143" on="0"/>
        <pt x="119" y="-134" on="1"/>
        <pt x="147" y="0" on="1"/>
      </contour>
    </TTGlyph>
    <TTGlyph name="cent" xMin="104" yMin="-245" xMax="881" yMax="1318">
      <contour>
        <pt x="514" y="131" on="1"/>
        <pt x="592" y="131" on="0"/>
        <pt x="708" y="251" on="0"/>
        <pt x="714" y="341" on="1"/>
        <pt x="881" y="341" on="1"/>
        <pt x="875" y="216" on="0"/>
        <pt x="711" y="17" on="0"/>
        <pt x="592" y="-11" on="1"/>
        <pt x="592" y="-245" on="1"/>
        <pt x="416" y="-245" on="1"/>
        <pt x="416" y="-8" on="1"/>
        <pt x="269" y="27" on="0"/>
        <pt x="104" y="308" on="0"/>
        <pt x="104" y="525" on="1"/>
        <pt x="104" y="562" on="1"/>
        <pt x="104" y="769" on="0"/>
        <pt x="268" y="1053" on="0"/>
        <pt x="416" y="1090" on="1"/>
        <pt x="416" y="1318" on="1"/>
        <pt x="592" y="1318" on="1"/>
        <pt x="592" y="1094" on="1"/>
        <pt x="718" y="1069" on="0"/>
        <pt x="875" y="860" on="0"/>
        <pt x="881" y="710" on="1"/>
        <pt x="714" y="710" on="1"/>
        <pt x="708" y="815" on="0"/>
        <pt x="598" y="950" on="0"/>
        <pt x="514" y="950" on="1"/>
        <pt x="401" y="950" on="0"/>
        <pt x="280" y="751" on="0"/>
        <pt x="280" y="555" on="1"/>
        <pt x="280" y="520" on="1"/>
        <pt x="280" y="329" on="0"/>
        <pt x="400" y="131" on="0"/>
      </contour>
    </TTGlyph>
    <TTGlyph name="chi" xMin="52" yMin="0" xMax="842" yMax="1082">
      <component glyphName="x" x="0" y="0" flags="0x204"/>
    </TTGlyph>
    <TTGlyph name="circumflex" xMin="165" yMin="1252" xMax="689" yMax="1536">
      <contour>
        <pt x="689" y="1262" on="1"/>
        <pt x="689" y="1252" on="1"/>
        <pt x="547" y="1252" on="1"/>
        <pt x="427" y="1422" on="1"/>
        <pt x="307" y="1252" on="1"/>
        <pt x="165" y="1252" on="1"/>
        <pt x="165" y="1264" on="1"/>
        <pt x="374" y="1536" on="1"/>
        <pt x="479" y="1536" on="1"/>
      </contour>
    </TTGlyph>
    <TTGlyph name="colon" xMin="138" yMin="-11" xMax="369" yMax="1092">
      <component glyphName="period" x="-6" y="0" flags="0x4"/>
      <component glyphName="period" x="-5" y="883" flags="0x4"/>
    </TTGlyph>
    <TTGlyph name="comma" xMin="29" yMin="-290" xMax="308" yMax="219">
      <contour>
        <pt x="134" y="-290" on="1"/>
        <pt x="29" y="-218" on="1"/>
        <pt x="123" y="-87" on="0"/>
        <pt x="127" y="52" on="1"/>
        <pt x="127" y="219" on="1"/>
        <pt x="308" y="219" on="1"/>
        <pt x="308" y="74" on="1"/>
        <pt x="308" y="-27" on="0"/>
        <pt x="209" y="-229" on="0"/>
      </contour>
    </TTGlyph>
    <TTGlyph name="copyright" xMin="91" yMin="-21" xMax="1510" yMax="1476">
      <contour>
        <pt x="1119" y="597" on="1"/>
        <pt x="1119" y="444" on="0"/>
        <pt x="946" y="283" on="0"/>
        <pt x="788" y="283" on="1"/>
        <pt x="631" y="283" on="0"/>
        <pt x="442" y="494" on="0"/>
        <pt x="442" y="676" on="1"/>
        <pt x="442" y="786" on="1"/>
        <pt x="442" y="962" on="0"/>
        <pt x="633" y="1173" on="0"/>
        <pt x="788" y="1173" on="1"/>
        <pt x="948" y="1173" on="0"/>
        <pt x="1120" y="1009" on="0"/>
        <pt x="1120" y="860" on="1"/>
        <pt x="974" y="860" on="1"/>
        <pt x="974" y="959" on="0"/>
        <pt x="879" y="1044" on="0"/>
        <pt x="788" y="1044" on="1"/>
        <pt x="694" y="1044" on="0"/>
        <pt x="586" y="906" on="0"/>
        <pt x="586" y="783" on="1"/>
        <pt x="586" y="670" on="1"/>
        <pt x="586" y="550" on="0"/>
        <pt x="694" y="412" on="0"/>
        <pt x="788" y="412" on="1"/>
        <pt x="880" y="412" on="0"/>
        <pt x="973" y="496" on="0"/>
        <pt x="973" y="597" on="1"/>
      </contour>
      <contour>
        <pt x="206" y="729" on="1"/>
        <pt x="206" y="557" on="0"/>
        <pt x="366" y="264" on="0"/>
        <pt x="641" y="98" on="0"/>
        <pt x="961" y="98" on="0"/>
        <pt x="1235" y="264" on="0"/>
        <pt x="1395" y="557" on="0"/>
        <pt x="1395" y="729" on="1"/>
        <pt x="1395" y="899" on="0"/>
        <pt x="1237" y="1189" on="0"/>
        <pt x="962" y="1356" on="0"/>
        <pt x="801" y="1356" on="1"/>
        <pt x="641" y="1356" on="0"/>
        <pt x="365" y="1191" on="0"/>
        <pt x="206" y="899" on="0"/>
      </contour>
      <contour>
        <pt x="91" y="729" on="1"/>
        <pt x="91" y="931" on="0"/>
        <pt x="278" y="1277" on="0"/>
        <pt x="609" y="1476" on="0"/>
        <pt x="993" y="1476" on="0"/>
        <pt x="1323" y="1277" on="0"/>
        <pt x="1510" y="931" on="0"/>
        <pt x="1510" y="729" on="1"/>
        <pt x="1510" y="532" on="0"/>
        <pt x="1330" y="188" on="0"/>
        <pt x="999" y="-21" on="0"/>
        <pt x="801" y="-21" on="1"/>
        <pt x="604" y="-21" on="0"/>
        <pt x="273" y="186" on="0"/>
        <pt x="91" y="530" on="0"/>
      </contour>
    </TTGlyph>
    <TTGlyph name="currency" xMin="105" yMin="-27" xMax="1371" yMax="1265">
      <contour>
        <pt x="1103" y="112" on="1"/>
        <pt x="944" y="-20" on="0"/>
        <pt x="735" y="-20" on="1"/>
        <pt x="528" y="-20" on="0"/>
        <pt x="369" y="110" on="1"/>
        <pt x="235" y="-26" on="1"/>
        <pt x="105" y="109" on="1"/>
        <pt x="244" y="250" on="1"/>
        <pt x="140" y="406" on="0"/>
        <pt x="140" y="608" on="1"/>
        <pt x="140" y="814" on="0"/>
        <pt x="252" y="977" on="1"/>
        <pt x="105" y="1128" on="1"/>
        <pt x="235" y="1264" on="1"/>
        <pt x="382" y="1114" on="1"/>
        <pt x="540" y="1234" on="0"/>
        <pt x="735" y="1234" on="1"/>
        <pt x="931" y="1234" on="0"/>
        <pt x="1090" y="1113" on="1"/>
        <pt x="1239" y="1265" on="1"/>
        <pt x="1371" y="1128" on="1"/>
        <pt x="1220" y="974" on="1"/>
        <pt x="1330" y="811" on="0"/>
        <pt x="1330" y="608" on="1"/>
        <pt x="1330" y="412" on="0"/>
        <pt x="1228" y="253" on="1"/>
        <pt x="1371" y="109" on="1"/>
        <pt x="1239" y="-27" on="1"/>
      </contour>
      <contour>
        <pt x="311" y="608" on="1"/>
        <pt x="311" y="485" on="0"/>
        <pt x="426" y="273" on="0"/>
        <pt x="622" y="151" on="0"/>
        <pt x="848" y="151" on="0"/>
        <pt x="1044" y="274" on="0"/>
        <pt x="1157" y="485" on="0"/>
        <pt x="1157" y="608" on="1"/>
        <pt x="1157" y="730" on="0"/>
        <pt x="1044" y="941" on="0"/>
        <pt x="847" y="1062" on="0"/>
        <pt x="735" y="1062" on="1"/>
        <pt x="622" y="1062" on="0"/>
        <pt x="426" y="942" on="0"/>
        <pt x="311" y="730" on="0"/>
      </contour>
    </TTGlyph>
    <TTGlyph name="d" xMin="95" yMin="-20" xMax="876" yMax="1536">
      <contour>
        <pt x="95" y="590" on="1"/>
        <pt x="95" y="840" on="0"/>
        <pt x="282" y="1102" on="0"/>
        <pt x="457" y="1102" on="1"/>
        <pt x="612" y="1102" on="0"/>
        <pt x="699" y="976" on="1"/>
        <pt x="699" y="1536" on="1"/>
        <pt x="876" y="1536" on="1"/>
        <pt x="876" y="0" on="1"/>
        <pt x="714" y="0" on="1"/>
        <pt x="705" y="116" on="1"/>
        <pt x="618" y="-20" on="0"/>
        <pt x="456" y="-20" on="1"/>
        <pt x="288" y="-20" on="0"/>
        <pt x="97" y="241" on="0"/>
        <pt x="95" y="479" on="1"/>
      </contour>
      <contour>
        <pt x="272" y="489" on="1"/>
        <pt x="272" y="307" on="0"/>
        <pt x="380" y="136" on="0"/>
        <pt x="502" y="136" on="1"/>
        <pt x="634" y="136" on="0"/>
        <pt x="699" y="269" on="1"/>
        <pt x="699" y="815" on="1"/>
        <pt x="631" y="945" on="0"/>
        <pt x="503" y="945" on="1"/>
        <pt x="381" y="945" on="0"/>
        <pt x="273" y="774" on="0"/>
        <pt x="272" y="597" on="1"/>
      </contour>
    </TTGlyph>
    <TTGlyph name="dagger" xMin="80" yMin="0" xMax="911" yMax="1456">
      <contour>
        <pt x="911" y="929" on="1"/>
        <pt x="581" y="929" on="1"/>
        <pt x="581" y="0" on="1"/>
        <pt x="404" y="0" on="1"/>
        <pt x="404" y="929" on="1"/>
        <pt x="80" y="929" on="1"/>
        <pt x="80" y="1082" on="1"/>
        <pt x="404" y="1082" on="1"/>
        <pt x="404" y="1456" on="1"/>
        <pt x="581" y="1456" on="1"/>
        <pt x="581" y="1082" on="1"/>
        <pt x="911" y="1082" on="1"/>
      </contour>
    </TTGlyph>
    <TTGlyph name="daggerdbl" xMin="94" yMin="-416" xMax="925" yMax="1456">
      <contour>
        <pt x="925" y="0" on="1"/>
        <pt x="596" y="0" on="1"/>
        <pt x="596" y="-416" on="1"/>
        <pt x="418" y="-416" on="1"/>
        <pt x="418" y="0" on="1"/>
        <pt x="94" y="0" on="1"/>
        <pt x="94" y="151" on="1"/>
        <pt x="418" y="151" on="1"/>
        <pt x="418" y="929" on="1"/>
        <pt x="94" y="929" on="1"/>
        <pt x="94" y="1082" on="1"/>
        <pt x="418" y="1082" on="1"/>
        <pt x="418" y="1456" on="1"/>
        <pt x="596" y="1456" on="1"/>
        <pt x="596" y="1082" on="1"/>
        <pt x="925" y="1082" on="1"/>
        <pt x="925" y="929" on="1"/>
        <pt x="596" y="929" on="1"/>
        <pt x="596" y="151" on="1"/>
        <pt x="925" y="151" on="1"/>
      </contour>
    </TTGlyph>
    <TTGlyph name="dcaron" xMin="95" yMin="-20" xMax="1152" yMax="1538">
      <component glyphName="d" x="0" y="0" flags="0x4"/>
      <component glyphName="uniF6C3" x="833" y="1299" flags="0x4"/>
    </TTGlyph>
    <TTGlyph name="dcroat" xMin="95" yMin="-20" xMax="1038" yMax="1536">
      <contour>
        <pt x="1038" y="1234" on="1"/>
        <pt x="876" y="1234" on="1"/>
        <pt x="876" y="0" on="1"/>
        <pt x="714" y="0" on="1"/>
        <pt x="705" y="116" on="1"/>
        <pt x="618" y="-20" on="0"/>
        <pt x="456" y="-20" on="1"/>
        <pt x="288" y="-20" on="0"/>
        <pt x="97" y="241" on="0"/>
        <pt x="95" y="479" on="1"/>
        <pt x="95" y="590" on="1"/>
        <pt x="95" y="840" on="0"/>
        <pt x="282" y="1102" on="0"/>
        <pt x="457" y="1102" on="1"/>
        <pt x="612" y="1102" on="0"/>
        <pt x="699" y="976" on="1"/>
        <pt x="699" y="1234" on="1"/>
        <pt x="496" y="1234" on="1"/>
        <pt x="496" y="1385" on="1"/>
        <pt x="699" y="1385" on="1"/>
        <pt x="699" y="1536" on="1"/>
        <pt x="876" y="1536" on="1"/>
        <pt x="876" y="1385" on="1"/>
        <pt x="1038" y="1385" on="1"/>
      </contour>
      <contour>
        <pt x="272" y="489" on="1"/>
        <pt x="272" y="307" on="0"/>
        <pt x="380" y="136" on="0"/>
        <pt x="502" y="136" on="1"/>
        <pt x="634" y="136" on="0"/>
        <pt x="699" y="269" on="1"/>
        <pt x="699" y="815" on="1"/>
        <pt x="631" y="945" on="0"/>
        <pt x="503" y="945" on="1"/>
        <pt x="381" y="945" on="0"/>
        <pt x="273" y="774" on="0"/>
        <pt x="272" y="597" on="1"/>
      </contour>
    </TTGlyph>
    <TTGlyph name="degree" xMin="130" yMin="960" xMax="636" yMax="1476">
      <contour>
        <pt x="130" y="1216" on="1"/>
        <pt x="130" y="1320" on="0"/>
        <pt x="279" y="1476" on="0"/>
        <pt x="385" y="1476" on="1"/>
        <pt x="489" y="1476" on="0"/>
        <pt x="636" y="1321" on="0"/>
        <pt x="636" y="1216" on="1"/>
        <pt x="636" y="1110" on="0"/>
        <pt x="489" y="960" on="0"/>
        <pt x="385" y="960" on="1"/>
        <pt x="280" y="960" on="0"/>
        <pt x="130" y="1110" on="0"/>
      </contour>
      <contour>
        <pt x="385" y="1088" on="1"/>
        <pt x="439" y="1088" on="0"/>
        <pt x="513" y="1159" on="0"/>
        <pt x="513" y="1216" on="1"/>
        <pt x="513" y="1274" on="0"/>
        <pt x="439" y="1349" on="0"/>
        <pt x="385" y="1349" on="1"/>
        <pt x="330" y="1349" on="0"/>
        <pt x="255" y="1270" on="0"/>
        <pt x="255" y="1162" on="0"/>
        <pt x="330" y="1088" on="0"/>
      </contour>
    </TTGlyph>
    <TTGlyph name="delta" xMin="102" yMin="-20" xMax="918" yMax="1564">
      <contour>
        <pt x="207" y="1269" on="1"/>
        <pt x="207" y="1407" on="0"/>
        <pt x="379" y="1564" on="0"/>
        <pt x="528" y="1564" on="1"/>
        <pt x="640" y="1564" on="0"/>
        <pt x="752" y="1509" on="1"/>
        <pt x="753" y="1349" on="1"/>
        <pt x="704" y="1375" on="0"/>
        <pt x="573" y="1408" on="0"/>
        <pt x="524" y="1408" on="1"/>
        <pt x="458" y="1408" on="0"/>
        <pt x="385" y="1336" on="0"/>
        <pt x="385" y="1274" on="1"/>
        <pt x="385" y="1161" on="0"/>
        <pt x="742" y="1012" on="0"/>
        <pt x="914" y="744" on="0"/>
        <pt x="918" y="547" on="1"/>
        <pt x="918" y="509" on="1"/>
        <pt x="918" y="273" on="0"/>
        <pt x="697" y="-20" on="0"/>
        <pt x="511" y="-20" on="1"/>
        <pt x="323" y="-20" on="0"/>
        <pt x="102" y="273" on="0"/>
        <pt x="102" y="530" on="1"/>
        <pt x="102" y="699" on="0"/>
        <pt x="256" y="960" on="0"/>
        <pt x="375" y="994" on="1"/>
        <pt x="374" y="999" on="1"/>
        <pt x="297" y="1038" on="0"/>
        <pt x="207" y="1178" on="0"/>
      </contour>
      <contour>
        <pt x="280" y="509" on="1"/>
        <pt x="280" y="333" on="0"/>
        <pt x="403" y="130" on="0"/>
        <pt x="511" y="130" on="1"/>
        <pt x="617" y="130" on="0"/>
        <pt x="740" y="329" on="0"/>
        <pt x="740" y="530" on="1"/>
        <pt x="740" y="669" on="0"/>
        <pt x="611" y="886" on="0"/>
        <pt x="510" y="910" on="1"/>
        <pt x="405" y="910" on="0"/>
        <pt x="280" y="706" on="0"/>
      </contour>
    </TTGlyph>
    <TTGlyph name="dieresis" xMin="102" yMin="1264" xMax="751" yMax="1477">
      <contour>
        <pt x="102" y="1371" on="1"/>
        <pt x="102" y="1416" on="0"/>
        <pt x="157" y="1477" on="0"/>
        <pt x="265" y="1477" on="0"/>
        <pt x="321" y="1416" on="0"/>
        <pt x="321" y="1326" on="0"/>
        <pt x="265" y="1266" on="0"/>
        <pt x="157" y="1266" on="0"/>
        <pt x="102" y="1326" on="0"/>
      </contour>
      <contour>
        <pt x="532" y="1369" on="1"/>
        <pt x="532" y="1414" on="0"/>
        <pt x="587" y="1476" on="0"/>
        <pt x="695" y="1476" on="0"/>
        <pt x="751" y="1414" on="0"/>
        <pt x="751" y="1324" on="0"/>
        <pt x="695" y="1264" on="0"/>
        <pt x="587" y="1264" on="0"/>
        <pt x="532" y="1324" on="0"/>
      </contour>
    </TTGlyph>
    <TTGlyph name="dieresistonos" xMin="102" yMin="1264" xMax="799" yMax="1672">
      <contour>
        <pt x="426" y="1672" on="1"/>
        <pt x="602" y="1672" on="1"/>
        <pt x="508" y="1408" on="1"/>
        <pt x="382" y="1408" on="1"/>
      </contour>
      <contour>
        <pt x="202" y="1477" on="1"/>
        <pt x="253" y="1477" on="0"/>
        <pt x="303" y="1416" on="0"/>
        <pt x="303" y="1326" on="0"/>
        <pt x="253" y="1266" on="0"/>
        <pt x="202" y="1266" on="1"/>
        <pt x="152" y="1266" on="0"/>
        <pt x="102" y="1326" on="0"/>
        <pt x="102" y="1416" on="0"/>
        <pt x="152" y="1477" on="0"/>
      </contour>
      <contour>
        <pt x="598" y="1369" on="1"/>
        <pt x="598" y="1413" on="0"/>
        <pt x="648" y="1476" on="0"/>
        <pt x="748" y="1476" on="0"/>
        <pt x="799" y="1414" on="0"/>
        <pt x="799" y="1324" on="0"/>
        <pt x="748" y="1264" on="0"/>
        <pt x="698" y="1264" on="1"/>
        <pt x="647" y="1264" on="0"/>
        <pt x="598" y="1324" on="0"/>
      </contour>
    </TTGlyph>
    <TTGlyph name="divide" xMin="79" yMin="172" xMax="918" yMax="1210">
      <contour>
        <pt x="918" y="600" on="1"/>
        <pt x="79" y="600" on="1"/>
        <pt x="79" y="784" on="1"/>
        <pt x="918" y="784" on="1"/>
      </contour>
      <contour>
        <pt x="396" y="1098" on="1"/>
        <pt x="396" y="1146" on="0"/>
        <pt x="449" y="1210" on="0"/>
        <pt x="555" y="1210" on="0"/>
        <pt x="609" y="1146" on="0"/>
        <pt x="609" y="1098" on="1"/>
        <pt x="609" y="1051" on="0"/>
        <pt x="555" y="989" on="0"/>
        <pt x="449" y="989" on="0"/>
        <pt x="396" y="1051" on="0"/>
      </contour>
      <contour>
        <pt x="396" y="281" on="1"/>
        <pt x="396" y="329" on="0"/>
        <pt x="449" y="393" on="0"/>
        <pt x="555" y="393" on="0"/>
        <pt x="609" y="329" on="0"/>
        <pt x="609" y="281" on="1"/>
        <pt x="609" y="235" on="0"/>
        <pt x="555" y="172" on="0"/>
        <pt x="449" y="172" on="0"/>
        <pt x="396" y="235" on="0"/>
      </contour>
    </TTGlyph>
    <TTGlyph name="dollar" xMin="111" yMin="-208" xMax="901" yMax="1692">
      <contour>
        <pt x="724" y="375" on="1"/>
        <pt x="724" y="466" on="0"/>
        <pt x="624" y="591" on="0"/>
        <pt x="502" y="644" on="1"/>
        <pt x="323" y="709" on="0"/>
        <pt x="159" y="918" on="0"/>
        <pt x="159" y="1079" on="1"/>
        <pt x="159" y="1243" on="0"/>
        <pt x="318" y="1450" on="0"/>
        <pt x="455" y="1472" on="1"/>
        <pt x="455" y="1692" on="1"/>
        <pt x="596" y="1692" on="1"/>
        <pt x="596" y="1471" on="1"/>
        <pt x="736" y="1446" on="0"/>
        <pt x="889" y="1211" on="0"/>
        <pt x="889" y="1008" on="1"/>
        <pt x="714" y="1008" on="1"/>
        <pt x="714" y="1147" on="0"/>
        <pt x="612" y="1315" on="0"/>
        <pt x="434" y="1315" on="0"/>
        <pt x="335" y="1193" on="0"/>
        <pt x="335" y="1082" on="1"/>
        <pt x="335" y="981" on="0"/>
        <pt x="442" y="860" on="0"/>
        <pt x="563" y="809" on="1"/>
        <pt x="744" y="741" on="0"/>
        <pt x="901" y="538" on="0"/>
        <pt x="901" y="377" on="1"/>
        <pt x="901" y="213" on="0"/>
        <pt x="733" y="5" on="0"/>
        <pt x="576" y="-16" on="1"/>
        <pt x="576" y="-208" on="1"/>
        <pt x="437" y="-208" on="1"/>
        <pt x="437" y="-16" on="1"/>
        <pt x="279" y="7" on="0"/>
        <pt x="111" y="237" on="0"/>
        <pt x="111" y="429" on="1"/>
        <pt x="287" y="429" on="1"/>
        <pt x="287" y="290" on="0"/>
        <pt x="399" y="140" on="0"/>
        <pt x="501" y="140" on="1"/>
        <pt x="605" y="140" on="0"/>
        <pt x="724" y="265" on="0"/>
      </contour>
    </TTGlyph>
    <TTGlyph name="dong" xMin="95" yMin="-307" xMax="1038" yMax="1536">
      <component glyphName="d" x="0" y="0" flags="0x4"/>
      <component glyphName="glyph00472" x="350" y="583" flags="0x4"/>
      <component glyphName="underscore" x="130" y="-156" flags="0x4"/>
    </TTGlyph>
    <TTGlyph name="dotaccent" xMin="141" yMin="1262" xMax="360" yMax="1474">
      <contour>
        <pt x="141" y="1367" on="1"/>
        <pt x="141" y="1412" on="0"/>
        <pt x="196" y="1474" on="0"/>
        <pt x="304" y="1474" on="0"/>
        <pt x="360" y="1412" on="0"/>
        <pt x="360" y="1322" on="0"/>
        <pt x="304" y="1262" on="0"/>
        <pt x="196" y="1262" on="0"/>
        <pt x="141" y="1322" on="0"/>
      </contour>
    </TTGlyph>
    <TTGlyph name="dotbelowcomb" xMin="-712" yMin="-350" xMax="-493" yMax="-138">
      <contour>
        <pt x="-712" y="-245" on="1"/>
        <pt x="-712" y="-200" on="0"/>
        <pt x="-657" y="-138" on="0"/>
        <pt x="-549" y="-138" on="0"/>
        <pt x="-493" y="-200" on="0"/>
        <pt x="-493" y="-290" on="0"/>
        <pt x="-549" y="-350" on="0"/>
        <pt x="-657" y="-350" on="0"/>
        <pt x="-712" y="-290" on="0"/>
      </contour>
    </TTGlyph>
    <TTGlyph name="dotlessi" xMin="146" yMin="0" xMax="323" yMax="1082">
      <contour>
        <pt x="323" y="0" on="1"/>
        <pt x="146" y="0" on="1"/>
        <pt x="146" y="1082" on="1"/>
        <pt x="323" y="1082" on="1"/>
      </contour>
    </TTGlyph>
    <TTGlyph name="e" xMin="99" yMin="-20" xMax="879" yMax="1102">
      <contour>
        <pt x="519" y="-20" on="1"/>
        <pt x="317" y="-20" on="0"/>
        <pt x="101" y="221" on="0"/>
        <pt x="99" y="454" on="1"/>
        <pt x="99" y="585" on="1"/>
        <pt x="99" y="827" on="0"/>
        <pt x="310" y="1102" on="0"/>
        <pt x="499" y="1102" on="1"/>
        <pt x="689" y="1102" on="0"/>
        <pt x="877" y="860" on="0"/>
        <pt x="879" y="604" on="1"/>
        <pt x="879" y="488" on="1"/>
        <pt x="275" y="488" on="1"/>
        <pt x="275" y="463" on="1"/>
        <pt x="275" y="289" on="0"/>
        <pt x="406" y="131" on="0"/>
        <pt x="529" y="131" on="1"/>
        <pt x="607" y="131" on="0"/>
        <pt x="726" y="190" on="0"/>
        <pt x="778" y="254" on="1"/>
        <pt x="870" y="142" on="1"/>
        <pt x="755" y="-20" on="0"/>
      </contour>
      <contour>
        <pt x="499" y="950" on="1"/>
        <pt x="389" y="950" on="0"/>
        <pt x="283" y="799" on="0"/>
        <pt x="276" y="640" on="1"/>
        <pt x="702" y="640" on="1"/>
        <pt x="702" y="664" on="1"/>
        <pt x="695" y="818" on="0"/>
        <pt x="598" y="950" on="0"/>
      </contour>
    </TTGlyph>
    <TTGlyph name="eacute" xMin="99" yMin="-20" xMax="879" yMax="1534">
      <component glyphName="e" x="0" y="0" flags="0x204"/>
      <component glyphName="acute" x="269" y="0" flags="0x4"/>
    </TTGlyph>
    <TTGlyph name="ebreve" xMin="99" yMin="-20" xMax="879" yMax="1496">
      <component glyphName="e" x="0" y="0" flags="0x204"/>
      <component glyphName="breve" x="66" y="1" flags="0x4"/>
    </TTGlyph>
    <TTGlyph name="ecaron" xMin="99" yMin="-20" xMax="879" yMax="1536">
      <component glyphName="e" x="0" y="0" flags="0x204"/>
      <component glyphName="caron" x="87" y="1" flags="0x4"/>
    </TTGlyph>
    <TTGlyph name="ecircumflex" xMin="99" yMin="-20" xMax="879" yMax="1536">
      <component glyphName="e" x="0" y="0" flags="0x204"/>
      <component glyphName="circumflex" x="67" y="0" flags="0x4"/>
    </TTGlyph>
    <TTGlyph name="edieresis" xMin="99" yMin="-20" xMax="879" yMax="1477">
      <component glyphName="e" x="0" y="0" flags="0x204"/>
      <component glyphName="dieresis" x="71" y="0" flags="0x4"/>
    </TTGlyph>
    <TTGlyph name="edotaccent" xMin="99" yMin="-20" xMax="879" yMax="1474">
      <component glyphName="e" x="0" y="0" flags="0x204"/>
      <component glyphName="dotaccent" x="245" y="0" flags="0x4"/>
    </TTGlyph>
    <TTGlyph name="egrave" xMin="99" yMin="-20" xMax="879" yMax="1534">
      <component glyphName="e" x="0" y="0" flags="0x204"/>
      <component glyphName="grave" x="126" y="0" flags="0x4"/>
    </TTGlyph>
    <TTGlyph name="eight" xMin="116" yMin="-20" xMax="894" yMax="1476">
      <contour>
        <pt x="866" y="1076" on="1"/>
        <pt x="866" y="967" on="0"/>
        <pt x="769" y="797" on="0"/>
        <pt x="687" y="749" on="1"/>
        <pt x="784" y="699" on="0"/>
        <pt x="894" y="512" on="0"/>
        <pt x="894" y="393" on="1"/>
        <pt x="894" y="205" on="0"/>
        <pt x="681" y="-20" on="0"/>
        <pt x="329" y="-20" on="0"/>
        <pt x="116" y="205" on="0"/>
        <pt x="116" y="393" on="1"/>
        <pt x="116" y="513" on="0"/>
        <pt x="225" y="702" on="0"/>
        <pt x="319" y="750" on="1"/>
        <pt x="237" y="798" on="0"/>
        <pt x="143" y="967" on="0"/>
        <pt x="143" y="1076" on="1"/>
        <pt x="143" y="1260" on="0"/>
        <pt x="342" y="1476" on="0"/>
        <pt x="505" y="1476" on="1"/>
        <pt x="667" y="1476" on="0"/>
        <pt x="866" y="1262" on="0"/>
      </contour>
      <contour>
        <pt x="717" y="397" on="1"/>
        <pt x="717" y="522" on="0"/>
        <pt x="599" y="673" on="0"/>
        <pt x="503" y="673" on="1"/>
        <pt x="405" y="673" on="0"/>
        <pt x="292" y="521" on="0"/>
        <pt x="292" y="397" on="1"/>
        <pt x="292" y="271" on="0"/>
        <pt x="403" y="131" on="0"/>
        <pt x="607" y="131" on="0"/>
        <pt x="717" y="271" on="0"/>
      </contour>
      <contour>
        <pt x="690" y="1073" on="1"/>
        <pt x="690" y="1184" on="0"/>
        <pt x="586" y="1324" on="0"/>
        <pt x="505" y="1324" on="1"/>
        <pt x="420" y="1324" on="0"/>
        <pt x="320" y="1186" on="0"/>
        <pt x="320" y="1073" on="1"/>
        <pt x="320" y="959" on="0"/>
        <pt x="422" y="825" on="0"/>
        <pt x="505" y="825" on="1"/>
        <pt x="590" y="825" on="0"/>
        <pt x="690" y="961" on="0"/>
      </contour>
    </TTGlyph>
    <TTGlyph name="ellipsis" xMin="143" yMin="-11" xMax="1103" yMax="209">
      <component glyphName="period" x="-1" y="0" flags="0x4"/>
      <component glyphName="period" x="373" y="0" flags="0x4"/>
      <component glyphName="period" x="729" y="0" flags="0x4"/>
    </TTGlyph>
    <TTGlyph name="emacron" xMin="99" yMin="-20" xMax="879" yMax="1464">
      <component glyphName="e" x="0" y="0" flags="0x204"/>
      <component glyphName="macron" x="67" y="8" flags="0x4"/>
    </TTGlyph>
    <TTGlyph name="emdash" xMin="159" yMin="651" xMax="1281" yMax="802">
      <component glyphName="minus" x="-100" y="0" scalex="1.6" scaley="1" flags="0x4"/>
    </TTGlyph>
    <TTGlyph name="endash" xMin="161" yMin="651" xMax="1003" yMax="802">
      <component glyphName="minus" x="-33" y="0" scalex="1.2" scaley="1" flags="0x4"/>
    </TTGlyph>
    <TTGlyph name="eng" xMin="138" yMin="-437" xMax="875" yMax="1102">
      <contour>
        <pt x="296" y="1082" on="1"/>
        <pt x="308" y="937" on="1"/>
        <pt x="403" y="1102" on="0"/>
        <pt x="567" y="1102" on="1"/>
        <pt x="719" y="1102" on="0"/>
        <pt x="874" y="889" on="0"/>
        <pt x="875" y="688" on="1"/>
        <pt x="875" y="-89" on="1"/>
        <pt x="875" y="-259" on="0"/>
        <pt x="729" y="-437" on="0"/>
        <pt x="599" y="-437" on="1"/>
        <pt x="550" y="-437" on="0"/>
        <pt x="505" y="-419" on="1"/>
        <pt x="517" y="-262" on="1"/>
        <pt x="547" y="-275" on="0"/>
        <pt x="599" y="-275" on="1"/>
        <pt x="699" y="-275" on="0"/>
        <pt x="699" y="-79" on="1"/>
        <pt x="699" y="678" on="1"/>
        <pt x="699" y="818" on="0"/>
        <pt x="612" y="945" on="0"/>
        <pt x="511" y="945" on="1"/>
        <pt x="383" y="945" on="0"/>
        <pt x="315" y="827" on="1"/>
        <pt x="315" y="0" on="1"/>
        <pt x="138" y="0" on="1"/>
        <pt x="138" y="1082" on="1"/>
      </contour>
    </TTGlyph>
    <TTGlyph name="eogonek" xMin="99" yMin="-408" xMax="879" yMax="1102">
      <contour>
        <pt x="870" y="142" on="1"/>
        <pt x="796" y="39" on="0"/>
        <pt x="673" y="1" on="1"/>
        <pt x="558" y="-104" on="0"/>
        <pt x="558" y="-197" on="1"/>
        <pt x="558" y="-269" on="0"/>
        <pt x="621" y="-269" on="1"/>
        <pt x="659" y="-269" on="0"/>
        <pt x="704" y="-243" on="1"/>
        <pt x="714" y="-364" on="1"/>
        <pt x="652" y="-408" on="0"/>
        <pt x="574" y="-408" on="1"/>
        <pt x="497" y="-408" on="0"/>
        <pt x="406" y="-305" on="0"/>
        <pt x="406" y="-218" on="1"/>
        <pt x="406" y="-106" on="0"/>
        <pt x="489" y="-19" on="1"/>
        <pt x="304" y="-11" on="0"/>
        <pt x="102" y="228" on="0"/>
        <pt x="99" y="450" on="1"/>
        <pt x="99" y="585" on="1"/>
        <pt x="99" y="827" on="0"/>
        <pt x="310" y="1102" on="0"/>
        <pt x="499" y="1102" on="1"/>
        <pt x="689" y="1102" on="0"/>
        <pt x="877" y="860" on="0"/>
        <pt x="879" y="604" on="1"/>
        <pt x="879" y="488" on="1"/>
        <pt x="275" y="488" on="1"/>
        <pt x="275" y="463" on="1"/>
        <pt x="275" y="289" on="0"/>
        <pt x="406" y="131" on="0"/>
        <pt x="529" y="131" on="1"/>
        <pt x="607" y="131" on="0"/>
        <pt x="726" y="190" on="0"/>
        <pt x="778" y="254" on="1"/>
      </contour>
      <contour>
        <pt x="499" y="950" on="1"/>
        <pt x="389" y="950" on="0"/>
        <pt x="283" y="799" on="0"/>
        <pt x="276" y="640" on="1"/>
        <pt x="702" y="640" on="1"/>
        <pt x="702" y="664" on="1"/>
        <pt x="695" y="818" on="0"/>
        <pt x="598" y="950" on="0"/>
      </contour>
    </TTGlyph>
    <TTGlyph name="epsilon" xMin="100" yMin="-20" xMax="864" yMax="1101">
      <contour>
        <pt x="279" y="304" on="1"/>
        <pt x="279" y="228" on="0"/>
        <pt x="391" y="129" on="0"/>
        <pt x="483" y="129" on="1"/>
        <pt x="569" y="129" on="0"/>
        <pt x="688" y="239" on="0"/>
        <pt x="688" y="320" on="1"/>
        <pt x="864" y="320" on="1"/>
        <pt x="864" y="164" on="0"/>
        <pt x="649" y="-20" on="0"/>
        <pt x="483" y="-20" on="1"/>
        <pt x="312" y="-20" on="0"/>
        <pt x="100" y="155" on="0"/>
        <pt x="100" y="304" on="1"/>
        <pt x="100" y="490" on="0"/>
        <pt x="273" y="556" on="1"/>
        <pt x="199" y="592" on="0"/>
        <pt x="116" y="714" on="0"/>
        <pt x="116" y="787" on="1"/>
        <pt x="116" y="936" on="0"/>
        <pt x="312" y="1101" on="0"/>
        <pt x="483" y="1101" on="1"/>
        <pt x="640" y="1101" on="0"/>
        <pt x="849" y="922" on="0"/>
        <pt x="849" y="780" on="1"/>
        <pt x="673" y="780" on="1"/>
        <pt x="673" y="851" on="0"/>
        <pt x="565" y="951" on="0"/>
        <pt x="483" y="951" on="1"/>
        <pt x="395" y="951" on="0"/>
        <pt x="293" y="858" on="0"/>
        <pt x="293" y="786" on="1"/>
        <pt x="293" y="626" on="0"/>
        <pt x="478" y="626" on="1"/>
        <pt x="649" y="626" on="1"/>
        <pt x="649" y="478" on="1"/>
        <pt x="463" y="478" on="1"/>
        <pt x="279" y="475" on="0"/>
      </contour>
    </TTGlyph>
    <TTGlyph name="epsilontonos" xMin="100" yMin="-20" xMax="864" yMax="1593">
      <component glyphName="epsilon" x="0" y="0" flags="0x204"/>
      <component glyphName="tonos" x="231" y="-6" flags="0x4"/>
    </TTGlyph>
    <TTGlyph name="equal" xMin="148" yMin="399" xMax="849" yMax="975">
      <contour>
        <pt x="849" y="814" on="1"/>
        <pt x="148" y="814" on="1"/>
        <pt x="148" y="975" on="1"/>
        <pt x="849" y="975" on="1"/>
      </contour>
      <contour>
        <pt x="849" y="399" on="1"/>
        <pt x="148" y="399" on="1"/>
        <pt x="148" y="559" on="1"/>
        <pt x="849" y="559" on="1"/>
      </contour>
    </TTGlyph>
    <TTGlyph name="estimated" xMin="152" yMin="-20" xMax="1171" yMax="1102">
      <contour>
        <pt x="1046" y="94" on="1"/>
        <pt x="863" y="-20" on="0"/>
        <pt x="676" y="-20" on="1"/>
        <pt x="531" y="-20" on="0"/>
        <pt x="287" y="137" on="0"/>
        <pt x="152" y="394" on="0"/>
        <pt x="152" y="541" on="1"/>
        <pt x="152" y="684" on="0"/>
        <pt x="296" y="943" on="0"/>
        <pt x="544" y="1102" on="0"/>
        <pt x="676" y="1102" on="1"/>
        <pt x="809" y="1102" on="0"/>
        <pt x="1036" y="963" on="0"/>
        <pt x="1168" y="720" on="0"/>
        <pt x="1171" y="576" on="1"/>
        <pt x="1171" y="514" on="1"/>
        <pt x="403" y="514" on="1"/>
        <pt x="403" y="186" on="1"/>
        <pt x="522" y="76" on="0"/>
        <pt x="676" y="76" on="1"/>
        <pt x="872" y="76" on="0"/>
        <pt x="1044" y="198" on="1"/>
      </contour>
      <contour>
        <pt x="676" y="1008" on="1"/>
        <pt x="525" y="1008" on="0"/>
        <pt x="403" y="886" on="1"/>
        <pt x="403" y="609" on="1"/>
        <pt x="943" y="609" on="1"/>
        <pt x="943" y="895" on="1"/>
        <pt x="828" y="1008" on="0"/>
      </contour>
    </TTGlyph>
    <TTGlyph name="eta" xMin="137" yMin="-415" xMax="875" yMax="1102">
      <contour>
        <pt x="296" y="1082" on="1"/>
        <pt x="306" y="956" on="1"/>
        <pt x="408" y="1102" on="0"/>
        <pt x="567" y="1102" on="1"/>
        <pt x="727" y="1102" on="0"/>
        <pt x="873" y="905" on="0"/>
        <pt x="875" y="705" on="1"/>
        <pt x="875" y="-415" on="1"/>
        <pt x="699" y="-415" on="1"/>
        <pt x="699" y="691" on="1"/>
        <pt x="699" y="827" on="0"/>
        <pt x="614" y="950" on="0"/>
        <pt x="511" y="950" on="1"/>
        <pt x="377" y="950" on="0"/>
        <pt x="315" y="800" on="1"/>
        <pt x="315" y="0" on="1"/>
        <pt x="137" y="0" on="1"/>
        <pt x="137" y="1082" on="1"/>
      </contour>
    </TTGlyph>
    <TTGlyph name="etatonos" xMin="137" yMin="-415" xMax="875" yMax="1594">
      <component glyphName="eta" x="0" y="0" flags="0x204"/>
      <component glyphName="tonos" x="254" y="-5" flags="0x4"/>
    </TTGlyph>
    <TTGlyph name="eth" xMin="118" yMin="-20" xMax="922" yMax="1580">
      <contour>
        <pt x="705" y="1302" on="1"/>
        <pt x="922" y="1036" on="0"/>
        <pt x="922" y="627" on="1"/>
        <pt x="922" y="535" on="1"/>
        <pt x="922" y="376" on="0"/>
        <pt x="821" y="123" on="0"/>
        <pt x="636" y="-20" on="0"/>
        <pt x="521" y="-20" on="1"/>
        <pt x="408" y="-20" on="0"/>
        <pt x="222" y="106" on="0"/>
        <pt x="118" y="332" on="0"/>
        <pt x="118" y="467" on="1"/>
        <pt x="118" y="614" on="0"/>
        <pt x="215" y="848" on="0"/>
        <pt x="391" y="977" on="0"/>
        <pt x="498" y="977" on="1"/>
        <pt x="623" y="977" on="0"/>
        <pt x="721" y="877" on="1"/>
        <pt x="679" y="1062" on="0"/>
        <pt x="569" y="1194" on="1"/>
        <pt x="388" y="1051" on="1"/>
        <pt x="320" y="1150" on="1"/>
        <pt x="484" y="1280" on="1"/>
        <pt x="374" y="1371" on="0"/>
        <pt x="221" y="1421" on="1"/>
        <pt x="275" y="1580" on="1"/>
        <pt x="473" y="1527" on="0"/>
        <pt x="622" y="1390" on="1"/>
        <pt x="781" y="1516" on="1"/>
        <pt x="849" y="1416" on="1"/>
      </contour>
      <contour>
        <pt x="746" y="635" on="1"/>
        <pt x="744" y="695" on="1"/>
        <pt x="718" y="754" on="0"/>
        <pt x="609" y="825" on="0"/>
        <pt x="542" y="825" on="1"/>
        <pt x="428" y="825" on="0"/>
        <pt x="295" y="633" on="0"/>
        <pt x="295" y="467" on="1"/>
        <pt x="295" y="326" on="0"/>
        <pt x="425" y="131" on="0"/>
        <pt x="525" y="131" on="1"/>
        <pt x="623" y="131" on="0"/>
        <pt x="744" y="351" on="0"/>
        <pt x="746" y="525" on="1"/>
      </contour>
    </TTGlyph>
    <TTGlyph name="exclam" xMin="156" yMin="-11" xMax="358" yMax="1456">
      <contour>
        <pt x="332" y="411" on="1"/>
        <pt x="173" y="411" on="1"/>
        <pt x="160" y="1456" on="1"/>
        <pt x="346" y="1456" on="1"/>
      </contour>
      <contour>
        <pt x="257" y="199" on="1"/>
        <pt x="307" y="199" on="0"/>
        <pt x="358" y="138" on="0"/>
        <pt x="358" y="48" on="0"/>
        <pt x="307" y="-11" on="0"/>
        <pt x="257" y="-11" on="1"/>
        <pt x="206" y="-11" on="0"/>
        <pt x="156" y="48" on="0"/>
        <pt x="156" y="138" on="0"/>
        <pt x="206" y="199" on="0"/>
      </contour>
    </TTGlyph>
    <TTGlyph name="exclamdbl" xMin="156" yMin="-11" xMax="861" yMax="1456">
      <component glyphName="exclam" x="0" y="0" flags="0x4"/>
      <component glyphName="exclam" x="503" y="0" flags="0x4"/>
    </TTGlyph>
    <TTGlyph name="exclamdown" xMin="136" yMin="-360" xMax="338" yMax="1101">
      <contour>
        <pt x="161" y="684" on="1"/>
        <pt x="321" y="684" on="1"/>
        <pt x="334" y="-360" on="1"/>
        <pt x="148" y="-360" on="1"/>
      </contour>
      <contour>
        <pt x="237" y="889" on="1"/>
        <pt x="186" y="889" on="0"/>
        <pt x="136" y="951" on="0"/>
        <pt x="136" y="1041" on="0"/>
        <pt x="186" y="1101" on="0"/>
        <pt x="237" y="1101" on="1"/>
        <pt x="287" y="1101" on="0"/>
        <pt x="338" y="1041" on="0"/>
        <pt x="338" y="951" on="0"/>
        <pt x="287" y="889" on="0"/>
      </contour>
    </TTGlyph>
    <TTGlyph name="f" xMin="69" yMin="0" xMax="628" yMax="1557">
      <contour>
        <pt x="210" y="0" on="1"/>
        <pt x="210" y="939" on="1"/>
        <pt x="69" y="939" on="1"/>
        <pt x="69" y="1082" on="1"/>
        <pt x="210" y="1082" on="1"/>
        <pt x="210" y="1207" on="1"/>
        <pt x="213" y="1372" on="0"/>
        <pt x="374" y="1557" on="0"/>
        <pt x="521" y="1557" on="1"/>
        <pt x="574" y="1557" on="0"/>
        <pt x="628" y="1540" on="1"/>
        <pt x="619" y="1390" on="1"/>
        <pt x="581" y="1399" on="0"/>
        <pt x="538" y="1399" on="1"/>
        <pt x="387" y="1399" on="0"/>
        <pt x="387" y="1184" on="1"/>
        <pt x="387" y="1082" on="1"/>
        <pt x="572" y="1082" on="1"/>
        <pt x="572" y="939" on="1"/>
        <pt x="387" y="939" on="1"/>
        <pt x="387" y="0" on="1"/>
      </contour>
    </TTGlyph>
    <TTGlyph name="five" xMin="145" yMin="-20" xMax="925" yMax="1456">
      <contour>
        <pt x="189" y="730" on="1"/>
        <pt x="252" y="1456" on="1"/>
        <pt x="885" y="1456" on="1"/>
        <pt x="885" y="1285" on="1"/>
        <pt x="401" y="1285" on="1"/>
        <pt x="367" y="888" on="1"/>
        <pt x="457" y="951" on="0"/>
        <pt x="561" y="951" on="1"/>
        <pt x="731" y="951" on="0"/>
        <pt x="925" y="687" on="0"/>
        <pt x="925" y="464" on="1"/>
        <pt x="925" y="238" on="0"/>
        <pt x="714" y="-20" on="0"/>
        <pt x="530" y="-20" on="1"/>
        <pt x="366" y="-20" on="0"/>
        <pt x="160" y="194" on="0"/>
        <pt x="145" y="383" on="1"/>
        <pt x="311" y="383" on="1"/>
        <pt x="326" y="258" on="0"/>
        <pt x="439" y="131" on="0"/>
        <pt x="530" y="131" on="1"/>
        <pt x="633" y="131" on="0"/>
        <pt x="749" y="310" on="0"/>
        <pt x="749" y="462" on="1"/>
        <pt x="749" y="605" on="0"/>
        <pt x="624" y="785" on="0"/>
        <pt x="518" y="785" on="1"/>
        <pt x="430" y="785" on="0"/>
        <pt x="377" y="739" on="1"/>
        <pt x="330" y="692" on="1"/>
      </contour>
    </TTGlyph>
    <TTGlyph name="fiveeighths" xMin="96" yMin="-11" xMax="1379" yMax="1444">
      <component glyphName="glyph00433" x="5" y="655" flags="0x4"/>
      <component glyphName="fraction" x="325" y="0" flags="0x4"/>
      <component glyphName="glyph00430" x="792" y="0" flags="0x4"/>
    </TTGlyph>
    <TTGlyph name="florin" xMin="5" yMin="-437" xMax="614" yMax="1557">
      <contour>
        <pt x="533" y="939" on="1"/>
        <pt x="376" y="939" on="1"/>
        <pt x="376" y="-89" on="1"/>
        <pt x="376" y="-258" on="0"/>
        <pt x="229" y="-437" on="0"/>
        <pt x="99" y="-437" on="1"/>
        <pt x="48" y="-437" on="0"/>
        <pt x="5" y="-419" on="1"/>
        <pt x="17" y="-272" on="1"/>
        <pt x="32" y="-279" on="0"/>
        <pt x="83" y="-284" on="1"/>
        <pt x="99" y="-285" on="1"/>
        <pt x="199" y="-285" on="0"/>
        <pt x="199" y="-73" on="1"/>
        <pt x="199" y="939" on="1"/>
        <pt x="58" y="939" on="1"/>
        <pt x="58" y="1082" on="1"/>
        <pt x="199" y="1082" on="1"/>
        <pt x="199" y="1201" on="1"/>
        <pt x="200" y="1374" on="0"/>
        <pt x="355" y="1557" on="0"/>
        <pt x="491" y="1557" on="1"/>
        <pt x="539" y="1557" on="0"/>
        <pt x="614" y="1536" on="1"/>
        <pt x="593" y="1389" on="1"/>
        <pt x="565" y="1399" on="0"/>
        <pt x="514" y="1399" on="1"/>
        <pt x="378" y="1399" on="0"/>
        <pt x="376" y="1203" on="1"/>
        <pt x="376" y="1082" on="1"/>
        <pt x="533" y="1082" on="1"/>
      </contour>
    </TTGlyph>
    <TTGlyph name="four" xMin="60" yMin="0" xMax="949" yMax="1456">
      <contour>
        <pt x="787" y="489" on="1"/>
        <pt x="949" y="489" on="1"/>
        <pt x="949" y="338" on="1"/>
        <pt x="787" y="338" on="1"/>
        <pt x="787" y="0" on="1"/>
        <pt x="610" y="0" on="1"/>
        <pt x="610" y="338" on="1"/>
        <pt x="60" y="338" on="1"/>
        <pt x="60" y="447" on="1"/>
        <pt x="601" y="1456" on="1"/>
        <pt x="787" y="1456" on="1"/>
      </contour>
      <contour>
        <pt x="256" y="489" on="1"/>
        <pt x="610" y="489" on="1"/>
        <pt x="610" y="1181" on="1"/>
      </contour>
    </TTGlyph>
    <TTGlyph name="fraction" xMin="69" yMin="110" xMax="763" yMax="1314">
      <contour>
        <pt x="165" y="110" on="1"/>
        <pt x="69" y="176" on="1"/>
        <pt x="666" y="1314" on="1"/>
        <pt x="763" y="1248" on="1"/>
      </contour>
    </TTGlyph>
    <TTGlyph name="franc" xMin="33" yMin="0" xMax="915" yMax="1456">
      <component glyphName="F" x="0" y="0" flags="0x204"/>
      <component glyphName="glyph00472" x="-113" y="-385" flags="0x4"/>
    </TTGlyph>
    <TTGlyph name="g" xMin="97" yMin="-426" xMax="878" yMax="1102">
      <contour>
        <pt x="97" y="590" on="1"/>
        <pt x="97" y="843" on="0"/>
        <pt x="281" y="1102" on="0"/>
        <pt x="458" y="1102" on="1"/>
        <pt x="623" y="1102" on="0"/>
        <pt x="709" y="961" on="1"/>
        <pt x="718" y="1082" on="1"/>
        <pt x="878" y="1082" on="1"/>
        <pt x="878" y="-10" on="1"/>
        <pt x="878" y="-211" on="0"/>
        <pt x="672" y="-426" on="0"/>
        <pt x="488" y="-426" on="1"/>
        <pt x="408" y="-426" on="0"/>
        <pt x="209" y="-347" on="0"/>
        <pt x="159" y="-289" on="1"/>
        <pt x="231" y="-167" on="1"/>
        <pt x="341" y="-275" on="0"/>
        <pt x="474" y="-275" on="1"/>
        <pt x="695" y="-275" on="0"/>
        <pt x="701" y="-34" on="1"/>
        <pt x="701" y="107" on="1"/>
        <pt x="615" y="-20" on="0"/>
        <pt x="457" y="-20" on="1"/>
        <pt x="289" y="-20" on="0"/>
        <pt x="101" y="233" on="0"/>
        <pt x="97" y="470" on="1"/>
      </contour>
      <contour>
        <pt x="274" y="489" on="1"/>
        <pt x="274" y="307" on="0"/>
        <pt x="381" y="136" on="0"/>
        <pt x="503" y="136" on="1"/>
        <pt x="635" y="136" on="0"/>
        <pt x="701" y="271" on="1"/>
        <pt x="701" y="812" on="1"/>
        <pt x="632" y="945" on="0"/>
        <pt x="505" y="945" on="1"/>
        <pt x="383" y="945" on="0"/>
        <pt x="275" y="774" on="0"/>
        <pt x="274" y="597" on="1"/>
      </contour>
    </TTGlyph>
    <TTGlyph name="gamma" xMin="59" yMin="-416" xMax="861" yMax="1082">
      <contour>
        <pt x="464" y="311" on="1"/>
        <pt x="682" y="1082" on="1"/>
        <pt x="861" y="1082" on="1"/>
        <pt x="549" y="65" on="1"/>
        <pt x="549" y="-416" on="1"/>
        <pt x="372" y="-416" on="1"/>
        <pt x="372" y="77" on="1"/>
        <pt x="59" y="1082" on="1"/>
        <pt x="239" y="1082" on="1"/>
      </contour>
    </TTGlyph>
    <TTGlyph name="gbreve" xMin="97" yMin="-426" xMax="878" yMax="1496">
      <component glyphName="g" x="0" y="0" flags="0x204"/>
      <component glyphName="breve" x="57" y="1" flags="0x4"/>
    </TTGlyph>
    <TTGlyph name="gcircumflex" xMin="97" yMin="-426" xMax="878" yMax="1536">
      <component glyphName="g" x="0" y="0" flags="0x204"/>
      <component glyphName="circumflex" x="58" y="0" flags="0x4"/>
    </TTGlyph>
    <TTGlyph name="gdotaccent" xMin="97" yMin="-426" xMax="878" yMax="1474">
      <component glyphName="g" x="0" y="0" flags="0x204"/>
      <component glyphName="dotaccent" x="236" y="0" flags="0x4"/>
    </TTGlyph>
    <TTGlyph name="germandbls" xMin="133" yMin="-20" xMax="980" yMax="1554">
      <contour>
        <pt x="309" y="0" on="1"/>
        <pt x="133" y="0" on="1"/>
        <pt x="133" y="1111" on="1"/>
        <pt x="133" y="1320" on="0"/>
        <pt x="315" y="1554" on="0"/>
        <pt x="473" y="1554" on="1"/>
        <pt x="629" y="1554" on="0"/>
        <pt x="800" y="1378" on="0"/>
        <pt x="800" y="1216" on="1"/>
        <pt x="800" y="1091" on="0"/>
        <pt x="691" y="888" on="0"/>
        <pt x="691" y="819" on="1"/>
        <pt x="691" y="767" on="0"/>
        <pt x="753" y="673" on="0"/>
        <pt x="910" y="527" on="0"/>
        <pt x="980" y="393" on="0"/>
        <pt x="980" y="317" on="1"/>
        <pt x="980" y="152" on="0"/>
        <pt x="809" y="-20" on="0"/>
        <pt x="654" y="-20" on="1"/>
        <pt x="588" y="-20" on="0"/>
        <pt x="437" y="23" on="0"/>
        <pt x="404" y="52" on="1"/>
        <pt x="443" y="207" on="1"/>
        <pt x="476" y="179" on="0"/>
        <pt x="590" y="131" on="0"/>
        <pt x="635" y="131" on="1"/>
        <pt x="804" y="131" on="0"/>
        <pt x="804" y="307" on="1"/>
        <pt x="804" y="360" on="0"/>
        <pt x="741" y="458" on="0"/>
        <pt x="588" y="599" on="0"/>
        <pt x="514" y="740" on="0"/>
        <pt x="514" y="821" on="1"/>
        <pt x="514" y="881" on="0"/>
        <pt x="552" y="972" on="0"/>
        <pt x="597" y="1055" on="0"/>
        <pt x="635" y="1144" on="0"/>
        <pt x="635" y="1201" on="1"/>
        <pt x="635" y="1301" on="0"/>
        <pt x="549" y="1402" on="0"/>
        <pt x="482" y="1402" on="1"/>
        <pt x="312" y="1402" on="0"/>
        <pt x="309" y="1120" on="1"/>
      </contour>
    </TTGlyph>
    <TTGlyph name="glyph00346" xMin="118" yMin="1136" xMax="652" yMax="1494">
      <contour>
        <pt x="373" y="1172" on="1"/>
        <pt x="465" y="1494" on="1"/>
        <pt x="652" y="1494" on="1"/>
        <pt x="652" y="1473" on="1"/>
        <pt x="454" y="1156" on="1"/>
        <pt x="373" y="1156" on="1"/>
      </contour>
      <contour>
        <pt x="118" y="1494" on="1"/>
        <pt x="277" y="1494" on="1"/>
        <pt x="277" y="1399" on="1"/>
        <pt x="280" y="1280" on="0"/>
        <pt x="343" y="1195" on="1"/>
        <pt x="274" y="1136" on="1"/>
        <pt x="118" y="1232" on="0"/>
        <pt x="118" y="1417" on="1"/>
      </contour>
    </TTGlyph>
    <TTGlyph name="glyph00419" xMin="69" yMin="0" xMax="1100" yMax="1557">
      <component glyphName="f" x="0" y="0" flags="0x4"/>
      <component glyphName="f" x="472" y="0" flags="0x4"/>
    </TTGlyph>
    <TTGlyph name="glyph00424" xMin="69" yMin="-20" xMax="1025" yMax="1557">
      <contour>
        <pt x="685" y="1369" on="1"/>
        <pt x="656" y="1386" on="0"/>
        <pt x="564" y="1405" on="0"/>
        <pt x="533" y="1405" on="1"/>
        <pt x="387" y="1405" on="0"/>
        <pt x="387" y="1184" on="1"/>
        <pt x="387" y="0" on="1"/>
        <pt x="210" y="0" on="1"/>
        <pt x="210" y="939" on="1"/>
        <pt x="69" y="939" on="1"/>
        <pt x="69" y="1082" on="1"/>
        <pt x="210" y="1082" on="1"/>
        <pt x="210" y="1203" on="1"/>
        <pt x="212" y="1370" on="0"/>
        <pt x="366" y="1557" on="0"/>
        <pt x="504" y="1557" on="1"/>
        <pt x="585" y="1557" on="0"/>
        <pt x="785" y="1498" on="0"/>
        <pt x="862" y="1456" on="1"/>
        <pt x="862" y="1082" on="1"/>
        <pt x="1025" y="1082" on="1"/>
        <pt x="1025" y="939" on="1"/>
        <pt x="862" y="939" on="1"/>
        <pt x="862" y="268" on="1"/>
        <pt x="862" y="205" on="0"/>
        <pt x="903" y="138" on="0"/>
        <pt x="955" y="138" on="1"/>
        <pt x="993" y="138" on="0"/>
        <pt x="1025" y="150" on="1"/>
        <pt x="1024" y="0" on="1"/>
        <pt x="964" y="-20" on="0"/>
        <pt x="900" y="-20" on="1"/>
        <pt x="795" y="-20" on="0"/>
        <pt x="685" y="130" on="0"/>
        <pt x="685" y="267" on="1"/>
        <pt x="685" y="939" on="1"/>
        <pt x="520" y="939" on="1"/>
        <pt x="520" y="1082" on="1"/>
        <pt x="685" y="1082" on="1"/>
      </contour>
    </TTGlyph>
    <TTGlyph name="glyph00425" xMin="98" yMin="-20" xMax="1377" yMax="1553">
      <contour>
        <pt x="1037" y="1167" on="1"/>
        <pt x="1037" y="1281" on="0"/>
        <pt x="954" y="1398" on="0"/>
        <pt x="877" y="1398" on="1"/>
        <pt x="803" y="1398" on="0"/>
        <pt x="730" y="1310" on="0"/>
        <pt x="730" y="1240" on="1"/>
        <pt x="730" y="1180" on="0"/>
        <pt x="745" y="1127" on="1"/>
        <pt x="793" y="970" on="1"/>
        <pt x="820" y="874" on="0"/>
        <pt x="822" y="788" on="1"/>
        <pt x="822" y="774" on="1"/>
        <pt x="645" y="774" on="1"/>
        <pt x="645" y="846" on="0"/>
        <pt x="549" y="950" on="0"/>
        <pt x="471" y="950" on="1"/>
        <pt x="394" y="950" on="0"/>
        <pt x="305" y="871" on="0"/>
        <pt x="305" y="801" on="1"/>
        <pt x="305" y="747" on="0"/>
        <pt x="370" y="681" on="0"/>
        <pt x="494" y="627" on="1"/>
        <pt x="692" y="550" on="0"/>
        <pt x="832" y="401" on="0"/>
        <pt x="832" y="290" on="1"/>
        <pt x="832" y="150" on="0"/>
        <pt x="640" y="-20" on="0"/>
        <pt x="476" y="-20" on="1"/>
        <pt x="308" y="-20" on="0"/>
        <pt x="98" y="174" on="0"/>
        <pt x="98" y="323" on="1"/>
        <pt x="274" y="323" on="1"/>
        <pt x="279" y="231" on="0"/>
        <pt x="383" y="131" on="0"/>
        <pt x="476" y="131" on="1"/>
        <pt x="564" y="131" on="0"/>
        <pt x="656" y="210" on="0"/>
        <pt x="656" y="277" on="1"/>
        <pt x="656" y="333" on="0"/>
        <pt x="574" y="414" on="0"/>
        <pt x="447" y="471" on="1"/>
        <pt x="306" y="529" on="0"/>
        <pt x="185" y="616" on="0"/>
        <pt x="129" y="722" on="0"/>
        <pt x="129" y="795" on="1"/>
        <pt x="129" y="927" on="0"/>
        <pt x="321" y="1102" on="0"/>
        <pt x="471" y="1102" on="1"/>
        <pt x="541" y="1102" on="0"/>
        <pt x="603" y="1082" on="1"/>
        <pt x="561" y="1184" on="0"/>
        <pt x="561" y="1264" on="1"/>
        <pt x="561" y="1389" on="0"/>
        <pt x="739" y="1553" on="0"/>
        <pt x="876" y="1553" on="1"/>
        <pt x="1040" y="1553" on="0"/>
        <pt x="1214" y="1356" on="0"/>
        <pt x="1214" y="1159" on="1"/>
        <pt x="1214" y="1082" on="1"/>
        <pt x="1377" y="1082" on="1"/>
        <pt x="1377" y="939" on="1"/>
        <pt x="1214" y="939" on="1"/>
        <pt x="1214" y="268" on="1"/>
        <pt x="1214" y="205" on="0"/>
        <pt x="1255" y="138" on="0"/>
        <pt x="1307" y="138" on="1"/>
        <pt x="1345" y="138" on="0"/>
        <pt x="1377" y="150" on="1"/>
        <pt x="1377" y="0" on="1"/>
        <pt x="1314" y="-20" on="0"/>
        <pt x="1252" y="-20" on="1"/>
        <pt x="1147" y="-20" on="0"/>
        <pt x="1037" y="130" on="0"/>
        <pt x="1037" y="267" on="1"/>
        <pt x="1037" y="939" on="1"/>
        <pt x="872" y="939" on="1"/>
        <pt x="872" y="1082" on="1"/>
        <pt x="1037" y="1082" on="1"/>
      </contour>
    </TTGlyph>
    <TTGlyph name="glyph00429" xMin="85" yMin="653" xMax="588" yMax="1464">
      <component glyphName="glyph00438" x="0" y="664" flags="0x204"/>
    </TTGlyph>
    <TTGlyph name="glyph00430" xMin="86" yMin="-11" xMax="587" yMax="800">
      <contour>
        <pt x="571" y="579" on="1"/>
        <pt x="571" y="461" on="0"/>
        <pt x="470" y="406" on="1"/>
        <pt x="524" y="379" on="0"/>
        <pt x="587" y="282" on="0"/>
        <pt x="587" y="216" on="1"/>
        <pt x="587" y="110" on="0"/>
        <pt x="453" y="-11" on="0"/>
        <pt x="221" y="-11" on="0"/>
        <pt x="86" y="110" on="0"/>
        <pt x="86" y="216" on="1"/>
        <pt x="86" y="348" on="0"/>
        <pt x="202" y="406" on="1"/>
        <pt x="101" y="461" on="0"/>
        <pt x="101" y="579" on="1"/>
        <pt x="101" y="681" on="0"/>
        <pt x="228" y="800" on="0"/>
        <pt x="444" y="800" on="0"/>
        <pt x="571" y="681" on="0"/>
      </contour>
      <contour>
        <pt x="439" y="228" on="1"/>
        <pt x="439" y="280" on="0"/>
        <pt x="382" y="338" on="0"/>
        <pt x="336" y="338" on="1"/>
        <pt x="289" y="338" on="0"/>
        <pt x="235" y="280" on="0"/>
        <pt x="235" y="228" on="1"/>
        <pt x="235" y="175" on="0"/>
        <pt x="289" y="117" on="0"/>
        <pt x="337" y="117" on="1"/>
        <pt x="384" y="117" on="0"/>
        <pt x="439" y="175" on="0"/>
      </contour>
      <contour>
        <pt x="336" y="671" on="1"/>
        <pt x="251" y="671" on="0"/>
        <pt x="251" y="570" on="1"/>
        <pt x="251" y="524" on="0"/>
        <pt x="295" y="468" on="0"/>
        <pt x="379" y="468" on="0"/>
        <pt x="423" y="524" on="0"/>
        <pt x="423" y="616" on="0"/>
        <pt x="378" y="671" on="0"/>
      </contour>
    </TTGlyph>
    <TTGlyph name="glyph00431" xMin="67" yMin="0" xMax="594" yMax="789">
      <contour>
        <pt x="594" y="699" on="1"/>
        <pt x="307" y="0" on="1"/>
        <pt x="150" y="0" on="1"/>
        <pt x="438" y="659" on="1"/>
        <pt x="67" y="659" on="1"/>
        <pt x="67" y="789" on="1"/>
        <pt x="594" y="789" on="1"/>
      </contour>
    </TTGlyph>
    <TTGlyph name="glyph00432" xMin="89" yMin="-11" xMax="600" yMax="798">
      <contour>
        <pt x="487" y="798" on="1"/>
        <pt x="487" y="667" on="1"/>
        <pt x="366" y="667" on="0"/>
        <pt x="249" y="561" on="0"/>
        <pt x="238" y="451" on="1"/>
        <pt x="298" y="523" on="0"/>
        <pt x="388" y="523" on="1"/>
        <pt x="486" y="523" on="0"/>
        <pt x="600" y="381" on="0"/>
        <pt x="600" y="259" on="1"/>
        <pt x="600" y="141" on="0"/>
        <pt x="462" y="-11" on="0"/>
        <pt x="350" y="-11" on="1"/>
        <pt x="231" y="-11" on="0"/>
        <pt x="91" y="153" on="0"/>
        <pt x="89" y="295" on="1"/>
        <pt x="89" y="357" on="1"/>
        <pt x="89" y="569" on="0"/>
        <pt x="283" y="798" on="0"/>
        <pt x="468" y="798" on="1"/>
      </contour>
      <contour>
        <pt x="347" y="396" on="1"/>
        <pt x="307" y="396" on="0"/>
        <pt x="249" y="353" on="0"/>
        <pt x="236" y="322" on="1"/>
        <pt x="236" y="286" on="1"/>
        <pt x="236" y="201" on="0"/>
        <pt x="298" y="117" on="0"/>
        <pt x="346" y="117" on="1"/>
        <pt x="392" y="117" on="0"/>
        <pt x="453" y="195" on="0"/>
        <pt x="453" y="258" on="1"/>
        <pt x="453" y="320" on="0"/>
        <pt x="398" y="396" on="0"/>
      </contour>
    </TTGlyph>
    <TTGlyph name="glyph00433" xMin="91" yMin="-11" xMax="595" yMax="789">
      <contour>
        <pt x="109" y="387" on="1"/>
        <pt x="151" y="789" on="1"/>
        <pt x="558" y="789" on="1"/>
        <pt x="558" y="657" on="1"/>
        <pt x="273" y="657" on="1"/>
        <pt x="257" y="487" on="1"/>
        <pt x="308" y="516" on="0"/>
        <pt x="367" y="516" on="1"/>
        <pt x="476" y="516" on="0"/>
        <pt x="595" y="379" on="0"/>
        <pt x="595" y="137" on="0"/>
        <pt x="459" y="-11" on="0"/>
        <pt x="344" y="-11" on="1"/>
        <pt x="239" y="-11" on="0"/>
        <pt x="95" y="114" on="0"/>
        <pt x="91" y="216" on="1"/>
        <pt x="237" y="216" on="1"/>
        <pt x="247" y="117" on="0"/>
        <pt x="344" y="117" on="1"/>
        <pt x="392" y="117" on="0"/>
        <pt x="446" y="189" on="0"/>
        <pt x="446" y="260" on="1"/>
        <pt x="446" y="322" on="0"/>
        <pt x="387" y="399" on="0"/>
        <pt x="330" y="399" on="1"/>
        <pt x="271" y="399" on="0"/>
        <pt x="228" y="356" on="1"/>
      </contour>
    </TTGlyph>
    <TTGlyph name="glyph00434" xMin="64" yMin="0" xMax="609" yMax="789">
      <contour>
        <pt x="525" y="299" on="1"/>
        <pt x="609" y="299" on="1"/>
        <pt x="609" y="169" on="1"/>
        <pt x="525" y="169" on="1"/>
        <pt x="525" y="0" on="1"/>
        <pt x="377" y="0" on="1"/>
        <pt x="377" y="169" on="1"/>
        <pt x="69" y="169" on="1"/>
        <pt x="64" y="271" on="1"/>
        <pt x="374" y="789" on="1"/>
        <pt x="525" y="789" on="1"/>
      </contour>
      <contour>
        <pt x="210" y="299" on="1"/>
        <pt x="377" y="299" on="1"/>
        <pt x="377" y="578" on="1"/>
        <pt x="367" y="560" on="1"/>
      </contour>
    </TTGlyph>
    <TTGlyph name="glyph00435" xMin="69" yMin="-11" xMax="584" yMax="800">
      <contour>
        <pt x="242" y="459" on="1"/>
        <pt x="308" y="459" on="1"/>
        <pt x="425" y="459" on="0"/>
        <pt x="425" y="568" on="1"/>
        <pt x="425" y="612" on="0"/>
        <pt x="377" y="671" on="0"/>
        <pt x="324" y="671" on="1"/>
        <pt x="282" y="671" on="0"/>
        <pt x="226" y="622" on="0"/>
        <pt x="226" y="579" on="1"/>
        <pt x="77" y="579" on="1"/>
        <pt x="77" y="676" on="0"/>
        <pt x="215" y="800" on="0"/>
        <pt x="322" y="800" on="1"/>
        <pt x="440" y="800" on="0"/>
        <pt x="574" y="679" on="0"/>
        <pt x="574" y="575" on="1"/>
        <pt x="574" y="520" on="0"/>
        <pt x="515" y="429" on="0"/>
        <pt x="459" y="404" on="1"/>
        <pt x="584" y="364" on="0"/>
        <pt x="584" y="220" on="1"/>
        <pt x="584" y="112" on="0"/>
        <pt x="436" y="-11" on="0"/>
        <pt x="321" y="-11" on="1"/>
        <pt x="207" y="-11" on="0"/>
        <pt x="69" y="116" on="0"/>
        <pt x="69" y="222" on="1"/>
        <pt x="219" y="222" on="1"/>
        <pt x="219" y="177" on="0"/>
        <pt x="276" y="117" on="0"/>
        <pt x="327" y="117" on="1"/>
        <pt x="381" y="117" on="0"/>
        <pt x="436" y="177" on="0"/>
        <pt x="436" y="228" on="1"/>
        <pt x="436" y="342" on="0"/>
        <pt x="317" y="343" on="1"/>
        <pt x="242" y="343" on="1"/>
      </contour>
    </TTGlyph>
    <TTGlyph name="glyph00436" xMin="72" yMin="0" xMax="599" yMax="800">
      <contour>
        <pt x="599" y="0" on="1"/>
        <pt x="87" y="0" on="1"/>
        <pt x="87" y="108" on="1"/>
        <pt x="343" y="396" on="1"/>
        <pt x="425" y="493" on="0"/>
        <pt x="425" y="561" on="1"/>
        <pt x="425" y="610" on="0"/>
        <pt x="377" y="671" on="0"/>
        <pt x="332" y="671" on="1"/>
        <pt x="274" y="671" on="0"/>
        <pt x="221" y="595" on="0"/>
        <pt x="221" y="538" on="1"/>
        <pt x="72" y="538" on="1"/>
        <pt x="72" y="652" on="0"/>
        <pt x="215" y="800" on="0"/>
        <pt x="328" y="800" on="1"/>
        <pt x="444" y="800" on="0"/>
        <pt x="574" y="673" on="0"/>
        <pt x="574" y="563" on="1"/>
        <pt x="574" y="456" on="0"/>
        <pt x="477" y="344" on="1"/>
        <pt x="276" y="128" on="1"/>
        <pt x="599" y="128" on="1"/>
      </contour>
    </TTGlyph>
    <TTGlyph name="glyph00437" xMin="121" yMin="0" xMax="446" yMax="789">
      <contour>
        <pt x="446" y="0" on="1"/>
        <pt x="297" y="0" on="1"/>
        <pt x="297" y="601" on="1"/>
        <pt x="121" y="544" on="1"/>
        <pt x="121" y="672" on="1"/>
        <pt x="429" y="789" on="1"/>
        <pt x="446" y="789" on="1"/>
      </contour>
    </TTGlyph>
    <TTGlyph name="glyph00438" xMin="85" yMin="-11" xMax="588" yMax="800">
      <contour>
        <pt x="588" y="325" on="1"/>
        <pt x="588" y="162" on="0"/>
        <pt x="456" y="-11" on="0"/>
        <pt x="220" y="-11" on="0"/>
        <pt x="86" y="161" on="0"/>
        <pt x="85" y="320" on="1"/>
        <pt x="85" y="463" on="1"/>
        <pt x="85" y="622" on="0"/>
        <pt x="216" y="800" on="0"/>
        <pt x="336" y="800" on="1"/>
        <pt x="455" y="800" on="0"/>
        <pt x="586" y="627" on="0"/>
        <pt x="588" y="472" on="1"/>
      </contour>
      <contour>
        <pt x="439" y="478" on="1"/>
        <pt x="439" y="670" on="0"/>
        <pt x="233" y="670" on="0"/>
        <pt x="233" y="475" on="1"/>
        <pt x="233" y="311" on="1"/>
        <pt x="233" y="117" on="0"/>
        <pt x="338" y="117" on="1"/>
        <pt x="436" y="117" on="0"/>
        <pt x="439" y="300" on="1"/>
      </contour>
    </TTGlyph>
    <TTGlyph name="glyph00439" xMin="78" yMin="0" xMax="856" yMax="1165">
      <contour>
        <pt x="285" y="151" on="1"/>
        <pt x="856" y="151" on="1"/>
        <pt x="856" y="0" on="1"/>
        <pt x="78" y="0" on="1"/>
        <pt x="78" y="124" on="1"/>
        <pt x="630" y="1012" on="1"/>
        <pt x="82" y="1012" on="1"/>
        <pt x="82" y="1165" on="1"/>
        <pt x="837" y="1165" on="1"/>
        <pt x="837" y="1044" on="1"/>
      </contour>
    </TTGlyph>
    <TTGlyph name="glyph00440" xMin="28" yMin="0" xMax="909" yMax="1165">
      <contour>
        <pt x="468" y="616" on="1"/>
        <pt x="711" y="1165" on="1"/>
        <pt x="909" y="1165" on="1"/>
        <pt x="554" y="410" on="1"/>
        <pt x="554" y="0" on="1"/>
        <pt x="377" y="0" on="1"/>
        <pt x="377" y="422" on="1"/>
        <pt x="28" y="1165" on="1"/>
        <pt x="226" y="1165" on="1"/>
      </contour>
    </TTGlyph>
    <TTGlyph name="glyph00441" xMin="51" yMin="0" xMax="932" yMax="1165">
      <contour>
        <pt x="488" y="730" on="1"/>
        <pt x="711" y="1165" on="1"/>
        <pt x="920" y="1165" on="1"/>
        <pt x="594" y="587" on="1"/>
        <pt x="932" y="0" on="1"/>
        <pt x="722" y="0" on="1"/>
        <pt x="490" y="443" on="1"/>
        <pt x="260" y="0" on="1"/>
        <pt x="51" y="0" on="1"/>
        <pt x="385" y="587" on="1"/>
        <pt x="57" y="1165" on="1"/>
        <pt x="265" y="1165" on="1"/>
      </contour>
    </TTGlyph>
    <TTGlyph name="glyph00442" xMin="61" yMin="0" xMax="1295" yMax="1165">
      <contour>
        <pt x="392" y="294" on="1"/>
        <pt x="396" y="252" on="1"/>
        <pt x="401" y="278" on="1"/>
        <pt x="602" y="1165" on="1"/>
        <pt x="758" y="1165" on="1"/>
        <pt x="955" y="275" on="1"/>
        <pt x="958" y="258" on="1"/>
        <pt x="962" y="296" on="1"/>
        <pt x="1120" y="1165" on="1"/>
        <pt x="1295" y="1165" on="1"/>
        <pt x="1050" y="0" on="1"/>
        <pt x="885" y="0" on="1"/>
        <pt x="680" y="893" on="1"/>
        <pt x="468" y="0" on="1"/>
        <pt x="304" y="0" on="1"/>
        <pt x="61" y="1165" on="1"/>
        <pt x="234" y="1165" on="1"/>
      </contour>
    </TTGlyph>
    <TTGlyph name="glyph00443" xMin="35" yMin="0" xMax="963" yMax="1165">
      <contour>
        <pt x="478" y="292" on="1"/>
        <pt x="499" y="207" on="1"/>
        <pt x="520" y="290" on="1"/>
        <pt x="774" y="1165" on="1"/>
        <pt x="963" y="1165" on="1"/>
        <pt x="581" y="0" on="1"/>
        <pt x="417" y="0" on="1"/>
        <pt x="35" y="1165" on="1"/>
        <pt x="225" y="1165" on="1"/>
      </contour>
    </TTGlyph>
    <TTGlyph name="glyph00444" xMin="111" yMin="-16" xMax="892" yMax="1165">
      <contour>
        <pt x="892" y="1165" on="1"/>
        <pt x="892" y="379" on="1"/>
        <pt x="890" y="201" on="0"/>
        <pt x="678" y="-16" on="0"/>
        <pt x="501" y="-16" on="1"/>
        <pt x="323" y="-16" on="0"/>
        <pt x="113" y="194" on="0"/>
        <pt x="111" y="379" on="1"/>
        <pt x="111" y="1165" on="1"/>
        <pt x="285" y="1165" on="1"/>
        <pt x="285" y="385" on="1"/>
        <pt x="285" y="264" on="0"/>
        <pt x="396" y="135" on="0"/>
        <pt x="501" y="135" on="1"/>
        <pt x="599" y="135" on="0"/>
        <pt x="715" y="256" on="0"/>
        <pt x="715" y="385" on="1"/>
        <pt x="715" y="1165" on="1"/>
      </contour>
    </TTGlyph>
    <TTGlyph name="glyph00445" xMin="53" yMin="0" xMax="880" yMax="1165">
      <contour>
        <pt x="880" y="1012" on="1"/>
        <pt x="554" y="1012" on="1"/>
        <pt x="554" y="0" on="1"/>
        <pt x="377" y="0" on="1"/>
        <pt x="377" y="1012" on="1"/>
        <pt x="53" y="1012" on="1"/>
        <pt x="53" y="1165" on="1"/>
        <pt x="880" y="1165" on="1"/>
      </contour>
    </TTGlyph>
    <TTGlyph name="glyph00446" xMin="74" yMin="-16" xMax="854" yMax="1181">
      <contour>
        <pt x="677" y="298" on="1"/>
        <pt x="677" y="381" on="0"/>
        <pt x="578" y="470" on="0"/>
        <pt x="339" y="542" on="0"/>
        <pt x="267" y="586" on="1"/>
        <pt x="107" y="685" on="0"/>
        <pt x="107" y="860" on="1"/>
        <pt x="107" y="1001" on="0"/>
        <pt x="311" y="1181" on="0"/>
        <pt x="475" y="1181" on="1"/>
        <pt x="643" y="1181" on="0"/>
        <pt x="853" y="982" on="0"/>
        <pt x="853" y="825" on="1"/>
        <pt x="677" y="825" on="1"/>
        <pt x="677" y="924" on="0"/>
        <pt x="569" y="1030" on="0"/>
        <pt x="473" y="1030" on="1"/>
        <pt x="385" y="1030" on="0"/>
        <pt x="284" y="942" on="0"/>
        <pt x="284" y="861" on="1"/>
        <pt x="284" y="792" on="0"/>
        <pt x="398" y="701" on="0"/>
        <pt x="638" y="627" on="0"/>
        <pt x="783" y="528" on="0"/>
        <pt x="854" y="392" on="0"/>
        <pt x="854" y="300" on="1"/>
        <pt x="854" y="154" on="0"/>
        <pt x="652" y="-16" on="0"/>
        <pt x="480" y="-16" on="1"/>
        <pt x="368" y="-16" on="0"/>
        <pt x="180" y="74" on="0"/>
        <pt x="74" y="239" on="0"/>
        <pt x="74" y="349" on="1"/>
        <pt x="251" y="349" on="1"/>
        <pt x="251" y="245" on="0"/>
        <pt x="369" y="133" on="0"/>
        <pt x="480" y="133" on="1"/>
        <pt x="579" y="133" on="0"/>
        <pt x="677" y="224" on="0"/>
      </contour>
    </TTGlyph>
    <TTGlyph name="glyph00447" xMin="131" yMin="0" xMax="916" yMax="1165">
      <contour>
        <pt x="514" y="449" on="1"/>
        <pt x="308" y="449" on="1"/>
        <pt x="308" y="0" on="1"/>
        <pt x="131" y="0" on="1"/>
        <pt x="131" y="1165" on="1"/>
        <pt x="493" y="1165" on="1"/>
        <pt x="677" y="1165" on="0"/>
        <pt x="871" y="981" on="0"/>
        <pt x="871" y="809" on="1"/>
        <pt x="871" y="581" on="0"/>
        <pt x="679" y="493" on="1"/>
        <pt x="916" y="10" on="1"/>
        <pt x="916" y="0" on="1"/>
        <pt x="727" y="0" on="1"/>
      </contour>
      <contour>
        <pt x="308" y="600" on="1"/>
        <pt x="492" y="600" on="1"/>
        <pt x="586" y="600" on="0"/>
        <pt x="695" y="710" on="0"/>
        <pt x="695" y="802" on="1"/>
        <pt x="695" y="1012" on="0"/>
        <pt x="487" y="1012" on="1"/>
        <pt x="308" y="1012" on="1"/>
      </contour>
    </TTGlyph>
    <TTGlyph name="glyph00448" xMin="91" yMin="-202" xMax="966" yMax="1181">
      <contour>
        <pt x="959" y="548" on="1"/>
        <pt x="959" y="382" on="0"/>
        <pt x="864" y="139" on="0"/>
        <pt x="777" y="69" on="1"/>
        <pt x="966" y="-91" on="1"/>
        <pt x="848" y="-202" on="1"/>
        <pt x="622" y="-5" on="1"/>
        <pt x="575" y="-16" on="0"/>
        <pt x="526" y="-16" on="1"/>
        <pt x="335" y="-16" on="0"/>
        <pt x="95" y="281" on="0"/>
        <pt x="91" y="533" on="1"/>
        <pt x="91" y="615" on="1"/>
        <pt x="91" y="871" on="0"/>
        <pt x="329" y="1181" on="0"/>
        <pt x="524" y="1181" on="1"/>
        <pt x="721" y="1181" on="0"/>
        <pt x="956" y="881" on="0"/>
        <pt x="959" y="627" on="1"/>
      </contour>
      <contour>
        <pt x="785" y="617" on="1"/>
        <pt x="785" y="815" on="0"/>
        <pt x="649" y="1025" on="0"/>
        <pt x="524" y="1025" on="1"/>
        <pt x="408" y="1025" on="0"/>
        <pt x="269" y="818" on="0"/>
        <pt x="267" y="627" on="1"/>
        <pt x="267" y="548" on="1"/>
        <pt x="267" y="355" on="0"/>
        <pt x="406" y="138" on="0"/>
        <pt x="526" y="138" on="1"/>
        <pt x="649" y="138" on="0"/>
        <pt x="784" y="346" on="0"/>
        <pt x="785" y="542" on="1"/>
      </contour>
    </TTGlyph>
    <TTGlyph name="glyph00449" xMin="131" yMin="0" xMax="915" yMax="1165">
      <contour>
        <pt x="307" y="438" on="1"/>
        <pt x="307" y="0" on="1"/>
        <pt x="131" y="0" on="1"/>
        <pt x="131" y="1165" on="1"/>
        <pt x="534" y="1165" on="1"/>
        <pt x="707" y="1165" on="0"/>
        <pt x="915" y="967" on="0"/>
        <pt x="915" y="798" on="1"/>
        <pt x="915" y="627" on="0"/>
        <pt x="714" y="438" on="0"/>
        <pt x="532" y="438" on="1"/>
      </contour>
      <contour>
        <pt x="307" y="590" on="1"/>
        <pt x="534" y="590" on="1"/>
        <pt x="630" y="590" on="0"/>
        <pt x="738" y="694" on="0"/>
        <pt x="738" y="796" on="1"/>
        <pt x="738" y="894" on="0"/>
        <pt x="630" y="1011" on="0"/>
        <pt x="538" y="1012" on="1"/>
        <pt x="307" y="1012" on="1"/>
      </contour>
    </TTGlyph>
    <TTGlyph name="glyph00450" xMin="98" yMin="-16" xMax="964" yMax="1181">
      <contour>
        <pt x="964" y="548" on="1"/>
        <pt x="964" y="288" on="0"/>
        <pt x="729" y="-16" on="0"/>
        <pt x="532" y="-16" on="1"/>
        <pt x="337" y="-16" on="0"/>
        <pt x="98" y="291" on="0"/>
        <pt x="98" y="552" on="1"/>
        <pt x="98" y="615" on="1"/>
        <pt x="98" y="784" on="0"/>
        <pt x="206" y="1042" on="0"/>
        <pt x="402" y="1181" on="0"/>
        <pt x="530" y="1181" on="1"/>
        <pt x="728" y="1181" on="0"/>
        <pt x="964" y="875" on="0"/>
        <pt x="964" y="610" on="1"/>
      </contour>
      <contour>
        <pt x="790" y="617" on="1"/>
        <pt x="790" y="815" on="0"/>
        <pt x="654" y="1025" on="0"/>
        <pt x="530" y="1025" on="1"/>
        <pt x="412" y="1025" on="0"/>
        <pt x="275" y="816" on="0"/>
        <pt x="272" y="632" on="1"/>
        <pt x="272" y="548" on="1"/>
        <pt x="272" y="354" on="0"/>
        <pt x="413" y="138" on="0"/>
        <pt x="532" y="138" on="1"/>
        <pt x="655" y="138" on="0"/>
        <pt x="789" y="346" on="0"/>
        <pt x="790" y="542" on="1"/>
      </contour>
    </TTGlyph>
    <TTGlyph name="glyph00451" xMin="131" yMin="0" xMax="960" yMax="1165">
      <contour>
        <pt x="960" y="0" on="1"/>
        <pt x="784" y="0" on="1"/>
        <pt x="307" y="876" on="1"/>
        <pt x="307" y="0" on="1"/>
        <pt x="131" y="0" on="1"/>
        <pt x="131" y="1165" on="1"/>
        <pt x="307" y="1165" on="1"/>
        <pt x="784" y="288" on="1"/>
        <pt x="784" y="1165" on="1"/>
        <pt x="960" y="1165" on="1"/>
      </contour>
    </TTGlyph>
    <TTGlyph name="glyph00452" xMin="131" yMin="0" xMax="1204" yMax="1165">
      <contour>
        <pt x="359" y="1165" on="1"/>
        <pt x="668" y="254" on="1"/>
        <pt x="976" y="1165" on="1"/>
        <pt x="1204" y="1165" on="1"/>
        <pt x="1204" y="0" on="1"/>
        <pt x="1029" y="0" on="1"/>
        <pt x="1029" y="401" on="1"/>
        <pt x="1046" y="898" on="1"/>
        <pt x="732" y="0" on="1"/>
        <pt x="603" y="0" on="1"/>
        <pt x="288" y="893" on="1"/>
        <pt x="306" y="401" on="1"/>
        <pt x="306" y="0" on="1"/>
        <pt x="131" y="0" on="1"/>
        <pt x="131" y="1165" on="1"/>
      </contour>
    </TTGlyph>
    <TTGlyph name="glyph00453" xMin="131" yMin="0" xMax="789" yMax="1165">
      <contour>
        <pt x="307" y="151" on="1"/>
        <pt x="789" y="151" on="1"/>
        <pt x="789" y="0" on="1"/>
        <pt x="131" y="0" on="1"/>
        <pt x="131" y="1165" on="1"/>
        <pt x="307" y="1165" on="1"/>
      </contour>
    </TTGlyph>
    <TTGlyph name="glyph00454" xMin="131" yMin="0" xMax="961" yMax="1165">
      <contour>
        <pt x="424" y="511" on="1"/>
        <pt x="307" y="380" on="1"/>
        <pt x="307" y="0" on="1"/>
        <pt x="131" y="0" on="1"/>
        <pt x="131" y="1165" on="1"/>
        <pt x="307" y="1165" on="1"/>
        <pt x="307" y="625" on="1"/>
        <pt x="721" y="1165" on="1"/>
        <pt x="935" y="1165" on="1"/>
        <pt x="541" y="648" on="1"/>
        <pt x="961" y="0" on="1"/>
        <pt x="748" y="0" on="1"/>
      </contour>
    </TTGlyph>
    <TTGlyph name="glyph00455" xMin="51" yMin="-16" xMax="737" yMax="1165">
      <contour>
        <pt x="558" y="1165" on="1"/>
        <pt x="737" y="1165" on="1"/>
        <pt x="737" y="338" on="1"/>
        <pt x="737" y="179" on="0"/>
        <pt x="554" y="-16" on="0"/>
        <pt x="404" y="-16" on="1"/>
        <pt x="241" y="-16" on="0"/>
        <pt x="51" y="165" on="0"/>
        <pt x="51" y="331" on="1"/>
        <pt x="228" y="331" on="1"/>
        <pt x="228" y="237" on="0"/>
        <pt x="318" y="135" on="0"/>
        <pt x="404" y="135" on="1"/>
        <pt x="474" y="135" on="0"/>
        <pt x="558" y="241" on="0"/>
        <pt x="558" y="338" on="1"/>
      </contour>
    </TTGlyph>
    <TTGlyph name="glyph00456" xMin="139" yMin="0" xMax="316" yMax="1165">
      <contour>
        <pt x="316" y="0" on="1"/>
        <pt x="139" y="0" on="1"/>
        <pt x="139" y="1165" on="1"/>
        <pt x="316" y="1165" on="1"/>
      </contour>
    </TTGlyph>
    <TTGlyph name="glyph00457" xMin="131" yMin="0" xMax="961" yMax="1165">
      <contour>
        <pt x="961" y="0" on="1"/>
        <pt x="785" y="0" on="1"/>
        <pt x="785" y="498" on="1"/>
        <pt x="307" y="498" on="1"/>
        <pt x="307" y="0" on="1"/>
        <pt x="131" y="0" on="1"/>
        <pt x="131" y="1165" on="1"/>
        <pt x="307" y="1165" on="1"/>
        <pt x="307" y="650" on="1"/>
        <pt x="785" y="650" on="1"/>
        <pt x="785" y="1165" on="1"/>
        <pt x="961" y="1165" on="1"/>
      </contour>
    </TTGlyph>
    <TTGlyph name="glyph00458" xMin="96" yMin="-16" xMax="929" yMax="1181">
      <contour>
        <pt x="928" y="150" on="1"/>
        <pt x="817" y="-16" on="0"/>
        <pt x="547" y="-16" on="1"/>
        <pt x="344" y="-16" on="0"/>
        <pt x="97" y="284" on="0"/>
        <pt x="96" y="537" on="1"/>
        <pt x="96" y="624" on="1"/>
        <pt x="96" y="889" on="0"/>
        <pt x="324" y="1181" on="0"/>
        <pt x="530" y="1181" on="1"/>
        <pt x="700" y="1181" on="0"/>
        <pt x="904" y="995" on="0"/>
        <pt x="929" y="812" on="1"/>
        <pt x="753" y="812" on="1"/>
        <pt x="720" y="1029" on="0"/>
        <pt x="532" y="1029" on="1"/>
        <pt x="291" y="1029" on="0"/>
        <pt x="275" y="675" on="1"/>
        <pt x="274" y="540" on="1"/>
        <pt x="274" y="350" on="0"/>
        <pt x="422" y="135" on="0"/>
        <pt x="550" y="135" on="1"/>
        <pt x="674" y="135" on="0"/>
        <pt x="733" y="189" on="1"/>
        <pt x="753" y="209" on="1"/>
        <pt x="753" y="447" on="1"/>
        <pt x="532" y="447" on="1"/>
        <pt x="532" y="591" on="1"/>
        <pt x="928" y="591" on="1"/>
      </contour>
    </TTGlyph>
    <TTGlyph name="glyph00459" xMin="131" yMin="0" xMax="792" yMax="1165">
      <contour>
        <pt x="726" y="499" on="1"/>
        <pt x="307" y="499" on="1"/>
        <pt x="307" y="0" on="1"/>
        <pt x="131" y="0" on="1"/>
        <pt x="131" y="1165" on="1"/>
        <pt x="792" y="1165" on="1"/>
        <pt x="792" y="1012" on="1"/>
        <pt x="307" y="1012" on="1"/>
        <pt x="307" y="652" on="1"/>
        <pt x="726" y="652" on="1"/>
      </contour>
    </TTGlyph>
    <TTGlyph name="glyph00460" xMin="131" yMin="0" xMax="813" yMax="1165">
      <contour>
        <pt x="740" y="526" on="1"/>
        <pt x="307" y="526" on="1"/>
        <pt x="307" y="151" on="1"/>
        <pt x="813" y="151" on="1"/>
        <pt x="813" y="0" on="1"/>
        <pt x="131" y="0" on="1"/>
        <pt x="131" y="1165" on="1"/>
        <pt x="807" y="1165" on="1"/>
        <pt x="807" y="1012" on="1"/>
        <pt x="307" y="1012" on="1"/>
        <pt x="307" y="678" on="1"/>
        <pt x="740" y="678" on="1"/>
      </contour>
    </TTGlyph>
    <TTGlyph name="glyph00461" xMin="131" yMin="0" xMax="909" yMax="1165">
      <contour>
        <pt x="131" y="0" on="1"/>
        <pt x="131" y="1165" on="1"/>
        <pt x="436" y="1165" on="1"/>
        <pt x="650" y="1165" on="0"/>
        <pt x="909" y="863" on="0"/>
        <pt x="909" y="607" on="1"/>
        <pt x="909" y="550" on="1"/>
        <pt x="909" y="299" on="0"/>
        <pt x="648" y="2" on="0"/>
        <pt x="429" y="0" on="1"/>
      </contour>
      <contour>
        <pt x="307" y="1012" on="1"/>
        <pt x="307" y="151" on="1"/>
        <pt x="424" y="151" on="1"/>
        <pt x="577" y="151" on="0"/>
        <pt x="734" y="356" on="0"/>
        <pt x="734" y="551" on="1"/>
        <pt x="734" y="615" on="1"/>
        <pt x="734" y="807" on="0"/>
        <pt x="586" y="1012" on="0"/>
        <pt x="436" y="1012" on="1"/>
      </contour>
    </TTGlyph>
    <TTGlyph name="glyph00462" xMin="96" yMin="-16" xMax="928" yMax="1181">
      <contour>
        <pt x="928" y="377" on="1"/>
        <pt x="910" y="186" on="0"/>
        <pt x="696" y="-16" on="0"/>
        <pt x="519" y="-16" on="1"/>
        <pt x="327" y="-16" on="0"/>
        <pt x="96" y="281" on="0"/>
        <pt x="96" y="536" on="1"/>
        <pt x="96" y="632" on="1"/>
        <pt x="96" y="881" on="0"/>
        <pt x="330" y="1181" on="0"/>
        <pt x="529" y="1181" on="1"/>
        <pt x="702" y="1181" on="0"/>
        <pt x="911" y="974" on="0"/>
        <pt x="928" y="783" on="1"/>
        <pt x="751" y="783" on="1"/>
        <pt x="737" y="913" on="0"/>
        <pt x="631" y="1029" on="0"/>
        <pt x="529" y="1029" on="1"/>
        <pt x="403" y="1029" on="0"/>
        <pt x="273" y="823" on="0"/>
        <pt x="273" y="631" on="1"/>
        <pt x="273" y="531" on="1"/>
        <pt x="273" y="339" on="0"/>
        <pt x="397" y="135" on="0"/>
        <pt x="519" y="135" on="1"/>
        <pt x="626" y="135" on="0"/>
        <pt x="735" y="242" on="0"/>
        <pt x="751" y="377" on="1"/>
      </contour>
    </TTGlyph>
    <TTGlyph name="glyph00463" xMin="131" yMin="0" xMax="872" yMax="1165">
      <contour>
        <pt x="131" y="0" on="1"/>
        <pt x="131" y="1165" on="1"/>
        <pt x="483" y="1165" on="1"/>
        <pt x="660" y="1165" on="0"/>
        <pt x="849" y="1002" on="0"/>
        <pt x="849" y="847" on="1"/>
        <pt x="849" y="767" on="0"/>
        <pt x="766" y="641" on="0"/>
        <pt x="690" y="607" on="1"/>
        <pt x="774" y="585" on="0"/>
        <pt x="872" y="437" on="0"/>
        <pt x="872" y="333" on="1"/>
        <pt x="872" y="175" on="0"/>
        <pt x="686" y="0" on="0"/>
        <pt x="510" y="0" on="1"/>
      </contour>
      <contour>
        <pt x="307" y="530" on="1"/>
        <pt x="307" y="151" on="1"/>
        <pt x="512" y="151" on="1"/>
        <pt x="602" y="151" on="0"/>
        <pt x="696" y="249" on="0"/>
        <pt x="696" y="334" on="1"/>
        <pt x="696" y="530" on="0"/>
        <pt x="515" y="530" on="1"/>
      </contour>
      <contour>
        <pt x="307" y="671" on="1"/>
        <pt x="502" y="671" on="1"/>
        <pt x="579" y="673" on="0"/>
        <pt x="672" y="758" on="0"/>
        <pt x="672" y="839" on="1"/>
        <pt x="672" y="1007" on="0"/>
        <pt x="495" y="1012" on="1"/>
        <pt x="307" y="1012" on="1"/>
      </contour>
    </TTGlyph>
    <TTGlyph name="glyph00464" xMin="35" yMin="0" xMax="991" yMax="1165">
      <contour>
        <pt x="722" y="279" on="1"/>
        <pt x="306" y="279" on="1"/>
        <pt x="214" y="0" on="1"/>
        <pt x="35" y="0" on="1"/>
        <pt x="438" y="1165" on="1"/>
        <pt x="594" y="1165" on="1"/>
        <pt x="991" y="0" on="1"/>
        <pt x="813" y="0" on="1"/>
      </contour>
      <contour>
        <pt x="355" y="430" on="1"/>
        <pt x="673" y="430" on="1"/>
        <pt x="515" y="915" on="1"/>
      </contour>
    </TTGlyph>
    <TTGlyph name="glyph00465" xMin="156" yMin="1166" xMax="387" yMax="1595">
      <contour>
        <pt x="287" y="1595" on="1"/>
        <pt x="387" y="1512" on="1"/>
        <pt x="334" y="1415" on="0"/>
        <pt x="332" y="1299" on="1"/>
        <pt x="332" y="1166" on="1"/>
        <pt x="156" y="1166" on="1"/>
        <pt x="156" y="1296" on="1"/>
        <pt x="156" y="1370" on="0"/>
        <pt x="233" y="1543" on="0"/>
      </contour>
    </TTGlyph>
    <TTGlyph name="glyph00466" xMin="125" yMin="1247" xMax="642" yMax="1674">
      <contour>
        <pt x="642" y="1456" on="1"/>
        <pt x="642" y="1362" on="0"/>
        <pt x="500" y="1247" on="0"/>
        <pt x="384" y="1247" on="1"/>
        <pt x="269" y="1247" on="0"/>
        <pt x="125" y="1361" on="0"/>
        <pt x="125" y="1456" on="1"/>
        <pt x="269" y="1456" on="1"/>
        <pt x="269" y="1400" on="0"/>
        <pt x="330" y="1340" on="0"/>
        <pt x="438" y="1340" on="0"/>
        <pt x="498" y="1400" on="0"/>
        <pt x="498" y="1456" on="1"/>
      </contour>
      <contour>
        <pt x="216" y="1674" on="1"/>
        <pt x="360" y="1674" on="1"/>
        <pt x="445" y="1476" on="1"/>
        <pt x="353" y="1476" on="1"/>
      </contour>
    </TTGlyph>
    <TTGlyph name="glyph00467" xMin="118" yMin="1249" xMax="1000" yMax="1685">
      <contour>
        <pt x="370" y="1512" on="1"/>
        <pt x="510" y="1512" on="1"/>
        <pt x="760" y="1249" on="1"/>
        <pt x="576" y="1249" on="1"/>
        <pt x="440" y="1408" on="1"/>
        <pt x="303" y="1249" on="1"/>
        <pt x="118" y="1249" on="1"/>
      </contour>
      <contour>
        <pt x="812" y="1685" on="1"/>
        <pt x="1000" y="1685" on="1"/>
        <pt x="825" y="1426" on="1"/>
        <pt x="694" y="1426" on="1"/>
      </contour>
    </TTGlyph>
    <TTGlyph name="glyph00468" xMin="-132" yMin="1231" xMax="748" yMax="1666">
      <contour>
        <pt x="748" y="1231" on="1"/>
        <pt x="564" y="1231" on="1"/>
        <pt x="427" y="1389" on="1"/>
        <pt x="289" y="1231" on="1"/>
        <pt x="107" y="1231" on="1"/>
        <pt x="357" y="1493" on="1"/>
        <pt x="496" y="1493" on="1"/>
      </contour>
      <contour>
        <pt x="172" y="1408" on="1"/>
        <pt x="42" y="1408" on="1"/>
        <pt x="-132" y="1666" on="1"/>
        <pt x="55" y="1666" on="1"/>
      </contour>
    </TTGlyph>
    <TTGlyph name="glyph00469" xMin="107" yMin="1252" xMax="881" yMax="1743">
      <contour>
        <pt x="748" y="1252" on="1"/>
        <pt x="591" y="1252" on="1"/>
        <pt x="427" y="1438" on="1"/>
        <pt x="262" y="1252" on="1"/>
        <pt x="107" y="1252" on="1"/>
        <pt x="339" y="1514" on="1"/>
        <pt x="514" y="1514" on="1"/>
      </contour>
      <contour>
        <pt x="665" y="1390" on="1"/>
        <pt x="664" y="1521" on="1"/>
        <pt x="716" y="1526" on="0"/>
        <pt x="765" y="1551" on="0"/>
        <pt x="765" y="1584" on="1"/>
        <pt x="765" y="1651" on="0"/>
        <pt x="653" y="1651" on="1"/>
        <pt x="658" y="1743" on="1"/>
        <pt x="769" y="1743" on="0"/>
        <pt x="881" y="1655" on="0"/>
        <pt x="881" y="1582" on="1"/>
        <pt x="881" y="1528" on="0"/>
        <pt x="824" y="1458" on="0"/>
        <pt x="773" y="1450" on="1"/>
        <pt x="772" y="1390" on="1"/>
      </contour>
    </TTGlyph>
    <TTGlyph name="glyph00470" xMin="107" yMin="1252" xMax="748" yMax="1748">
      <contour>
        <pt x="748" y="1252" on="1"/>
        <pt x="591" y="1252" on="1"/>
        <pt x="427" y="1410" on="1"/>
        <pt x="262" y="1252" on="1"/>
        <pt x="107" y="1252" on="1"/>
        <pt x="366" y="1496" on="1"/>
        <pt x="488" y="1496" on="1"/>
      </contour>
      <contour>
        <pt x="646" y="1725" on="1"/>
        <pt x="646" y="1664" on="0"/>
        <pt x="563" y="1569" on="0"/>
        <pt x="506" y="1569" on="1"/>
        <pt x="462" y="1569" on="0"/>
        <pt x="370" y="1640" on="0"/>
        <pt x="336" y="1640" on="1"/>
        <pt x="312" y="1640" on="0"/>
        <pt x="266" y="1592" on="0"/>
        <pt x="266" y="1565" on="1"/>
        <pt x="197" y="1584" on="1"/>
        <pt x="197" y="1649" on="0"/>
        <pt x="282" y="1745" on="0"/>
        <pt x="336" y="1745" on="1"/>
        <pt x="369" y="1745" on="0"/>
        <pt x="474" y="1675" on="0"/>
        <pt x="506" y="1675" on="1"/>
        <pt x="532" y="1675" on="0"/>
        <pt x="576" y="1722" on="0"/>
        <pt x="576" y="1748" on="1"/>
      </contour>
    </TTGlyph>
    <TTGlyph name="glyph00471" xMin="125" yMin="1247" xMax="642" yMax="1674">
      <contour>
        <pt x="642" y="1456" on="1"/>
        <pt x="642" y="1362" on="0"/>
        <pt x="500" y="1247" on="0"/>
        <pt x="384" y="1247" on="1"/>
        <pt x="269" y="1247" on="0"/>
        <pt x="125" y="1361" on="0"/>
        <pt x="125" y="1456" on="1"/>
        <pt x="269" y="1456" on="1"/>
        <pt x="269" y="1400" on="0"/>
        <pt x="330" y="1340" on="0"/>
        <pt x="438" y="1340" on="0"/>
        <pt x="498" y="1400" on="0"/>
        <pt x="498" y="1456" on="1"/>
      </contour>
      <contour>
        <pt x="422" y="1674" on="1"/>
        <pt x="565" y="1674" on="1"/>
        <pt x="429" y="1476" on="1"/>
        <pt x="336" y="1476" on="1"/>
      </contour>
    </TTGlyph>
    <TTGlyph name="glyph00472" xMin="146" yMin="651" xMax="688" yMax="802">
      <contour>
        <pt x="688" y="651" on="1"/>
        <pt x="146" y="651" on="1"/>
        <pt x="146" y="802" on="1"/>
        <pt x="688" y="802" on="1"/>
      </contour>
    </TTGlyph>
    <TTGlyph name="glyph00473" xMin="147" yMin="1088" xMax="553" yMax="1650">
      <contour>
        <pt x="377" y="1650" on="1"/>
        <pt x="553" y="1650" on="1"/>
        <pt x="362" y="1466" on="1"/>
        <pt x="259" y="1466" on="1"/>
      </contour>
      <contour>
        <pt x="147" y="1251" on="1"/>
        <pt x="147" y="1322" on="0"/>
        <pt x="235" y="1418" on="0"/>
        <pt x="297" y="1418" on="1"/>
        <pt x="358" y="1418" on="0"/>
        <pt x="442" y="1322" on="0"/>
        <pt x="442" y="1251" on="1"/>
        <pt x="442" y="1182" on="0"/>
        <pt x="359" y="1088" on="0"/>
        <pt x="235" y="1088" on="0"/>
        <pt x="147" y="1181" on="0"/>
      </contour>
      <contour>
        <pt x="224" y="1251" on="1"/>
        <pt x="224" y="1215" on="0"/>
        <pt x="267" y="1166" on="0"/>
        <pt x="297" y="1166" on="1"/>
        <pt x="326" y="1166" on="0"/>
        <pt x="366" y="1215" on="0"/>
        <pt x="366" y="1251" on="1"/>
        <pt x="366" y="1289" on="0"/>
        <pt x="326" y="1339" on="0"/>
        <pt x="297" y="1339" on="1"/>
        <pt x="267" y="1339" on="0"/>
        <pt x="224" y="1289" on="0"/>
      </contour>
    </TTGlyph>
    <TTGlyph name="glyph00474" xMin="36" yMin="-438" xMax="904" yMax="1102">
      <contour>
        <pt x="904" y="935" on="1"/>
        <pt x="773" y="935" on="1"/>
        <pt x="822" y="849" on="0"/>
        <pt x="823" y="747" on="1"/>
        <pt x="823" y="721" on="1"/>
        <pt x="823" y="570" on="0"/>
        <pt x="616" y="363" on="0"/>
        <pt x="458" y="363" on="1"/>
        <pt x="391" y="363" on="0"/>
        <pt x="331" y="383" on="1"/>
        <pt x="291" y="341" on="0"/>
        <pt x="291" y="278" on="1"/>
        <pt x="291" y="196" on="0"/>
        <pt x="396" y="196" on="1"/>
        <pt x="535" y="196" on="1"/>
        <pt x="892" y="196" on="0"/>
        <pt x="892" y="-97" on="1"/>
        <pt x="892" y="-181" on="0"/>
        <pt x="772" y="-342" on="0"/>
        <pt x="564" y="-438" on="0"/>
        <pt x="435" y="-438" on="1"/>
        <pt x="257" y="-438" on="0"/>
        <pt x="36" y="-283" on="0"/>
        <pt x="36" y="-161" on="1"/>
        <pt x="36" y="-77" on="0"/>
        <pt x="112" y="59" on="0"/>
        <pt x="181" y="102" on="1"/>
        <pt x="132" y="149" on="0"/>
        <pt x="132" y="223" on="1"/>
        <pt x="132" y="345" on="0"/>
        <pt x="235" y="432" on="1"/>
        <pt x="89" y="536" on="0"/>
        <pt x="89" y="733" on="1"/>
        <pt x="89" y="743" on="1"/>
        <pt x="89" y="902" on="0"/>
        <pt x="295" y="1102" on="0"/>
        <pt x="456" y="1102" on="1"/>
        <pt x="526" y="1102" on="0"/>
        <pt x="586" y="1082" on="1"/>
        <pt x="903" y="1082" on="1"/>
      </contour>
      <contour>
        <pt x="294" y="50" on="1"/>
        <pt x="260" y="27" on="0"/>
        <pt x="212" y="-64" on="0"/>
        <pt x="212" y="-124" on="1"/>
        <pt x="212" y="-197" on="0"/>
        <pt x="330" y="-287" on="0"/>
        <pt x="435" y="-287" on="1"/>
        <pt x="552" y="-287" on="0"/>
        <pt x="715" y="-173" on="0"/>
        <pt x="715" y="-97" on="1"/>
        <pt x="715" y="-20" on="0"/>
        <pt x="633" y="43" on="0"/>
        <pt x="545" y="44" on="1"/>
        <pt x="348" y="44" on="1"/>
      </contour>
      <contour>
        <pt x="266" y="721" on="1"/>
        <pt x="266" y="637" on="0"/>
        <pt x="376" y="515" on="0"/>
        <pt x="458" y="515" on="1"/>
        <pt x="538" y="515" on="0"/>
        <pt x="646" y="638" on="0"/>
        <pt x="646" y="725" on="1"/>
        <pt x="646" y="743" on="1"/>
        <pt x="646" y="831" on="0"/>
        <pt x="538" y="950" on="0"/>
        <pt x="374" y="950" on="0"/>
        <pt x="266" y="831" on="0"/>
        <pt x="266" y="739" on="1"/>
      </contour>
    </TTGlyph>
    <TTGlyph name="glyph00475" xMin="100" yMin="-21" xMax="965" yMax="1102">
      <contour>
        <pt x="770" y="216" on="1"/>
        <pt x="678" y="-21" on="0"/>
        <pt x="456" y="-21" on="1"/>
        <pt x="293" y="-21" on="0"/>
        <pt x="100" y="260" on="0"/>
        <pt x="100" y="521" on="1"/>
        <pt x="100" y="788" on="0"/>
        <pt x="293" y="1102" on="0"/>
        <pt x="457" y="1102" on="1"/>
        <pt x="674" y="1102" on="0"/>
        <pt x="768" y="872" on="1"/>
        <pt x="793" y="1082" on="1"/>
        <pt x="960" y="1082" on="1"/>
        <pt x="868" y="540" on="1"/>
        <pt x="965" y="0" on="1"/>
        <pt x="799" y="0" on="1"/>
      </contour>
      <contour>
        <pt x="277" y="500" on="1"/>
        <pt x="277" y="319" on="0"/>
        <pt x="395" y="130" on="0"/>
        <pt x="502" y="130" on="1"/>
        <pt x="585" y="130" on="0"/>
        <pt x="694" y="314" on="0"/>
        <pt x="727" y="521" on="1"/>
        <pt x="727" y="557" on="1"/>
        <pt x="704" y="746" on="0"/>
        <pt x="588" y="950" on="0"/>
        <pt x="503" y="950" on="1"/>
        <pt x="395" y="950" on="0"/>
        <pt x="277" y="728" on="0"/>
      </contour>
    </TTGlyph>
    <TTGlyph name="glyph00476" xMin="166" yMin="0" xMax="1079" yMax="1455">
      <contour>
        <pt x="350" y="628" on="1"/>
        <pt x="350" y="0" on="1"/>
        <pt x="166" y="0" on="1"/>
        <pt x="166" y="1455" on="1"/>
        <pt x="618" y="1455" on="1"/>
        <pt x="821" y="1455" on="0"/>
        <pt x="1032" y="1245" on="0"/>
        <pt x="1032" y="1041" on="1"/>
        <pt x="1032" y="812" on="0"/>
        <pt x="831" y="713" on="1"/>
        <pt x="1021" y="643" on="0"/>
        <pt x="1023" y="375" on="1"/>
        <pt x="1023" y="229" on="1"/>
        <pt x="1024" y="85" on="0"/>
        <pt x="1079" y="24" on="1"/>
        <pt x="1079" y="0" on="1"/>
        <pt x="889" y="0" on="1"/>
        <pt x="841" y="51" on="0"/>
        <pt x="839" y="203" on="1"/>
        <pt x="839" y="370" on="1"/>
        <pt x="838" y="488" on="0"/>
        <pt x="728" y="628" on="0"/>
        <pt x="635" y="628" on="1"/>
      </contour>
      <contour>
        <pt x="350" y="785" on="1"/>
        <pt x="599" y="785" on="1"/>
        <pt x="734" y="785" on="0"/>
        <pt x="849" y="917" on="0"/>
        <pt x="849" y="1041" on="1"/>
        <pt x="849" y="1297" on="0"/>
        <pt x="615" y="1297" on="1"/>
        <pt x="350" y="1297" on="1"/>
      </contour>
    </TTGlyph>
    <TTGlyph name="glyph00477" xMin="166" yMin="0" xMax="1133" yMax="1456">
      <contour>
        <pt x="487" y="654" on="1"/>
        <pt x="349" y="654" on="1"/>
        <pt x="349" y="0" on="1"/>
        <pt x="166" y="0" on="1"/>
        <pt x="166" y="1456" on="1"/>
        <pt x="349" y="1456" on="1"/>
        <pt x="349" y="814" on="1"/>
        <pt x="461" y="814" on="1"/>
        <pt x="871" y="1456" on="1"/>
        <pt x="1099" y="1456" on="1"/>
        <pt x="637" y="752" on="1"/>
        <pt x="1133" y="0" on="1"/>
        <pt x="909" y="0" on="1"/>
      </contour>
    </TTGlyph>
    <TTGlyph name="glyph00478" xMin="138" yMin="0" xMax="912" yMax="1536">
      <contour>
        <pt x="422" y="501" on="1"/>
        <pt x="316" y="501" on="1"/>
        <pt x="316" y="0" on="1"/>
        <pt x="138" y="0" on="1"/>
        <pt x="138" y="1536" on="1"/>
        <pt x="316" y="1536" on="1"/>
        <pt x="316" y="654" on="1"/>
        <pt x="422" y="654" on="1"/>
        <pt x="658" y="1082" on="1"/>
        <pt x="865" y="1082" on="1"/>
        <pt x="561" y="589" on="1"/>
        <pt x="912" y="0" on="1"/>
        <pt x="704" y="0" on="1"/>
      </contour>
    </TTGlyph>
    <TTGlyph name="glyph00479" xMin="166" yMin="0" xMax="1110" yMax="1456">
      <contour>
        <pt x="349" y="680" on="1"/>
        <pt x="349" y="0" on="1"/>
        <pt x="166" y="0" on="1"/>
        <pt x="166" y="1456" on="1"/>
        <pt x="349" y="1456" on="1"/>
        <pt x="349" y="809" on="1"/>
        <pt x="359" y="809" on="1"/>
        <pt x="850" y="1456" on="1"/>
        <pt x="1078" y="1456" on="1"/>
        <pt x="534" y="741" on="1"/>
        <pt x="1110" y="0" on="1"/>
        <pt x="886" y="0" on="1"/>
      </contour>
    </TTGlyph>
    <TTGlyph name="glyph00480" xMin="138" yMin="0" xMax="889" yMax="1560">
      <contour>
        <pt x="317" y="499" on="1"/>
        <pt x="316" y="499" on="1"/>
        <pt x="316" y="0" on="1"/>
        <pt x="138" y="0" on="1"/>
        <pt x="138" y="1560" on="1"/>
        <pt x="316" y="1560" on="1"/>
        <pt x="316" y="656" on="1"/>
        <pt x="623" y="1082" on="1"/>
        <pt x="852" y="1082" on="1"/>
        <pt x="463" y="585" on="1"/>
        <pt x="889" y="0" on="1"/>
        <pt x="673" y="0" on="1"/>
      </contour>
    </TTGlyph>
    <TTGlyph name="glyph00481" xMin="125" yMin="-21" xMax="1131" yMax="1477">
      <contour>
        <pt x="1130" y="462" on="1"/>
        <pt x="1110" y="236" on="0"/>
        <pt x="862" y="-21" on="0"/>
        <pt x="658" y="-21" on="1"/>
        <pt x="509" y="-21" on="0"/>
        <pt x="264" y="160" on="0"/>
        <pt x="126" y="485" on="0"/>
        <pt x="125" y="689" on="1"/>
        <pt x="125" y="757" on="1"/>
        <pt x="125" y="967" on="0"/>
        <pt x="257" y="1296" on="0"/>
        <pt x="498" y="1477" on="0"/>
        <pt x="649" y="1477" on="1"/>
        <pt x="853" y="1477" on="0"/>
        <pt x="1112" y="1214" on="0"/>
        <pt x="1131" y="988" on="1"/>
        <pt x="947" y="988" on="1"/>
        <pt x="927" y="1154" on="0"/>
        <pt x="774" y="1319" on="0"/>
        <pt x="649" y="1319" on="1"/>
        <pt x="494" y="1319" on="0"/>
        <pt x="309" y="1011" on="0"/>
        <pt x="309" y="753" on="1"/>
        <pt x="309" y="697" on="1"/>
        <pt x="309" y="538" on="0"/>
        <pt x="398" y="280" on="0"/>
        <pt x="559" y="136" on="0"/>
        <pt x="658" y="136" on="1"/>
        <pt x="787" y="136" on="0"/>
        <pt x="924" y="287" on="0"/>
        <pt x="947" y="462" on="1"/>
      </contour>
    </TTGlyph>
    <TTGlyph name="glyph00482" xMin="125" yMin="-21" xMax="1131" yMax="1476">
      <contour>
        <pt x="1130" y="190" on="1"/>
        <pt x="1072" y="91" on="0"/>
        <pt x="829" y="-21" on="0"/>
        <pt x="679" y="-21" on="1"/>
        <pt x="523" y="-21" on="0"/>
        <pt x="270" y="159" on="0"/>
        <pt x="127" y="489" on="0"/>
        <pt x="125" y="699" on="1"/>
        <pt x="125" y="741" on="1"/>
        <pt x="125" y="960" on="0"/>
        <pt x="257" y="1294" on="0"/>
        <pt x="498" y="1476" on="0"/>
        <pt x="652" y="1476" on="1"/>
        <pt x="855" y="1476" on="0"/>
        <pt x="1102" y="1248" on="0"/>
        <pt x="1131" y="1029" on="1"/>
        <pt x="947" y="1029" on="1"/>
        <pt x="922" y="1179" on="0"/>
        <pt x="775" y="1318" on="0"/>
        <pt x="652" y="1318" on="1"/>
        <pt x="508" y="1318" on="0"/>
        <pt x="320" y="1030" on="0"/>
        <pt x="310" y="795" on="1"/>
        <pt x="309" y="714" on="1"/>
        <pt x="309" y="457" on="0"/>
        <pt x="515" y="136" on="0"/>
        <pt x="679" y="136" on="1"/>
        <pt x="772" y="136" on="0"/>
        <pt x="915" y="194" on="0"/>
        <pt x="948" y="242" on="1"/>
        <pt x="948" y="568" on="1"/>
        <pt x="683" y="568" on="1"/>
        <pt x="683" y="723" on="1"/>
        <pt x="1130" y="723" on="1"/>
      </contour>
    </TTGlyph>
    <TTGlyph name="glyph00483" xMin="166" yMin="0" xMax="1118" yMax="1456">
      <contour>
        <pt x="166" y="0" on="1"/>
        <pt x="166" y="1456" on="1"/>
        <pt x="538" y="1456" on="1"/>
        <pt x="703" y="1456" on="0"/>
        <pt x="968" y="1280" on="0"/>
        <pt x="1116" y="962" on="0"/>
        <pt x="1118" y="762" on="1"/>
        <pt x="1118" y="706" on="1"/>
        <pt x="1118" y="497" on="0"/>
        <pt x="970" y="177" on="0"/>
        <pt x="698" y="1" on="0"/>
        <pt x="525" y="0" on="1"/>
      </contour>
      <contour>
        <pt x="349" y="1298" on="1"/>
        <pt x="349" y="157" on="1"/>
        <pt x="520" y="157" on="1"/>
        <pt x="712" y="157" on="0"/>
        <pt x="932" y="453" on="0"/>
        <pt x="932" y="712" on="1"/>
        <pt x="932" y="750" on="1"/>
        <pt x="932" y="1004" on="0"/>
        <pt x="720" y="1298" on="0"/>
        <pt x="534" y="1298" on="1"/>
      </contour>
    </TTGlyph>
    <TTGlyph name="glyph00484" xMin="125" yMin="-21" xMax="1189" yMax="1477">
      <contour>
        <pt x="1189" y="706" on="1"/>
        <pt x="1189" y="501" on="0"/>
        <pt x="1052" y="166" on="0"/>
        <pt x="808" y="-21" on="0"/>
        <pt x="658" y="-21" on="1"/>
        <pt x="513" y="-21" on="0"/>
        <pt x="269" y="164" on="0"/>
        <pt x="127" y="493" on="0"/>
        <pt x="125" y="692" on="1"/>
        <pt x="125" y="749" on="1"/>
        <pt x="125" y="952" on="0"/>
        <pt x="265" y="1287" on="0"/>
        <pt x="511" y="1477" on="0"/>
        <pt x="657" y="1477" on="1"/>
        <pt x="804" y="1477" on="0"/>
        <pt x="1048" y="1293" on="0"/>
        <pt x="1187" y="964" on="0"/>
        <pt x="1189" y="763" on="1"/>
      </contour>
      <contour>
        <pt x="1007" y="751" on="1"/>
        <pt x="1007" y="912" on="0"/>
        <pt x="918" y="1168" on="0"/>
        <pt x="757" y="1312" on="0"/>
        <pt x="657" y="1312" on="1"/>
        <pt x="561" y="1312" on="0"/>
        <pt x="400" y="1167" on="0"/>
        <pt x="307" y="911" on="0"/>
        <pt x="307" y="753" on="1"/>
        <pt x="307" y="706" on="1"/>
        <pt x="307" y="547" on="0"/>
        <pt x="400" y="288" on="0"/>
        <pt x="562" y="142" on="0"/>
        <pt x="658" y="142" on="1"/>
        <pt x="804" y="142" on="0"/>
        <pt x="996" y="427" on="0"/>
        <pt x="1006" y="657" on="1"/>
      </contour>
    </TTGlyph>
</ttFont>
